<?xml version="1.0" encoding="UTF-8" standalone="no"?>
<svg xmlns="http://www.w3.org/2000/svg" width="556" height="200" viewBox="0 0 556 200" version="1.1" aria-labelledby="title" role="img">
  <title>Art-Kvarc Stone</title>
  <g fill="#FFFFFF" stroke="none" fill-rule="evenodd">
    <path d="M 68 168 L 68 175 L 70 175 L 72 171 L 72 169 Z M 29 167 L 27 167 L 27 168 L 24 171 L 22 175 L 30 175 L 30 173 L 29 172 Z M 101 165 L 99 165 L 96 168 L 95 168 L 95 170 L 96 170 L 98 172 L 100 172 L 101 170 Z M 164 167 L 164 168 L 171 176 L 178 176 L 179 175 L 173 162 L 170 163 L 168 165 Z M 39 162 L 39 169 L 38 170 L 38 175 L 39 176 L 58 176 L 59 175 L 58 165 L 55 163 L 52 163 L 51 162 L 47 162 L 46 161 L 40 161 Z M 151 166 L 145 160 L 143 160 L 143 161 L 141 163 L 137 170 L 133 174 L 133 175 L 134 176 L 145 176 L 147 175 L 147 174 L 149 172 L 151 168 Z M 420 157 L 420 160 L 423 162 L 423 170 L 420 172 L 420 175 L 421 176 L 429 176 L 431 173 L 432 173 L 433 175 L 435 176 L 438 176 L 441 173 L 442 173 L 445 176 L 451 176 L 452 175 L 454 175 L 455 176 L 459 176 L 460 175 L 462 176 L 469 176 L 471 174 L 473 174 L 475 176 L 492 176 L 493 175 L 495 176 L 502 176 L 503 175 L 508 176 L 514 168 L 516 168 L 517 169 L 517 170 L 514 172 L 514 175 L 515 176 L 522 176 L 524 174 L 524 173 L 521 170 L 521 161 L 524 159 L 523 156 L 510 156 L 507 158 L 506 160 L 506 164 L 508 168 L 505 172 L 503 172 L 501 170 L 501 161 L 503 160 L 503 157 L 502 156 L 495 156 L 494 157 L 492 156 L 476 156 L 473 162 L 471 162 L 470 161 L 468 156 L 462 156 L 461 158 L 463 161 L 463 170 L 462 171 L 459 171 L 458 170 L 458 160 L 456 157 L 452 155 L 448 155 L 447 156 L 445 156 L 443 158 L 444 164 L 442 166 L 442 168 L 440 171 L 437 171 L 433 166 L 433 163 L 434 162 L 438 162 L 439 161 L 439 158 L 437 156 L 433 156 L 431 158 L 428 156 L 421 156 Z M 490 169 L 491 168 L 496 168 L 497 170 L 493 172 L 491 171 Z M 427 169 L 429 168 L 430 170 L 428 171 Z M 446 170 L 446 169 L 449 167 L 452 167 L 453 168 L 453 169 L 449 172 L 448 172 Z M 511 162 L 513 160 L 516 160 L 517 161 L 517 163 L 516 164 L 512 164 Z M 490 161 L 491 160 L 495 160 L 496 162 L 495 163 L 491 163 Z M 482 160 L 485 160 L 486 161 L 486 170 L 484 172 L 483 172 L 481 170 L 481 161 Z M 447 161 L 448 160 L 452 160 L 453 162 L 452 163 L 448 163 Z M 259 163 L 259 168 L 260 169 L 260 171 L 265 176 L 273 176 L 277 173 L 278 173 L 281 176 L 285 176 L 287 174 L 291 176 L 298 176 L 299 175 L 301 176 L 306 176 L 308 175 L 308 171 L 311 168 L 313 169 L 313 170 L 311 172 L 311 175 L 312 176 L 318 176 L 319 175 L 324 176 L 326 175 L 328 170 L 330 168 L 332 168 L 333 169 L 333 170 L 330 172 L 330 175 L 331 176 L 338 176 L 340 175 L 340 172 L 337 170 L 337 161 L 340 159 L 340 157 L 339 156 L 326 156 L 324 157 L 322 160 L 322 164 L 324 166 L 324 168 L 322 171 L 318 171 L 317 170 L 317 161 L 320 159 L 320 157 L 319 156 L 312 156 L 311 157 L 309 157 L 308 156 L 301 156 L 300 157 L 298 156 L 282 156 L 281 159 L 284 161 L 284 168 L 283 169 L 280 169 L 279 170 L 277 170 L 276 169 L 276 168 L 278 167 L 278 163 L 276 159 L 274 157 L 270 155 L 267 155 L 263 157 L 261 159 Z M 264 168 L 265 167 L 274 167 L 275 169 L 272 171 L 266 171 L 264 169 Z M 327 161 L 328 160 L 332 160 L 333 161 L 333 163 L 332 164 L 328 164 L 327 163 Z M 297 160 L 301 160 L 302 161 L 302 170 L 300 172 L 296 170 L 296 161 Z M 289 160 L 291 160 L 292 161 L 292 170 L 291 171 L 289 171 L 288 170 L 288 161 Z M 266 161 L 267 160 L 270 160 L 271 162 L 270 163 L 267 163 Z M 310 159 L 311 161 L 308 164 L 307 164 L 306 163 L 306 161 Z M 398 159 L 395 156 L 393 156 L 392 155 L 387 156 L 385 154 L 384 154 L 383 155 L 383 164 L 386 164 L 387 165 L 387 167 L 386 168 L 383 168 L 382 169 L 382 171 L 380 172 L 377 170 L 377 162 L 379 160 L 380 160 L 380 156 L 372 156 L 371 158 L 370 158 L 369 156 L 361 156 L 360 157 L 360 159 L 363 161 L 363 170 L 360 173 L 360 175 L 361 176 L 367 176 L 369 174 L 370 174 L 372 176 L 378 176 L 380 175 L 381 173 L 382 173 L 386 176 L 394 176 L 396 175 L 399 171 L 399 167 L 397 165 L 398 163 Z M 372 168 L 373 170 L 371 172 L 370 172 L 369 170 L 371 168 Z M 386 168 L 387 167 L 393 167 L 394 168 L 394 170 L 393 171 L 387 171 L 386 170 Z M 388 161 L 389 160 L 393 160 L 394 162 L 393 163 L 389 163 Z M 367 161 L 369 160 L 370 161 L 370 163 L 368 164 L 367 163 Z M 196 148 L 196 152 L 198 154 L 198 170 L 195 172 L 195 174 L 197 176 L 203 176 L 206 174 L 207 174 L 209 176 L 215 176 L 219 173 L 220 173 L 224 176 L 231 176 L 235 174 L 235 173 L 237 172 L 238 173 L 238 180 L 242 180 L 242 177 L 244 175 L 253 176 L 255 180 L 258 180 L 258 172 L 255 170 L 255 161 L 256 160 L 258 160 L 258 156 L 240 156 L 240 160 L 242 160 L 243 161 L 243 167 L 240 171 L 238 171 L 235 165 L 235 163 L 236 162 L 235 158 L 231 155 L 224 155 L 223 154 L 221 154 L 220 155 L 220 163 L 221 164 L 224 163 L 225 164 L 225 167 L 231 167 L 232 168 L 232 170 L 231 171 L 225 171 L 222 168 L 220 168 L 218 171 L 216 171 L 215 170 L 215 153 L 217 152 L 217 148 L 209 148 L 207 150 L 206 150 L 205 148 Z M 209 163 L 210 164 L 210 170 L 208 171 L 207 173 L 206 173 L 204 171 L 204 170 L 207 164 Z M 248 160 L 250 160 L 251 161 L 251 170 L 250 171 L 247 171 L 246 170 L 247 168 L 247 161 Z M 225 161 L 226 160 L 230 160 L 231 162 L 230 163 L 226 163 Z M 207 151 L 208 152 L 208 155 L 205 159 L 205 160 L 203 161 L 202 160 L 202 153 L 203 152 Z M 124 140 L 122 140 L 118 144 L 117 148 L 116 149 L 116 151 L 115 152 L 115 154 L 114 155 L 114 158 L 113 159 L 113 162 L 112 163 L 112 166 L 111 167 L 111 171 L 112 172 L 112 175 L 113 176 L 117 176 L 131 161 L 131 160 L 135 156 L 136 154 L 136 152 L 132 148 L 132 147 Z M 160 137 L 158 138 L 158 139 L 150 149 L 150 151 L 152 153 L 152 154 L 157 159 L 158 159 L 166 150 L 166 148 L 164 146 L 161 140 L 161 138 Z M 48 133 L 46 135 L 40 148 L 42 149 L 45 149 L 46 150 L 48 150 L 49 151 L 51 151 L 52 152 L 56 153 L 57 151 L 56 150 L 55 132 L 53 132 L 52 133 Z M 76 126 L 72 126 L 71 127 L 69 127 L 68 128 L 64 129 L 64 139 L 65 140 L 66 154 L 70 157 L 72 156 L 72 153 L 73 152 L 73 146 L 74 145 L 74 140 L 75 139 L 75 132 L 76 131 Z M 151 120 L 149 120 L 148 122 L 139 131 L 138 131 L 135 134 L 135 135 L 142 143 L 143 143 L 143 142 L 155 128 Z M 106 115 L 102 117 L 100 117 L 97 119 L 95 119 L 94 120 L 92 120 L 91 121 L 87 122 L 87 126 L 86 127 L 86 133 L 85 134 L 85 139 L 84 140 L 83 150 L 82 151 L 82 156 L 81 157 L 81 163 L 83 163 L 84 162 L 90 163 L 95 157 L 95 156 L 105 145 L 110 135 L 110 133 L 113 128 L 113 126 L 111 124 L 108 117 Z M 121 110 L 117 111 L 116 112 L 116 115 L 117 116 L 118 116 L 120 114 Z M 98 106 L 95 103 L 94 103 L 91 107 L 91 110 L 94 110 L 98 108 Z M 142 102 L 138 104 L 136 104 L 132 107 L 132 109 L 130 112 L 130 114 L 126 121 L 126 123 L 128 125 L 128 126 L 130 126 L 145 111 L 145 108 Z M 85 98 L 83 98 L 80 100 L 78 100 L 68 105 L 65 105 L 60 113 L 60 116 L 61 117 L 68 118 L 70 116 L 72 116 L 75 114 L 80 113 L 81 112 L 82 104 Z M 515 82 L 511 85 L 511 123 L 514 126 L 535 126 L 537 124 L 537 119 L 535 117 L 520 117 L 519 116 L 519 109 L 520 108 L 532 108 L 535 106 L 535 101 L 533 99 L 520 99 L 519 98 L 519 92 L 520 91 L 534 91 L 536 89 L 536 84 L 533 82 Z M 480 82 L 477 86 L 477 123 L 478 125 L 480 126 L 483 126 L 485 123 L 485 105 L 487 104 L 497 124 L 499 126 L 503 126 L 505 124 L 505 84 L 503 82 L 500 82 L 498 84 L 498 103 L 496 104 L 486 84 L 484 82 Z M 452 82 L 445 87 L 442 93 L 442 95 L 441 96 L 441 111 L 442 112 L 442 115 L 445 121 L 448 124 L 452 126 L 461 126 L 462 125 L 464 125 L 470 119 L 472 115 L 472 112 L 473 111 L 473 97 L 472 96 L 472 93 L 470 89 L 467 86 L 467 85 L 466 85 L 462 82 Z M 454 91 L 460 91 L 463 94 L 464 98 L 465 99 L 465 109 L 464 110 L 463 114 L 459 117 L 454 117 L 451 114 L 449 110 L 449 99 L 450 98 L 451 94 Z M 414 82 L 411 84 L 411 89 L 413 91 L 415 91 L 416 92 L 420 92 L 421 93 L 421 123 L 423 126 L 427 126 L 429 124 L 429 93 L 430 92 L 437 92 L 440 89 L 440 85 L 437 82 Z M 285 82 L 283 85 L 283 123 L 286 126 L 290 125 L 291 123 L 291 109 L 292 108 L 295 108 L 300 115 L 301 119 L 304 125 L 308 126 L 311 123 L 311 120 L 308 114 L 308 112 L 305 108 L 305 105 L 309 101 L 310 99 L 310 89 L 309 87 L 307 85 L 307 84 L 306 84 L 304 82 Z M 291 91 L 292 90 L 300 90 L 302 92 L 302 97 L 300 99 L 292 99 L 291 98 Z M 74 88 L 74 89 L 83 89 L 83 87 L 79 82 L 77 83 L 76 86 Z M 395 81 L 394 82 L 391 82 L 387 85 L 384 91 L 384 97 L 385 98 L 386 102 L 388 104 L 389 104 L 391 106 L 393 106 L 396 108 L 400 109 L 402 111 L 402 114 L 399 117 L 396 118 L 392 115 L 390 109 L 389 108 L 386 108 L 384 110 L 384 117 L 385 118 L 385 120 L 390 125 L 392 126 L 401 126 L 405 124 L 408 121 L 409 117 L 410 116 L 410 108 L 408 104 L 405 101 L 401 99 L 399 99 L 396 97 L 394 97 L 392 95 L 392 92 L 394 90 L 397 89 L 401 92 L 401 95 L 403 97 L 407 97 L 408 96 L 409 91 L 406 85 L 405 85 L 402 82 Z M 327 81 L 326 82 L 322 83 L 318 87 L 317 90 L 315 92 L 315 95 L 314 96 L 314 109 L 315 110 L 315 114 L 318 120 L 322 124 L 326 126 L 333 126 L 334 125 L 336 125 L 342 119 L 344 111 L 343 110 L 343 108 L 339 106 L 337 108 L 336 112 L 333 116 L 331 117 L 328 117 L 326 116 L 324 114 L 323 110 L 322 109 L 322 99 L 323 98 L 323 95 L 327 90 L 332 90 L 336 94 L 337 98 L 338 99 L 341 99 L 343 97 L 343 91 L 341 87 L 337 83 L 333 82 L 332 81 Z M 262 81 L 259 84 L 259 86 L 258 87 L 258 89 L 256 93 L 256 96 L 255 97 L 255 99 L 253 103 L 253 106 L 252 107 L 252 109 L 251 110 L 250 116 L 249 117 L 248 121 L 250 125 L 253 126 L 255 125 L 257 121 L 257 118 L 259 115 L 269 115 L 271 117 L 271 120 L 272 121 L 273 125 L 276 126 L 278 125 L 280 122 L 280 119 L 279 118 L 279 116 L 277 112 L 277 109 L 276 108 L 276 106 L 275 105 L 275 103 L 274 102 L 274 100 L 273 99 L 273 97 L 271 93 L 271 90 L 270 89 L 269 84 L 266 81 Z M 263 99 L 265 99 L 266 100 L 266 103 L 267 104 L 266 106 L 262 106 L 261 105 L 262 103 L 262 100 Z M 223 81 L 220 84 L 220 88 L 221 89 L 222 95 L 223 96 L 223 98 L 225 102 L 225 105 L 226 106 L 226 109 L 228 113 L 228 116 L 229 117 L 229 119 L 230 120 L 231 124 L 232 125 L 237 125 L 239 123 L 240 119 L 241 118 L 242 111 L 243 110 L 243 108 L 245 104 L 246 97 L 247 96 L 248 90 L 249 89 L 249 83 L 247 81 L 244 81 L 242 83 L 237 103 L 235 105 L 234 105 L 233 104 L 233 101 L 232 100 L 232 98 L 230 94 L 230 91 L 229 90 L 228 84 L 226 81 Z M 192 81 L 190 84 L 190 123 L 192 125 L 196 125 L 198 123 L 198 111 L 201 108 L 203 108 L 208 117 L 208 119 L 210 123 L 212 125 L 217 125 L 219 122 L 219 120 L 218 119 L 217 115 L 215 113 L 209 101 L 209 97 L 216 89 L 217 87 L 217 83 L 215 81 L 211 81 L 208 84 L 208 85 L 205 88 L 205 89 L 202 92 L 202 93 L 200 95 L 199 95 L 198 94 L 198 83 L 196 81 Z M 131 80 L 129 76 L 127 75 L 121 78 L 119 80 L 112 83 L 105 88 L 100 90 L 97 93 L 97 94 L 101 96 L 108 103 L 110 103 L 117 99 L 122 99 L 123 98 L 125 98 L 127 96 L 128 92 L 132 86 Z M 102 55 L 100 55 L 93 59 L 91 59 L 83 72 L 83 75 L 84 75 L 90 82 L 91 82 L 92 78 L 93 77 L 93 75 L 99 65 L 99 62 L 101 59 Z M 117 53 L 114 53 L 112 55 L 112 58 L 106 70 L 105 76 L 107 76 L 109 74 L 112 73 L 122 66 L 121 61 Z M 286 47 L 286 53 L 288 55 L 299 55 L 301 53 L 301 47 L 299 45 L 288 45 Z M 107 33 L 105 33 L 102 39 L 100 41 L 99 45 L 103 45 L 104 46 L 106 45 L 109 39 L 109 37 Z M 224 23 L 222 25 L 222 64 L 224 66 L 228 66 L 230 63 L 230 49 L 231 48 L 233 48 L 235 50 L 241 64 L 244 67 L 247 66 L 249 64 L 249 60 L 243 49 L 243 46 L 246 44 L 248 40 L 248 32 L 250 31 L 251 32 L 258 32 L 259 33 L 259 64 L 260 66 L 264 67 L 267 63 L 267 33 L 268 32 L 274 32 L 276 30 L 276 25 L 274 23 L 251 23 L 249 25 L 249 27 L 247 28 L 246 26 L 242 23 Z M 230 32 L 231 31 L 237 31 L 240 33 L 241 36 L 238 40 L 231 40 L 230 39 Z M 201 22 L 199 24 L 198 28 L 197 29 L 197 32 L 195 36 L 195 39 L 193 43 L 193 46 L 192 47 L 192 49 L 191 50 L 191 52 L 189 56 L 188 63 L 190 65 L 190 66 L 194 66 L 196 63 L 197 57 L 198 56 L 208 56 L 210 59 L 210 62 L 211 64 L 213 66 L 216 66 L 219 63 L 219 60 L 218 59 L 218 57 L 216 53 L 216 50 L 215 49 L 215 47 L 213 43 L 213 40 L 212 39 L 212 37 L 211 36 L 211 34 L 209 30 L 209 27 L 207 23 L 205 22 Z M 203 39 L 205 40 L 205 43 L 206 44 L 206 46 L 205 47 L 202 47 L 201 46 L 201 43 Z"/>
  </g>
</svg>
