<?xml version="1.0" encoding="UTF-8" standalone="no"?>
<svg xmlns="http://www.w3.org/2000/svg" width="519" height="281" viewBox="0 0 519 281" version="1.1" aria-labelledby="title" role="img">
  <title>ATR Garmoniya</title>
  <g fill="#FFFFFF" stroke="none" fill-rule="evenodd">
    <path d="M 483 228 L 481 231 L 481 238 L 485 242 L 485 243 L 483 245 L 479 253 L 483 253 L 485 251 L 487 246 L 491 242 L 495 242 L 496 243 L 496 253 L 499 253 L 499 227 L 485 227 Z M 484 233 L 487 230 L 495 230 L 496 231 L 496 238 L 495 239 L 488 239 L 484 236 Z M 456 227 L 456 253 L 459 253 L 460 252 L 460 242 L 461 241 L 470 241 L 471 242 L 471 252 L 472 253 L 474 253 L 475 252 L 475 227 L 471 227 L 471 236 L 470 237 L 461 237 L 460 236 L 460 228 L 459 227 Z M 425 227 L 425 252 L 426 253 L 428 253 L 429 252 L 429 239 L 431 238 L 432 239 L 432 241 L 433 242 L 433 244 L 435 248 L 435 251 L 437 253 L 439 253 L 440 249 L 441 248 L 441 246 L 442 245 L 442 243 L 443 242 L 443 240 L 445 239 L 446 240 L 446 252 L 447 253 L 449 253 L 450 252 L 450 227 L 445 227 L 444 228 L 444 230 L 443 231 L 443 233 L 442 234 L 440 242 L 438 245 L 436 244 L 436 242 L 434 238 L 434 235 L 432 231 L 432 228 L 431 227 Z M 321 227 L 321 253 L 324 253 L 326 251 L 334 235 L 336 236 L 336 253 L 339 253 L 339 227 L 335 227 L 333 232 L 331 234 L 326 244 L 324 243 L 324 227 Z M 283 227 L 283 247 L 284 248 L 284 253 L 286 253 L 287 252 L 287 227 Z M 261 227 L 261 253 L 273 253 L 274 252 L 276 252 L 279 248 L 279 242 L 278 240 L 274 237 L 265 237 L 264 236 L 264 227 Z M 264 241 L 265 240 L 272 240 L 276 243 L 276 247 L 272 250 L 265 250 L 264 249 Z M 235 227 L 235 253 L 252 253 L 253 254 L 253 261 L 254 262 L 256 262 L 256 250 L 254 250 L 253 249 L 253 227 L 250 227 L 250 249 L 249 250 L 239 250 L 238 249 L 238 227 Z M 210 227 L 210 253 L 213 253 L 214 252 L 218 243 L 220 241 L 223 235 L 225 236 L 225 253 L 228 253 L 228 227 L 224 227 L 218 239 L 215 243 L 213 242 L 213 227 Z M 184 227 L 184 252 L 185 253 L 187 253 L 187 242 L 188 241 L 199 241 L 200 242 L 200 253 L 203 253 L 203 227 L 200 227 L 200 236 L 199 237 L 188 237 L 187 236 L 187 227 Z M 148 227 L 148 253 L 177 253 L 178 252 L 178 227 L 174 227 L 174 249 L 173 250 L 165 250 L 164 249 L 164 227 L 161 227 L 161 249 L 160 250 L 153 250 L 151 248 L 151 227 Z M 98 227 L 98 248 L 96 250 L 94 250 L 94 253 L 99 253 L 101 251 L 101 249 L 102 248 L 102 231 L 103 230 L 112 230 L 113 231 L 113 253 L 116 253 L 116 227 Z M 404 227 L 401 230 L 400 234 L 403 234 L 403 233 L 406 230 L 408 229 L 411 229 L 415 232 L 415 236 L 414 237 L 411 237 L 410 238 L 405 238 L 401 240 L 401 241 L 399 243 L 399 248 L 400 250 L 403 253 L 411 253 L 414 251 L 415 251 L 416 253 L 420 253 L 419 251 L 419 233 L 418 232 L 418 230 L 413 226 L 406 226 Z M 414 240 L 415 241 L 415 246 L 411 250 L 405 250 L 403 248 L 403 244 L 405 242 L 407 241 L 411 241 L 412 240 Z M 395 226 L 391 227 L 387 236 L 385 238 L 383 237 L 383 227 L 380 227 L 380 253 L 383 253 L 383 242 L 384 241 L 386 241 L 388 243 L 392 252 L 393 253 L 396 253 L 396 251 L 394 249 L 391 242 L 389 240 L 389 238 L 392 233 L 392 231 L 396 229 L 396 227 Z M 350 226 L 345 230 L 345 233 L 348 233 L 348 232 L 352 229 L 355 230 L 357 232 L 357 234 L 355 237 L 351 237 L 351 241 L 355 241 L 358 244 L 358 247 L 355 250 L 350 250 L 347 246 L 344 246 L 344 248 L 348 253 L 356 253 L 358 252 L 361 248 L 361 243 L 358 239 L 358 238 L 360 236 L 360 230 L 355 226 Z M 129 226 L 124 230 L 122 234 L 122 237 L 121 238 L 122 246 L 124 250 L 128 253 L 137 253 L 141 249 L 142 245 L 139 245 L 135 250 L 130 250 L 126 247 L 125 241 L 126 240 L 142 240 L 142 234 L 141 233 L 141 231 L 137 227 L 135 226 Z M 125 235 L 129 230 L 133 229 L 138 233 L 139 236 L 138 237 L 126 237 Z M 84 226 L 78 226 L 76 227 L 71 232 L 71 235 L 70 236 L 70 243 L 71 244 L 71 247 L 72 249 L 76 253 L 79 253 L 80 254 L 82 253 L 85 253 L 87 251 L 88 251 L 91 246 L 91 234 L 90 233 L 90 231 L 86 227 Z M 80 229 L 84 230 L 87 233 L 87 235 L 88 236 L 88 244 L 86 248 L 83 250 L 78 250 L 74 245 L 74 235 L 75 233 Z M 49 226 L 49 230 L 55 230 L 56 231 L 56 252 L 57 253 L 59 253 L 60 252 L 60 231 L 61 230 L 67 230 L 67 227 L 56 227 L 55 226 Z M 35 226 L 34 227 L 32 227 L 28 232 L 28 234 L 27 235 L 27 244 L 28 245 L 28 248 L 30 250 L 30 251 L 31 251 L 33 253 L 41 253 L 45 250 L 46 248 L 46 244 L 43 244 L 43 246 L 40 250 L 35 250 L 31 246 L 31 241 L 30 240 L 31 238 L 31 234 L 34 230 L 36 230 L 37 229 L 40 230 L 43 234 L 46 234 L 46 232 L 42 227 L 40 226 Z M 396 136 L 396 152 L 398 154 L 400 158 L 405 163 L 407 167 L 410 170 L 410 171 L 414 176 L 414 185 L 413 186 L 413 191 L 425 191 L 425 187 L 424 186 L 424 176 L 430 169 L 430 168 L 433 165 L 433 164 L 437 160 L 439 156 L 442 153 L 442 136 L 431 136 L 431 141 L 432 142 L 432 151 L 427 156 L 427 157 L 424 160 L 424 161 L 420 166 L 419 166 L 415 162 L 415 161 L 406 150 L 406 141 L 407 140 L 407 136 Z M 379 136 L 379 155 L 380 156 L 380 170 L 379 171 L 379 191 L 382 191 L 383 192 L 389 192 L 390 191 L 390 182 L 389 181 L 389 146 L 390 145 L 390 137 L 389 136 Z M 467 135 L 465 139 L 465 141 L 462 146 L 462 148 L 459 153 L 459 155 L 457 158 L 457 160 L 454 165 L 453 170 L 451 173 L 450 178 L 448 181 L 447 186 L 445 189 L 445 192 L 454 192 L 456 190 L 456 187 L 460 179 L 483 179 L 485 181 L 485 183 L 486 184 L 486 186 L 487 187 L 488 191 L 499 191 L 499 189 L 495 181 L 494 176 L 489 166 L 489 164 L 487 161 L 487 159 L 485 156 L 485 154 L 480 144 L 480 142 L 479 141 L 479 139 L 477 135 Z M 471 149 L 472 149 L 474 151 L 475 155 L 477 158 L 479 166 L 480 167 L 480 169 L 477 171 L 465 171 L 463 169 L 464 164 L 466 161 L 466 159 Z M 318 136 L 318 158 L 319 159 L 319 169 L 318 170 L 318 191 L 328 191 L 328 155 L 329 154 L 330 154 L 334 158 L 334 159 L 337 162 L 337 163 L 340 166 L 340 167 L 343 170 L 343 171 L 346 174 L 346 175 L 349 178 L 349 179 L 352 182 L 352 183 L 355 186 L 355 187 L 358 191 L 368 191 L 368 145 L 369 144 L 369 137 L 368 136 L 359 136 L 358 137 L 358 146 L 359 147 L 359 173 L 357 174 L 356 172 L 347 162 L 347 161 L 335 146 L 333 142 L 327 135 L 325 135 L 324 136 Z M 275 135 L 274 136 L 272 136 L 266 139 L 258 148 L 256 152 L 256 154 L 255 155 L 255 158 L 254 159 L 254 170 L 255 171 L 255 173 L 256 174 L 256 176 L 258 180 L 265 188 L 273 192 L 277 192 L 278 193 L 284 193 L 285 192 L 289 192 L 290 191 L 292 191 L 298 188 L 303 183 L 303 182 L 306 179 L 308 175 L 308 173 L 309 172 L 309 169 L 310 168 L 310 159 L 309 158 L 309 155 L 308 154 L 308 152 L 306 148 L 299 140 L 292 136 L 289 136 L 288 135 Z M 278 144 L 286 144 L 287 145 L 291 146 L 298 153 L 299 157 L 300 158 L 300 168 L 299 169 L 299 171 L 297 175 L 291 181 L 287 182 L 286 183 L 276 183 L 272 181 L 266 175 L 265 171 L 264 170 L 264 168 L 263 167 L 264 157 L 266 153 L 273 146 L 277 145 Z M 188 136 L 188 154 L 189 155 L 188 191 L 198 191 L 198 162 L 199 161 L 200 161 L 202 164 L 202 166 L 206 173 L 206 175 L 214 192 L 221 192 L 221 190 L 224 185 L 225 180 L 228 175 L 230 168 L 233 162 L 235 161 L 236 162 L 235 191 L 246 191 L 246 178 L 245 177 L 246 136 L 242 136 L 241 135 L 237 135 L 232 144 L 232 146 L 229 151 L 229 153 L 226 158 L 226 160 L 223 165 L 221 172 L 218 177 L 215 175 L 211 167 L 211 165 L 207 158 L 207 156 L 204 151 L 204 149 L 201 144 L 201 142 L 197 135 Z M 137 136 L 137 143 L 138 144 L 138 179 L 137 180 L 137 191 L 148 191 L 148 173 L 149 172 L 161 172 L 164 176 L 164 178 L 166 181 L 167 186 L 170 191 L 181 191 L 178 185 L 178 183 L 176 181 L 174 177 L 174 175 L 172 172 L 172 170 L 178 164 L 180 160 L 180 157 L 181 156 L 181 150 L 180 149 L 180 147 L 178 143 L 173 138 L 169 137 L 168 136 L 163 136 L 162 135 L 157 135 L 156 136 Z M 149 144 L 152 144 L 153 143 L 159 143 L 160 144 L 164 144 L 166 145 L 170 149 L 170 151 L 171 152 L 171 156 L 170 157 L 170 159 L 166 163 L 163 163 L 162 164 L 149 164 L 148 163 L 148 145 Z M 99 135 L 97 139 L 97 141 L 94 146 L 94 148 L 92 151 L 92 153 L 90 156 L 90 158 L 85 168 L 83 176 L 81 179 L 81 181 L 80 182 L 80 184 L 79 185 L 79 187 L 77 191 L 78 192 L 85 192 L 88 190 L 89 185 L 92 179 L 116 179 L 118 182 L 118 185 L 121 191 L 131 191 L 130 186 L 128 183 L 128 181 L 126 178 L 126 176 L 124 173 L 124 171 L 122 168 L 122 166 L 120 163 L 120 161 L 118 158 L 118 156 L 116 153 L 116 151 L 114 148 L 114 146 L 112 143 L 112 141 L 110 138 L 110 136 L 109 135 Z M 104 149 L 106 150 L 106 152 L 108 155 L 108 157 L 110 160 L 110 162 L 112 166 L 112 170 L 111 171 L 97 171 L 95 169 L 96 165 L 97 164 L 97 162 L 99 159 L 99 157 L 102 151 Z M 35 138 L 27 146 L 23 154 L 23 158 L 22 159 L 22 171 L 23 172 L 24 177 L 27 181 L 27 182 L 36 190 L 40 191 L 41 192 L 45 192 L 46 193 L 53 193 L 54 192 L 58 192 L 66 188 L 69 188 L 72 190 L 74 190 L 74 185 L 73 184 L 73 164 L 67 164 L 66 163 L 63 163 L 63 176 L 64 178 L 62 180 L 58 182 L 56 182 L 55 183 L 45 183 L 44 182 L 40 181 L 34 174 L 34 172 L 32 168 L 32 160 L 33 159 L 33 156 L 35 152 L 41 146 L 45 144 L 53 144 L 59 147 L 62 150 L 62 151 L 64 153 L 65 153 L 71 147 L 69 143 L 63 138 L 59 136 L 57 136 L 56 135 L 43 135 L 42 136 L 39 136 Z M 298 26 L 297 27 L 297 115 L 337 115 L 337 96 L 339 95 L 347 103 L 360 112 L 373 117 L 377 117 L 379 118 L 382 115 L 382 112 L 381 111 L 369 109 L 366 107 L 364 107 L 360 105 L 355 101 L 357 98 L 364 97 L 372 92 L 376 88 L 380 82 L 383 75 L 383 72 L 384 71 L 384 56 L 380 45 L 374 37 L 362 29 L 360 29 L 356 27 L 352 27 L 351 26 Z M 338 32 L 352 32 L 353 33 L 356 33 L 357 34 L 359 34 L 363 36 L 365 38 L 366 38 L 374 46 L 377 52 L 377 54 L 378 55 L 378 70 L 377 71 L 377 74 L 373 82 L 367 88 L 360 92 L 358 92 L 357 93 L 345 93 L 337 85 L 337 33 Z M 199 27 L 199 31 L 200 32 L 224 32 L 225 33 L 225 115 L 264 115 L 264 37 L 265 36 L 265 33 L 266 32 L 291 32 L 292 31 L 292 27 L 291 26 L 201 26 Z M 160 22 L 159 22 L 158 25 L 156 27 L 154 32 L 152 34 L 150 39 L 148 41 L 142 53 L 135 63 L 131 72 L 127 77 L 122 87 L 120 89 L 118 94 L 116 96 L 115 99 L 110 106 L 108 111 L 106 113 L 105 115 L 106 117 L 110 117 L 112 116 L 117 106 L 120 103 L 162 103 L 165 107 L 169 115 L 208 115 L 209 116 L 212 116 L 212 113 L 210 109 L 208 107 L 205 100 L 203 98 L 195 82 L 190 75 L 188 70 L 183 63 L 180 56 L 175 49 L 173 44 L 171 42 L 169 37 L 167 35 L 164 28 L 162 26 Z M 142 66 L 145 72 L 147 74 L 152 85 L 154 87 L 158 96 L 157 97 L 133 97 L 132 98 L 125 98 L 123 96 L 125 91 L 127 89 L 128 86 L 133 79 L 138 69 L 141 66 Z"/>
  </g>
</svg>
