<?xml version="1.0" encoding="UTF-8" standalone="no"?>
<svg xmlns="http://www.w3.org/2000/svg" width="515" height="204" viewBox="0 0 515 204" version="1.1" aria-labelledby="title" role="img">
  <title>Budilov</title>
  <g fill="#FFFFFF" stroke="none" fill-rule="evenodd">
    <path d="M 66 81 L 66 89 L 67 90 L 67 137 L 66 139 L 67 140 L 89 140 L 90 139 L 95 139 L 96 138 L 101 137 L 109 130 L 109 128 L 110 127 L 110 116 L 108 112 L 104 108 L 100 106 L 98 106 L 97 105 L 79 105 L 78 104 L 78 91 L 82 89 L 92 89 L 93 90 L 106 90 L 106 81 Z M 78 114 L 79 113 L 90 113 L 96 116 L 99 121 L 99 124 L 97 128 L 92 131 L 89 131 L 88 132 L 80 132 L 78 130 Z M 409 80 L 408 81 L 408 101 L 409 102 L 409 125 L 408 126 L 408 140 L 431 140 L 432 139 L 437 139 L 438 138 L 440 138 L 441 137 L 445 136 L 450 131 L 451 127 L 452 126 L 452 118 L 450 114 L 446 110 L 442 108 L 442 106 L 444 104 L 445 104 L 448 100 L 448 97 L 449 96 L 449 90 L 447 86 L 442 82 L 440 82 L 439 81 L 434 81 L 433 80 Z M 419 115 L 420 114 L 428 113 L 429 114 L 434 114 L 438 116 L 440 118 L 440 120 L 441 121 L 440 127 L 435 131 L 432 131 L 431 132 L 421 132 L 420 131 L 420 128 L 419 127 Z M 419 90 L 420 89 L 433 89 L 437 93 L 437 100 L 433 104 L 431 105 L 420 105 L 419 104 Z M 305 80 L 304 81 L 303 87 L 302 88 L 302 91 L 301 92 L 301 94 L 300 95 L 300 97 L 299 98 L 299 100 L 298 101 L 296 109 L 293 114 L 293 116 L 291 120 L 287 125 L 287 126 L 282 130 L 283 132 L 283 140 L 285 141 L 289 139 L 297 130 L 303 118 L 303 116 L 304 115 L 304 113 L 305 112 L 305 110 L 306 109 L 306 107 L 308 103 L 308 100 L 310 96 L 310 93 L 312 89 L 314 90 L 318 90 L 319 91 L 319 139 L 320 140 L 331 140 L 331 122 L 330 121 L 330 112 L 331 111 L 331 81 L 330 80 L 328 81 L 318 81 L 317 80 Z M 227 81 L 227 116 L 228 117 L 227 119 L 227 140 L 237 140 L 238 138 L 238 135 L 241 129 L 245 125 L 245 124 L 257 109 L 259 105 L 262 102 L 264 103 L 263 105 L 263 140 L 275 140 L 275 116 L 274 115 L 274 106 L 275 105 L 275 81 L 265 81 L 263 88 L 241 117 L 239 116 L 239 81 L 237 81 L 236 80 L 233 80 L 232 81 Z M 185 80 L 184 81 L 183 86 L 180 91 L 180 93 L 177 98 L 177 100 L 175 103 L 175 105 L 172 110 L 172 112 L 171 113 L 171 115 L 170 116 L 170 118 L 168 122 L 167 128 L 165 131 L 161 131 L 161 153 L 160 154 L 160 159 L 161 160 L 169 160 L 170 159 L 170 149 L 171 148 L 171 143 L 173 140 L 206 140 L 207 141 L 207 159 L 208 160 L 216 160 L 217 159 L 217 142 L 218 141 L 218 131 L 212 131 L 210 128 L 210 81 L 209 80 Z M 198 90 L 199 91 L 199 128 L 200 130 L 199 131 L 178 131 L 177 130 L 177 125 L 179 121 L 179 118 L 180 117 L 181 112 L 183 109 L 184 104 L 186 101 L 186 99 L 191 90 Z M 162 81 L 151 81 L 150 83 L 150 86 L 148 90 L 147 97 L 146 98 L 146 100 L 145 101 L 145 103 L 144 104 L 144 106 L 142 110 L 141 110 L 138 106 L 138 104 L 131 90 L 131 88 L 129 85 L 128 81 L 127 80 L 117 80 L 116 81 L 114 81 L 120 93 L 122 95 L 126 104 L 128 106 L 132 114 L 132 116 L 135 121 L 135 124 L 134 126 L 129 131 L 127 131 L 126 132 L 119 132 L 119 141 L 127 141 L 128 140 L 131 140 L 135 137 L 136 137 L 143 129 L 150 115 L 150 113 L 152 110 L 152 108 L 155 103 L 155 101 L 158 95 L 158 93 L 159 92 L 159 90 L 160 89 Z M 367 79 L 366 80 L 360 81 L 354 84 L 347 91 L 342 102 L 341 112 L 342 113 L 342 119 L 343 120 L 344 126 L 348 131 L 348 132 L 355 138 L 359 140 L 361 140 L 362 141 L 368 141 L 370 142 L 371 141 L 376 141 L 377 140 L 379 140 L 383 138 L 386 135 L 387 135 L 393 128 L 395 124 L 396 119 L 397 118 L 397 101 L 396 100 L 396 98 L 395 97 L 394 93 L 386 84 L 380 81 L 378 81 L 377 80 Z M 366 89 L 373 89 L 377 91 L 382 96 L 384 100 L 384 102 L 385 103 L 385 107 L 386 108 L 385 118 L 384 119 L 384 121 L 382 125 L 377 130 L 373 131 L 372 132 L 368 132 L 367 131 L 365 131 L 361 129 L 357 124 L 355 120 L 355 118 L 354 117 L 354 103 L 355 102 L 355 100 L 357 96 L 362 91 Z M 495 43 L 306 44 L 306 56 L 480 56 L 481 171 L 36 171 L 35 48 L 22 48 L 22 184 L 494 185 Z M 185 48 L 185 49 L 187 48 L 189 49 L 189 52 L 188 53 L 189 56 L 191 56 L 196 50 L 201 53 L 206 51 L 207 54 L 209 55 L 217 49 L 218 49 L 221 53 L 225 52 L 226 54 L 229 56 L 231 55 L 235 48 L 237 49 L 237 52 L 239 53 L 243 48 L 245 49 L 245 52 L 246 53 L 249 53 L 256 47 L 258 48 L 257 51 L 257 55 L 258 56 L 261 54 L 261 52 L 265 48 L 267 49 L 267 53 L 268 54 L 274 52 L 277 56 L 279 56 L 285 51 L 286 51 L 288 54 L 290 54 L 293 52 L 294 49 L 291 48 L 291 45 L 292 42 L 294 40 L 294 36 L 291 38 L 285 38 L 281 41 L 279 44 L 279 47 L 281 50 L 280 52 L 279 52 L 276 48 L 273 50 L 270 49 L 272 38 L 270 38 L 268 43 L 264 46 L 262 45 L 263 39 L 260 39 L 260 40 L 249 50 L 248 47 L 251 38 L 249 38 L 245 43 L 241 46 L 240 45 L 240 37 L 237 37 L 235 39 L 235 43 L 232 50 L 229 51 L 228 48 L 224 50 L 222 49 L 222 44 L 219 43 L 222 39 L 222 37 L 218 38 L 204 50 L 200 48 L 200 44 L 204 39 L 204 36 L 202 36 L 199 42 L 196 45 L 194 44 L 195 40 L 193 39 Z M 287 40 L 289 42 L 288 45 L 285 48 L 284 48 L 282 46 L 283 43 L 286 40 Z M 173 47 L 168 42 L 165 44 L 163 43 L 165 39 L 165 35 L 164 35 L 158 44 L 153 49 L 149 49 L 148 48 L 148 46 L 153 40 L 153 37 L 152 36 L 149 36 L 146 39 L 144 43 L 144 46 L 142 48 L 141 48 L 137 43 L 134 43 L 131 45 L 130 44 L 130 38 L 127 39 L 123 43 L 122 43 L 120 39 L 119 39 L 112 45 L 110 49 L 102 53 L 100 53 L 98 51 L 98 49 L 104 43 L 108 42 L 108 39 L 103 40 L 97 44 L 92 49 L 90 49 L 89 48 L 89 44 L 86 44 L 85 43 L 85 42 L 89 39 L 89 37 L 87 37 L 82 40 L 74 48 L 74 55 L 78 54 L 81 51 L 85 49 L 88 53 L 90 53 L 94 51 L 96 55 L 98 56 L 102 56 L 106 54 L 114 47 L 116 48 L 115 50 L 115 54 L 116 54 L 123 46 L 125 46 L 126 47 L 125 54 L 127 54 L 133 47 L 135 47 L 139 51 L 144 49 L 147 53 L 151 53 L 157 49 L 158 51 L 157 52 L 156 65 L 158 65 L 160 62 L 160 60 L 165 49 L 166 48 L 172 49 Z M 52 22 L 49 24 L 49 30 L 48 31 L 48 37 L 47 38 L 47 47 L 46 48 L 46 54 L 48 54 L 49 53 L 50 41 L 52 39 L 53 39 L 56 42 L 58 42 L 60 41 L 66 35 L 67 35 L 68 36 L 68 38 L 67 39 L 66 47 L 65 48 L 65 54 L 66 54 L 68 51 L 68 48 L 69 47 L 70 40 L 72 36 L 72 32 L 73 31 L 73 24 L 72 24 L 68 28 L 66 32 L 61 37 L 58 38 L 55 35 L 55 33 L 54 32 L 54 22 Z"/>
  </g>
</svg>
