<?xml version="1.0" encoding="UTF-8" standalone="no"?>
<svg xmlns="http://www.w3.org/2000/svg" width="399" height="318" viewBox="0 0 399 318" version="1.1" aria-labelledby="title" role="img">
  <title>Kvars.uz</title>
  <g fill="#FFFFFF" stroke="none" fill-rule="evenodd">
    <path d="M 266 282 L 266 297 L 267 298 L 278 298 L 279 297 L 279 282 Z M 288 239 L 288 245 L 287 246 L 287 250 L 288 251 L 288 283 L 289 284 L 289 286 L 291 290 L 297 296 L 301 297 L 302 298 L 305 298 L 306 299 L 313 299 L 314 298 L 317 298 L 318 297 L 322 296 L 327 292 L 330 286 L 330 284 L 331 283 L 331 274 L 332 273 L 332 270 L 331 269 L 331 266 L 332 265 L 332 261 L 331 260 L 331 255 L 332 254 L 332 252 L 331 251 L 331 239 L 318 239 L 318 241 L 317 242 L 317 245 L 318 246 L 318 252 L 317 253 L 318 255 L 318 262 L 317 263 L 317 280 L 313 284 L 311 285 L 308 285 L 306 284 L 302 280 L 302 278 L 301 277 L 301 239 Z M 338 239 L 338 252 L 359 252 L 360 254 L 357 257 L 357 258 L 354 261 L 354 262 L 351 265 L 351 266 L 347 270 L 347 271 L 344 274 L 342 278 L 337 284 L 337 298 L 379 298 L 380 297 L 380 285 L 379 284 L 357 284 L 356 283 L 360 276 L 367 268 L 369 264 L 374 259 L 376 255 L 379 252 L 379 239 L 374 239 L 373 238 L 370 238 L 369 239 L 356 239 L 355 238 L 340 238 Z M 231 238 L 230 239 L 226 240 L 220 246 L 219 248 L 219 251 L 218 252 L 218 259 L 219 260 L 219 262 L 221 266 L 224 269 L 225 269 L 229 272 L 231 272 L 232 273 L 238 274 L 239 275 L 243 276 L 245 278 L 245 283 L 241 286 L 236 286 L 231 282 L 230 276 L 227 276 L 226 277 L 217 277 L 216 278 L 216 280 L 217 281 L 217 285 L 220 291 L 224 295 L 230 298 L 234 298 L 235 299 L 242 299 L 243 298 L 246 298 L 250 296 L 255 292 L 259 284 L 259 274 L 258 273 L 257 269 L 251 263 L 247 261 L 242 260 L 241 259 L 235 258 L 232 255 L 232 252 L 235 250 L 239 250 L 243 253 L 244 257 L 256 257 L 257 256 L 257 251 L 256 250 L 256 248 L 254 244 L 251 241 L 247 239 L 245 239 L 244 238 Z M 170 238 L 168 242 L 168 248 L 169 249 L 168 251 L 168 294 L 169 295 L 169 297 L 170 298 L 182 298 L 183 297 L 183 276 L 184 275 L 187 275 L 190 278 L 191 282 L 199 298 L 214 298 L 214 295 L 210 287 L 210 285 L 206 277 L 202 273 L 203 271 L 207 269 L 211 262 L 211 250 L 208 244 L 203 240 L 201 240 L 200 239 L 172 239 Z M 183 252 L 184 251 L 192 251 L 194 252 L 197 256 L 196 260 L 194 262 L 191 262 L 190 263 L 184 263 L 183 262 Z M 131 239 L 130 240 L 130 242 L 128 246 L 128 249 L 127 250 L 127 252 L 126 253 L 126 255 L 125 256 L 125 258 L 123 262 L 123 265 L 122 266 L 122 268 L 121 269 L 121 271 L 120 272 L 120 274 L 118 278 L 118 281 L 117 282 L 117 284 L 115 288 L 115 291 L 114 292 L 113 297 L 114 298 L 126 298 L 128 296 L 129 291 L 131 288 L 140 288 L 141 287 L 143 287 L 147 289 L 148 293 L 149 294 L 149 297 L 150 298 L 163 298 L 164 297 L 164 294 L 163 293 L 163 291 L 162 290 L 162 288 L 160 284 L 160 281 L 159 280 L 159 278 L 158 277 L 158 275 L 156 271 L 156 268 L 155 267 L 155 265 L 153 261 L 153 258 L 152 257 L 152 255 L 151 254 L 151 252 L 150 251 L 150 249 L 148 245 L 147 239 L 142 239 L 141 238 L 134 238 L 133 239 Z M 138 259 L 140 260 L 140 262 L 141 263 L 141 266 L 142 267 L 142 270 L 143 271 L 143 273 L 142 274 L 135 274 L 134 273 L 135 267 L 136 266 L 136 263 Z M 120 239 L 105 239 L 96 275 L 94 274 L 92 269 L 86 241 L 84 238 L 52 239 L 38 258 L 36 257 L 36 239 L 22 239 L 22 297 L 23 298 L 35 298 L 36 297 L 36 281 L 43 275 L 47 281 L 54 298 L 70 298 L 70 295 L 53 262 L 54 259 L 63 248 L 70 242 L 72 245 L 74 255 L 87 297 L 88 298 L 102 298 L 104 295 L 110 273 L 115 260 Z M 162 112 L 158 112 L 156 114 L 150 127 L 148 129 L 121 183 L 119 185 L 118 189 L 116 191 L 107 209 L 108 212 L 110 213 L 178 213 L 182 211 L 183 207 L 184 206 L 185 199 L 186 198 L 186 193 L 187 192 L 187 171 L 186 170 L 186 164 L 185 163 L 185 159 L 184 158 L 184 155 L 183 154 L 183 151 L 182 150 L 180 142 L 170 122 L 168 120 L 166 116 Z M 204 22 L 197 31 L 187 52 L 180 80 L 181 111 L 183 116 L 184 124 L 191 143 L 224 209 L 229 213 L 299 213 L 301 211 L 301 208 L 206 22 Z"/>
  </g>
</svg>
