<?xml version="1.0" encoding="UTF-8" standalone="no"?>
<svg xmlns="http://www.w3.org/2000/svg" width="462" height="225" viewBox="0 0 462 225" version="1.1" aria-labelledby="title" role="img">
  <title>LM Stones</title>
  <g fill="#FFFFFF" stroke="none" fill-rule="evenodd">
    <path d="M 298 130 L 298 183 L 339 183 L 339 174 L 310 174 L 309 173 L 309 161 L 310 160 L 336 160 L 337 159 L 337 152 L 336 151 L 310 151 L 309 150 L 309 140 L 310 139 L 332 139 L 333 138 L 337 139 L 338 138 L 338 130 L 337 129 L 301 129 L 300 130 Z M 243 129 L 242 130 L 242 182 L 243 183 L 252 183 L 253 182 L 253 153 L 255 152 L 262 162 L 262 163 L 264 165 L 264 166 L 266 168 L 266 169 L 268 171 L 273 181 L 275 183 L 286 183 L 286 130 L 285 129 L 277 129 L 276 130 L 276 161 L 274 162 L 269 155 L 268 152 L 263 146 L 262 143 L 258 138 L 254 130 L 252 129 Z M 133 129 L 132 130 L 132 138 L 133 139 L 147 139 L 148 140 L 148 183 L 159 183 L 159 140 L 161 138 L 173 138 L 175 139 L 175 130 L 174 129 Z M 357 130 L 355 131 L 350 136 L 349 138 L 349 140 L 348 141 L 348 147 L 349 148 L 349 150 L 353 155 L 359 158 L 365 159 L 366 160 L 369 160 L 370 161 L 372 161 L 373 162 L 377 163 L 380 166 L 380 169 L 377 173 L 373 175 L 365 175 L 361 173 L 359 171 L 358 169 L 358 166 L 357 165 L 350 165 L 349 166 L 347 166 L 347 171 L 348 172 L 348 174 L 353 180 L 359 183 L 362 183 L 363 184 L 374 184 L 375 183 L 379 183 L 385 180 L 390 174 L 390 172 L 391 171 L 391 163 L 390 162 L 390 160 L 388 158 L 388 157 L 383 153 L 381 153 L 380 152 L 378 152 L 374 150 L 371 150 L 370 149 L 362 147 L 359 144 L 359 141 L 363 138 L 373 138 L 377 141 L 378 145 L 389 145 L 389 141 L 386 135 L 383 132 L 377 129 L 373 129 L 372 128 L 365 128 L 364 129 L 360 129 L 359 130 Z M 199 129 L 198 130 L 193 131 L 191 133 L 190 133 L 185 138 L 185 139 L 182 143 L 181 149 L 180 150 L 180 163 L 181 164 L 181 167 L 186 176 L 194 182 L 200 183 L 201 184 L 213 184 L 214 183 L 217 183 L 224 179 L 228 175 L 228 174 L 231 170 L 231 168 L 233 164 L 233 148 L 232 147 L 232 145 L 229 139 L 220 131 L 218 131 L 214 129 L 209 129 L 208 128 Z M 202 138 L 211 138 L 215 140 L 220 145 L 220 147 L 221 148 L 221 152 L 222 153 L 221 165 L 219 169 L 215 173 L 211 174 L 210 175 L 204 175 L 203 174 L 201 174 L 197 172 L 193 167 L 193 165 L 192 164 L 192 149 L 193 148 L 193 146 L 194 144 L 198 140 Z M 96 129 L 90 132 L 86 136 L 85 138 L 85 140 L 84 141 L 84 147 L 85 148 L 86 152 L 89 155 L 90 155 L 94 158 L 97 158 L 101 160 L 104 160 L 105 161 L 108 161 L 109 162 L 113 163 L 115 165 L 116 168 L 113 173 L 109 174 L 108 175 L 101 175 L 97 173 L 95 171 L 93 165 L 86 165 L 85 166 L 83 166 L 83 171 L 87 178 L 92 182 L 98 183 L 99 184 L 110 184 L 111 183 L 115 183 L 122 179 L 126 173 L 126 168 L 127 166 L 126 165 L 126 162 L 124 158 L 121 155 L 120 155 L 116 152 L 110 151 L 109 150 L 106 150 L 105 149 L 102 149 L 101 148 L 97 147 L 94 144 L 94 142 L 99 138 L 109 138 L 113 142 L 114 145 L 125 145 L 124 139 L 121 135 L 121 134 L 120 134 L 115 130 L 113 130 L 112 129 L 106 129 L 105 128 L 103 128 L 102 129 Z M 22 105 L 22 206 L 442 206 L 441 104 Z M 29 113 L 434 112 L 435 198 L 30 199 Z M 207 70 L 203 70 L 202 73 L 200 75 L 197 81 L 189 89 L 183 92 L 179 92 L 179 96 L 207 96 Z M 140 23 L 140 26 L 144 26 L 148 29 L 148 89 L 145 92 L 142 92 L 140 94 L 140 95 L 141 96 L 174 96 L 175 95 L 175 29 L 177 27 L 183 26 L 183 23 Z M 274 23 L 272 27 L 273 29 L 273 90 L 270 92 L 266 92 L 265 93 L 265 95 L 266 96 L 306 96 L 307 95 L 307 93 L 306 92 L 303 92 L 299 89 L 299 30 L 302 27 L 306 26 L 307 24 L 306 23 L 302 23 L 301 22 L 297 22 L 296 23 L 291 23 L 290 22 L 281 22 L 280 23 Z M 216 23 L 216 26 L 218 27 L 222 27 L 224 29 L 228 39 L 227 41 L 225 41 L 225 82 L 224 83 L 223 88 L 220 91 L 216 92 L 216 96 L 239 96 L 239 92 L 234 91 L 230 85 L 230 59 L 229 58 L 229 55 L 227 50 L 227 46 L 226 45 L 226 42 L 227 41 L 229 42 L 229 44 L 230 45 L 232 53 L 234 56 L 234 58 L 235 59 L 247 96 L 252 96 L 257 80 L 258 79 L 258 77 L 259 76 L 259 74 L 261 71 L 265 57 L 268 51 L 268 48 L 270 44 L 270 39 L 269 37 L 268 37 L 268 39 L 265 45 L 265 48 L 263 52 L 261 53 L 260 52 L 257 41 L 255 38 L 254 32 L 252 29 L 251 24 L 249 22 L 223 22 L 222 23 Z"/>
  </g>
</svg>
