<?xml version="1.0" encoding="UTF-8" standalone="no"?>
<svg xmlns="http://www.w3.org/2000/svg" width="290" height="310" viewBox="0 0 290 310" version="1.1" aria-labelledby="title" role="img">
  <title>MasterStone.Uz</title>
  <g fill="#FFFFFF" stroke="none" fill-rule="evenodd">
    <path d="M 30 263 L 29 265 L 29 268 L 34 273 L 35 276 L 34 277 L 25 277 L 23 280 L 23 283 L 38 291 L 40 291 L 41 287 L 38 285 L 34 284 L 33 282 L 34 281 L 43 281 L 44 279 L 40 275 L 39 272 L 40 271 L 42 271 L 45 273 L 47 273 L 49 269 L 48 268 L 43 267 L 40 265 L 38 265 L 34 263 Z M 63 187 L 61 191 L 61 193 L 58 198 L 57 203 L 49 219 L 49 221 L 50 221 L 51 223 L 45 228 L 43 233 L 45 239 L 47 240 L 50 240 L 53 238 L 53 237 L 58 232 L 60 233 L 60 236 L 59 238 L 55 241 L 55 245 L 54 246 L 41 246 L 40 247 L 37 247 L 36 249 L 36 252 L 38 255 L 49 266 L 51 265 L 51 262 L 49 260 L 49 257 L 53 251 L 57 251 L 57 249 L 58 248 L 57 245 L 61 242 L 64 236 L 64 231 L 63 229 L 60 227 L 57 227 L 55 228 L 50 235 L 48 235 L 47 234 L 47 232 L 48 230 L 52 227 L 51 223 L 55 217 L 60 218 L 68 222 L 70 222 L 71 220 L 71 218 L 70 217 L 66 216 L 61 213 L 59 213 L 57 211 L 59 207 L 59 204 L 61 203 L 73 209 L 75 209 L 81 196 L 81 194 L 80 193 L 78 193 L 75 199 L 75 201 L 72 203 L 70 201 L 70 199 L 73 194 L 73 192 L 72 191 L 70 191 L 67 198 L 66 199 L 64 199 L 63 198 L 63 196 L 66 190 L 66 188 Z M 42 252 L 43 251 L 46 251 L 47 252 L 47 254 L 46 255 L 44 255 L 42 253 Z M 79 150 L 75 158 L 75 161 L 79 166 L 83 165 L 90 157 L 92 158 L 92 162 L 91 164 L 87 167 L 87 171 L 88 173 L 87 174 L 81 174 L 80 173 L 80 171 L 78 169 L 75 168 L 70 171 L 65 183 L 73 187 L 75 187 L 78 189 L 83 190 L 85 186 L 84 185 L 81 185 L 79 183 L 79 181 L 81 179 L 88 179 L 90 175 L 89 171 L 93 168 L 95 164 L 95 162 L 96 161 L 96 156 L 93 153 L 90 152 L 88 153 L 81 161 L 80 161 L 79 160 L 79 157 L 83 152 L 83 150 Z M 73 174 L 76 174 L 77 175 L 77 178 L 75 181 L 73 181 L 71 179 L 71 177 Z M 88 130 L 81 146 L 82 147 L 85 147 L 86 144 L 87 143 L 89 143 L 97 147 L 102 148 L 103 146 L 103 144 L 102 143 L 98 142 L 89 137 L 91 131 L 90 130 Z M 100 111 L 95 114 L 95 115 L 92 119 L 91 124 L 92 125 L 93 129 L 96 132 L 98 132 L 99 133 L 106 133 L 110 130 L 112 126 L 113 121 L 112 120 L 111 116 L 107 112 L 105 112 L 104 111 Z M 98 117 L 100 117 L 101 116 L 105 117 L 109 121 L 109 124 L 106 128 L 102 129 L 101 128 L 99 128 L 96 125 L 95 121 Z M 107 87 L 105 90 L 105 92 L 107 92 L 110 94 L 112 94 L 113 96 L 110 98 L 102 100 L 100 102 L 99 105 L 103 107 L 105 107 L 112 111 L 117 112 L 118 108 L 115 106 L 111 105 L 110 103 L 111 102 L 113 102 L 114 101 L 122 99 L 124 96 L 124 94 Z M 135 67 L 134 66 L 131 66 L 130 67 L 130 69 L 129 70 L 130 73 L 128 75 L 128 77 L 126 80 L 126 82 L 124 84 L 122 84 L 121 83 L 121 81 L 124 75 L 123 73 L 121 73 L 120 74 L 119 79 L 117 81 L 116 81 L 114 79 L 114 77 L 117 72 L 117 69 L 114 68 L 108 83 L 110 83 L 117 87 L 119 87 L 124 90 L 126 90 L 130 82 L 130 80 L 132 77 L 131 73 L 135 70 Z M 158 51 L 64 286 L 79 286 L 94 250 L 143 250 L 158 286 L 176 286 L 190 250 L 240 250 L 255 286 L 270 286 L 240 209 L 173 51 Z M 214 186 L 215 186 L 217 189 L 217 191 L 219 194 L 219 196 L 221 199 L 221 201 L 224 206 L 224 208 L 228 216 L 229 221 L 234 231 L 234 233 L 236 237 L 235 239 L 195 239 L 194 238 L 197 232 L 197 230 L 198 229 L 198 227 L 199 226 L 201 218 L 203 215 L 203 213 L 204 212 L 206 204 L 208 201 L 210 193 L 212 190 L 212 188 Z M 118 186 L 119 186 L 121 188 L 123 196 L 125 199 L 126 204 L 128 207 L 128 209 L 130 212 L 131 217 L 133 220 L 135 228 L 137 231 L 137 233 L 139 237 L 138 239 L 99 239 L 98 238 L 99 234 L 101 231 L 102 226 L 104 223 L 105 218 L 107 215 L 107 213 L 109 210 L 110 205 L 112 202 L 112 200 L 114 197 L 115 192 Z M 140 134 L 193 134 L 196 140 L 196 142 L 198 145 L 198 147 L 201 152 L 201 154 L 203 157 L 203 159 L 206 164 L 206 169 L 205 170 L 203 178 L 201 181 L 201 183 L 198 189 L 197 194 L 195 197 L 195 199 L 193 202 L 192 207 L 190 210 L 190 212 L 186 220 L 185 225 L 183 228 L 182 233 L 178 241 L 177 246 L 175 249 L 175 251 L 173 254 L 173 256 L 171 259 L 171 261 L 169 264 L 169 266 L 167 268 L 165 267 L 165 265 L 163 262 L 163 260 L 160 255 L 159 250 L 157 247 L 157 245 L 153 237 L 151 229 L 149 226 L 149 224 L 147 221 L 147 219 L 145 216 L 145 214 L 143 211 L 143 209 L 139 201 L 138 196 L 136 193 L 135 188 L 133 185 L 133 183 L 130 178 L 130 176 L 127 170 L 127 164 L 129 161 L 129 159 L 131 156 L 131 154 L 133 151 L 133 149 L 137 141 L 138 136 Z M 165 69 L 166 69 L 168 71 L 168 73 L 171 79 L 171 81 L 173 84 L 173 86 L 176 91 L 176 93 L 178 96 L 178 98 L 181 103 L 182 108 L 184 111 L 184 113 L 187 119 L 187 121 L 186 122 L 146 122 L 145 121 L 146 116 L 148 113 L 148 111 L 150 108 L 151 103 L 153 100 L 153 98 L 157 90 L 158 85 L 160 82 L 160 80 L 162 77 L 162 75 Z M 125 41 L 124 43 L 124 46 L 126 46 L 131 49 L 133 49 L 137 53 L 137 56 L 135 58 L 131 58 L 128 56 L 124 55 L 122 53 L 120 53 L 119 58 L 130 63 L 136 63 L 139 60 L 141 56 L 141 51 L 140 49 L 136 45 L 132 44 L 127 41 Z M 133 23 L 131 26 L 131 28 L 128 33 L 127 37 L 128 38 L 131 38 L 131 36 L 133 33 L 133 31 L 135 30 L 141 42 L 141 45 L 145 45 L 148 39 L 148 37 L 151 32 L 151 30 L 148 29 L 145 36 L 143 37 L 137 26 L 137 24 Z"/>
  </g>
</svg>
