<?xml version="1.0" encoding="UTF-8" standalone="no"?>
<svg xmlns="http://www.w3.org/2000/svg" width="308" height="322" viewBox="0 0 308 322" version="1.1" aria-labelledby="title" role="img">
  <title>Mir Stone</title>
  <g fill="#FFFFFF" stroke="none" fill-rule="evenodd">
    <path d="M 267 272 L 266 273 L 266 302 L 289 302 L 289 298 L 273 298 L 272 297 L 272 290 L 273 289 L 287 289 L 287 284 L 273 284 L 272 283 L 272 278 L 273 277 L 288 277 L 288 272 Z M 231 272 L 231 302 L 236 302 L 236 286 L 237 285 L 238 285 L 240 287 L 241 290 L 243 292 L 244 295 L 249 302 L 255 302 L 255 273 L 254 272 L 250 272 L 250 289 L 248 290 L 244 285 L 243 282 L 241 280 L 236 272 Z M 201 272 L 197 274 L 194 277 L 192 281 L 192 283 L 191 284 L 191 291 L 192 292 L 192 294 L 194 298 L 196 300 L 200 302 L 202 302 L 203 303 L 209 303 L 210 302 L 213 302 L 218 298 L 221 292 L 221 283 L 220 282 L 220 280 L 219 278 L 215 274 L 211 272 Z M 203 277 L 210 277 L 214 281 L 215 283 L 215 290 L 214 291 L 214 293 L 213 295 L 209 298 L 204 298 L 202 297 L 198 293 L 198 291 L 197 290 L 197 285 L 198 284 L 198 282 L 199 280 Z M 161 272 L 160 273 L 160 277 L 168 277 L 169 278 L 169 289 L 170 290 L 170 294 L 169 295 L 169 302 L 175 302 L 175 278 L 176 277 L 184 277 L 184 272 Z M 135 272 L 133 273 L 129 277 L 129 283 L 131 285 L 131 286 L 132 286 L 134 288 L 140 289 L 141 290 L 144 290 L 147 293 L 147 294 L 144 298 L 138 298 L 136 297 L 134 295 L 134 293 L 132 292 L 131 293 L 128 293 L 129 298 L 132 301 L 136 302 L 137 303 L 144 303 L 145 302 L 147 302 L 151 299 L 153 295 L 153 292 L 151 288 L 146 285 L 137 283 L 135 281 L 135 279 L 137 277 L 143 277 L 145 278 L 147 281 L 151 281 L 152 279 L 151 277 L 147 273 L 145 272 Z M 80 272 L 79 273 L 79 289 L 78 290 L 78 293 L 79 294 L 79 302 L 84 302 L 84 291 L 85 290 L 90 290 L 94 294 L 94 295 L 99 302 L 106 302 L 102 295 L 97 290 L 98 288 L 101 287 L 103 285 L 104 279 L 102 275 L 96 272 Z M 84 278 L 85 277 L 95 277 L 98 280 L 98 282 L 95 285 L 85 285 L 84 284 Z M 63 272 L 62 273 L 62 284 L 63 285 L 63 289 L 62 290 L 63 298 L 62 299 L 62 301 L 63 302 L 68 302 L 68 272 Z M 24 272 L 23 273 L 23 284 L 22 285 L 22 287 L 23 288 L 23 302 L 28 302 L 28 287 L 29 286 L 31 287 L 31 290 L 32 291 L 33 297 L 34 298 L 34 301 L 35 302 L 40 302 L 41 301 L 42 295 L 43 294 L 43 291 L 44 290 L 44 287 L 45 286 L 47 287 L 47 302 L 52 302 L 52 273 L 51 272 L 44 272 L 42 275 L 42 278 L 41 279 L 41 282 L 39 286 L 39 289 L 37 290 L 35 286 L 35 283 L 33 279 L 32 273 L 30 272 Z M 152 22 L 58 182 L 55 190 L 157 250 L 257 191 L 258 187 L 161 22 Z M 156 39 L 216 138 L 213 139 L 200 130 L 156 57 L 93 170 L 152 135 L 159 134 L 241 183 L 238 188 L 157 236 L 109 206 L 119 202 L 154 224 L 158 224 L 218 187 L 157 151 L 86 193 L 72 185 Z"/>
  </g>
</svg>
