<?xml version="1.0" encoding="UTF-8" standalone="no"?>
<svg xmlns="http://www.w3.org/2000/svg" width="383" height="310" viewBox="0 0 383 310" version="1.1" aria-labelledby="title" role="img">
  <title>Planet Stone</title>
  <g fill="#FFFFFF" stroke="none" fill-rule="evenodd">
    <path d="M 204 276 L 203 277 L 203 279 L 207 277 L 210 279 L 210 281 L 202 289 L 202 290 L 203 291 L 212 291 L 212 289 L 208 289 L 207 288 L 207 287 L 212 282 L 212 278 L 210 276 Z M 115 271 L 115 273 L 180 273 L 181 275 L 176 279 L 174 279 L 172 276 L 166 276 L 164 278 L 164 279 L 166 279 L 169 277 L 171 279 L 171 281 L 164 288 L 164 291 L 174 291 L 173 289 L 169 289 L 168 288 L 174 281 L 176 282 L 176 286 L 179 291 L 184 291 L 187 287 L 187 279 L 183 275 L 184 273 L 193 273 L 194 275 L 191 276 L 190 279 L 192 279 L 194 277 L 197 279 L 197 281 L 190 288 L 190 291 L 199 291 L 199 289 L 195 289 L 194 288 L 199 282 L 199 278 L 195 275 L 196 273 L 259 273 L 259 271 Z M 181 277 L 182 277 L 185 281 L 185 285 L 182 289 L 181 289 L 179 287 L 179 279 Z M 329 236 L 329 254 L 342 254 L 343 255 L 343 259 L 345 259 L 345 255 L 346 254 L 349 254 L 350 253 L 350 251 L 352 249 L 358 249 L 360 251 L 361 254 L 363 254 L 363 251 L 361 248 L 361 246 L 360 245 L 360 243 L 358 240 L 357 236 L 354 236 L 353 237 L 353 239 L 351 242 L 351 244 L 347 252 L 344 252 L 343 251 L 343 236 L 340 236 L 340 238 L 341 239 L 341 250 L 339 252 L 332 252 L 331 251 L 331 236 Z M 355 242 L 356 242 L 358 245 L 357 247 L 354 247 L 353 246 L 353 244 Z M 279 236 L 279 254 L 287 254 L 289 253 L 291 251 L 291 246 L 290 245 L 290 238 L 288 236 Z M 281 246 L 282 245 L 285 245 L 287 246 L 289 248 L 289 249 L 286 252 L 282 252 L 281 251 Z M 281 239 L 282 238 L 286 238 L 288 240 L 288 241 L 286 243 L 282 243 L 281 242 Z M 262 236 L 262 253 L 263 254 L 265 254 L 265 247 L 267 246 L 270 249 L 273 254 L 275 254 L 275 252 L 270 245 L 270 243 L 275 237 L 275 236 L 272 236 L 267 243 L 265 242 L 265 236 Z M 192 236 L 192 254 L 200 254 L 204 251 L 205 251 L 207 254 L 209 254 L 209 236 L 207 236 L 206 237 L 206 245 L 205 246 L 204 246 L 201 243 L 196 243 L 195 242 L 195 236 Z M 204 248 L 206 247 L 207 249 L 205 250 Z M 195 246 L 196 245 L 199 245 L 202 247 L 202 249 L 199 252 L 196 252 L 195 251 Z M 153 236 L 153 254 L 156 254 L 156 253 L 163 243 L 165 244 L 165 254 L 168 254 L 168 236 L 165 236 L 157 247 L 155 246 L 155 236 Z M 134 236 L 133 237 L 133 241 L 134 242 L 134 248 L 133 249 L 133 253 L 134 254 L 136 254 L 136 246 L 137 245 L 144 245 L 145 246 L 145 253 L 146 254 L 148 254 L 148 236 L 146 236 L 146 242 L 145 243 L 137 243 L 136 242 L 136 236 Z M 77 236 L 77 245 L 76 246 L 76 250 L 74 252 L 73 252 L 73 254 L 75 254 L 78 252 L 79 250 L 79 246 L 80 245 L 80 239 L 81 238 L 85 238 L 86 239 L 86 254 L 88 254 L 89 252 L 89 237 L 88 236 Z M 323 236 L 320 236 L 319 235 L 317 236 L 313 236 L 313 254 L 315 254 L 315 248 L 316 247 L 320 247 L 321 246 L 323 246 L 325 244 L 325 238 Z M 315 239 L 316 238 L 321 238 L 323 240 L 323 242 L 321 244 L 317 245 L 315 243 Z M 301 235 L 299 237 L 299 239 L 297 242 L 297 244 L 296 245 L 296 247 L 295 248 L 295 250 L 293 254 L 295 254 L 298 249 L 305 249 L 306 250 L 307 254 L 310 254 L 308 250 L 307 245 L 305 242 L 304 237 L 302 235 Z M 301 241 L 303 242 L 303 244 L 304 245 L 303 247 L 300 247 L 299 246 L 299 244 Z M 247 235 L 243 235 L 239 237 L 240 239 L 244 237 L 246 237 L 248 239 L 248 242 L 247 243 L 242 244 L 242 245 L 245 245 L 247 246 L 249 248 L 249 250 L 247 252 L 242 252 L 241 251 L 239 251 L 239 253 L 243 254 L 244 255 L 246 254 L 249 254 L 252 250 L 252 248 L 250 245 L 250 243 L 251 242 L 251 238 Z M 221 235 L 220 237 L 220 253 L 221 254 L 223 254 L 227 249 L 228 246 L 231 243 L 232 243 L 233 244 L 233 254 L 235 254 L 235 236 L 232 236 L 232 237 L 229 240 L 228 243 L 225 246 L 224 246 L 223 245 L 223 236 Z M 172 236 L 172 253 L 173 254 L 186 254 L 187 255 L 187 259 L 189 259 L 189 252 L 187 251 L 187 236 L 186 235 L 184 236 L 184 251 L 183 252 L 176 252 L 175 251 L 175 236 Z M 129 236 L 128 235 L 126 236 L 126 251 L 125 252 L 121 252 L 120 251 L 120 236 L 117 236 L 117 251 L 116 252 L 112 252 L 111 251 L 111 236 L 108 236 L 108 254 L 129 254 Z M 103 235 L 101 235 L 100 236 L 93 236 L 93 254 L 104 254 L 104 252 L 97 252 L 96 251 L 96 246 L 97 245 L 99 246 L 102 246 L 103 245 L 103 243 L 97 243 L 96 242 L 96 239 L 97 238 L 104 238 L 104 236 Z M 58 236 L 55 239 L 55 241 L 54 242 L 54 248 L 56 252 L 59 254 L 67 254 L 71 250 L 71 248 L 72 247 L 72 242 L 70 238 L 65 235 L 61 235 L 60 236 Z M 61 238 L 66 238 L 68 240 L 68 242 L 69 243 L 69 247 L 65 252 L 61 252 L 59 251 L 57 248 L 57 242 L 58 240 Z M 24 239 L 23 243 L 22 244 L 23 250 L 27 254 L 35 254 L 37 253 L 37 251 L 35 251 L 34 252 L 29 252 L 26 249 L 26 247 L 25 246 L 26 241 L 29 238 L 35 238 L 36 239 L 37 239 L 38 237 L 40 238 L 43 238 L 44 239 L 44 254 L 47 254 L 47 239 L 48 238 L 52 238 L 53 236 L 52 235 L 42 235 L 41 236 L 37 237 L 33 235 L 30 235 L 29 236 L 27 236 Z M 330 141 L 298 141 L 303 150 L 304 156 L 305 157 L 305 175 L 304 176 L 304 180 L 302 186 L 298 193 L 289 201 L 281 204 L 263 204 L 262 203 L 256 202 L 244 195 L 239 190 L 229 175 L 229 173 L 223 160 L 221 148 L 220 146 L 217 146 L 217 205 L 220 205 L 222 199 L 226 196 L 231 196 L 245 203 L 258 207 L 262 207 L 263 208 L 286 208 L 287 207 L 295 206 L 305 202 L 311 198 L 321 188 L 328 176 L 330 166 L 331 165 L 331 159 L 332 158 L 332 151 L 331 150 L 331 143 Z M 83 141 L 82 142 L 82 184 L 81 185 L 80 190 L 79 192 L 73 198 L 69 199 L 68 200 L 65 200 L 64 201 L 56 201 L 55 202 L 55 204 L 139 204 L 139 202 L 138 201 L 131 201 L 130 200 L 127 200 L 126 199 L 122 198 L 115 192 L 113 188 L 113 186 L 112 185 L 112 181 L 111 180 L 111 145 L 110 144 L 110 141 Z M 185 133 L 185 136 L 186 137 L 224 137 L 225 135 L 224 133 Z M 327 97 L 326 98 L 326 129 L 343 129 L 344 128 L 343 126 L 343 123 L 333 123 L 332 122 L 332 116 L 333 115 L 342 115 L 342 110 L 333 110 L 332 109 L 332 104 L 333 103 L 343 103 L 343 98 L 342 97 Z M 299 97 L 298 98 L 298 129 L 303 129 L 304 128 L 304 114 L 305 113 L 307 114 L 313 127 L 315 129 L 320 129 L 321 128 L 321 98 L 320 97 L 316 97 L 315 98 L 315 112 L 313 113 L 306 99 L 304 97 Z M 277 97 L 273 99 L 268 106 L 268 110 L 267 111 L 268 121 L 269 123 L 274 128 L 276 129 L 285 129 L 287 128 L 291 124 L 293 120 L 293 116 L 294 115 L 293 106 L 291 102 L 287 98 L 285 98 L 284 97 Z M 278 103 L 283 103 L 287 108 L 287 118 L 283 123 L 278 123 L 274 118 L 274 108 Z M 246 97 L 245 98 L 245 103 L 251 103 L 252 104 L 252 129 L 258 129 L 258 104 L 259 103 L 266 103 L 266 98 L 265 97 Z M 231 97 L 226 101 L 225 103 L 225 109 L 226 111 L 230 115 L 234 116 L 237 119 L 237 121 L 234 124 L 231 124 L 230 123 L 226 122 L 225 123 L 225 127 L 228 129 L 237 129 L 241 126 L 243 122 L 243 117 L 242 115 L 238 111 L 233 109 L 231 107 L 231 105 L 233 103 L 239 103 L 241 104 L 242 102 L 242 99 L 239 97 Z M 144 98 L 144 129 L 162 129 L 162 123 L 151 123 L 150 122 L 150 117 L 152 115 L 160 115 L 160 113 L 161 112 L 160 110 L 152 110 L 150 108 L 150 104 L 151 103 L 161 103 L 162 102 L 164 103 L 171 103 L 172 104 L 172 107 L 171 108 L 171 114 L 172 115 L 172 129 L 177 129 L 178 128 L 178 104 L 179 103 L 185 103 L 185 98 L 184 97 L 169 97 L 168 98 L 162 98 L 161 97 L 145 97 Z M 117 97 L 116 98 L 116 120 L 115 121 L 115 123 L 116 124 L 116 129 L 121 129 L 122 128 L 122 115 L 123 114 L 124 114 L 126 116 L 131 127 L 133 129 L 138 129 L 139 128 L 139 98 L 138 97 L 134 97 L 132 99 L 132 101 L 133 102 L 132 104 L 132 106 L 133 107 L 133 112 L 131 113 L 128 107 L 126 105 L 124 99 L 122 97 Z M 70 98 L 70 104 L 69 105 L 69 107 L 70 108 L 70 129 L 93 129 L 94 125 L 95 124 L 95 122 L 96 121 L 103 121 L 105 123 L 105 125 L 107 129 L 113 129 L 113 126 L 112 125 L 112 123 L 111 122 L 111 120 L 110 119 L 110 117 L 109 116 L 109 114 L 108 113 L 108 111 L 107 110 L 107 108 L 105 104 L 104 98 L 102 97 L 98 97 L 96 98 L 96 100 L 95 101 L 95 103 L 94 104 L 94 106 L 93 107 L 93 109 L 91 113 L 91 116 L 90 117 L 90 119 L 88 123 L 77 123 L 76 122 L 76 99 L 75 97 L 71 97 Z M 98 111 L 99 110 L 101 110 L 102 111 L 102 114 L 101 115 L 99 115 L 98 114 Z M 57 97 L 49 97 L 47 98 L 47 129 L 52 129 L 53 128 L 53 118 L 54 117 L 60 117 L 62 116 L 66 111 L 66 104 L 65 102 L 61 98 L 58 98 Z M 54 103 L 57 103 L 60 106 L 60 108 L 57 112 L 54 112 L 53 111 L 53 104 Z M 54 26 L 54 28 L 64 29 L 72 32 L 80 41 L 82 48 L 82 81 L 110 81 L 110 31 L 111 30 L 136 30 L 137 31 L 141 31 L 153 36 L 158 40 L 162 45 L 168 60 L 168 65 L 169 66 L 169 81 L 198 81 L 199 80 L 199 66 L 198 65 L 198 61 L 192 48 L 189 44 L 181 37 L 168 30 L 162 28 L 158 28 L 157 27 L 152 27 L 151 26 Z M 225 69 L 226 81 L 256 81 L 256 80 L 249 72 L 246 64 L 246 51 L 247 50 L 248 44 L 252 37 L 260 30 L 268 27 L 282 27 L 283 28 L 286 28 L 293 31 L 305 42 L 314 58 L 314 60 L 317 66 L 319 77 L 320 78 L 323 78 L 322 25 L 319 25 L 318 29 L 313 33 L 306 32 L 295 26 L 289 25 L 288 24 L 285 24 L 284 23 L 265 23 L 264 24 L 261 24 L 260 25 L 255 26 L 246 31 L 235 42 L 232 48 L 230 50 L 230 52 L 228 55 L 227 61 L 226 62 L 226 68 Z"/>
  </g>
</svg>
