<?xml version="1.0" encoding="UTF-8" standalone="no"?>
<svg xmlns="http://www.w3.org/2000/svg" width="345" height="279" viewBox="0 0 345 279" version="1.1" aria-labelledby="title" role="img">
  <title>Stone House</title>
  <g fill="#FFFFFF" stroke="none" fill-rule="evenodd">
    <path d="M 115 209 L 111 213 L 111 216 L 110 217 L 111 223 L 112 225 L 115 227 L 122 227 L 126 224 L 126 222 L 127 221 L 127 215 L 126 213 L 122 209 Z M 281 156 L 277 155 L 276 154 L 271 154 L 270 155 L 266 156 L 262 160 L 260 164 L 260 173 L 261 174 L 261 176 L 262 176 L 270 168 L 271 168 L 281 158 Z M 159 154 L 158 155 L 154 156 L 148 162 L 147 164 L 147 175 L 153 182 L 157 184 L 159 184 L 160 185 L 163 185 L 164 184 L 167 184 L 173 180 L 177 172 L 177 167 L 176 166 L 176 163 L 171 157 L 167 155 L 165 155 L 164 154 Z M 22 23 L 23 260 L 325 259 L 325 23 Z M 276 206 L 290 206 L 291 207 L 290 209 L 279 209 L 279 216 L 289 216 L 290 217 L 289 219 L 280 219 L 279 220 L 279 227 L 291 227 L 292 228 L 291 230 L 276 230 L 275 229 L 275 207 Z M 227 206 L 235 206 L 239 209 L 238 211 L 236 211 L 234 209 L 229 209 L 227 210 L 226 213 L 229 216 L 235 217 L 240 221 L 240 226 L 236 230 L 234 230 L 233 231 L 228 231 L 227 230 L 225 230 L 222 227 L 223 225 L 225 225 L 229 228 L 232 228 L 236 225 L 236 223 L 233 220 L 230 220 L 226 218 L 222 213 L 222 211 Z M 167 206 L 169 206 L 170 207 L 170 224 L 173 227 L 179 227 L 181 226 L 182 224 L 182 207 L 183 206 L 185 206 L 186 207 L 186 225 L 183 229 L 179 231 L 173 231 L 169 229 L 167 227 L 166 225 L 166 207 Z M 112 207 L 114 206 L 123 206 L 125 207 L 130 212 L 130 214 L 131 215 L 131 221 L 130 222 L 129 226 L 126 229 L 122 230 L 121 231 L 116 231 L 115 230 L 113 230 L 107 224 L 107 222 L 106 221 L 106 215 L 108 211 Z M 53 206 L 55 206 L 56 207 L 56 216 L 68 216 L 68 207 L 69 206 L 71 206 L 72 207 L 72 229 L 71 230 L 69 230 L 68 229 L 68 220 L 67 219 L 56 219 L 56 229 L 55 230 L 53 230 L 52 229 L 52 207 Z M 60 147 L 76 147 L 79 150 L 79 152 L 76 155 L 73 155 L 72 154 L 63 154 L 60 156 L 60 161 L 62 163 L 73 168 L 80 175 L 80 178 L 81 179 L 81 182 L 78 188 L 72 192 L 69 192 L 68 193 L 59 193 L 58 192 L 54 191 L 52 189 L 52 187 L 56 183 L 60 185 L 69 185 L 72 183 L 72 181 L 73 180 L 72 177 L 70 175 L 59 170 L 53 164 L 52 162 L 52 155 L 53 153 L 58 148 Z M 272 146 L 276 146 L 277 147 L 283 148 L 285 150 L 286 150 L 291 155 L 292 157 L 292 159 L 268 181 L 269 183 L 273 184 L 274 185 L 276 185 L 277 184 L 281 183 L 284 180 L 286 180 L 290 184 L 290 185 L 285 190 L 281 192 L 278 192 L 277 193 L 268 192 L 261 188 L 255 182 L 252 176 L 252 173 L 251 172 L 251 168 L 252 167 L 252 163 L 253 162 L 253 160 L 254 158 L 258 154 L 258 153 L 263 149 L 267 147 L 271 147 Z M 206 150 L 212 147 L 215 147 L 216 146 L 224 147 L 231 151 L 237 158 L 237 160 L 239 163 L 239 191 L 237 193 L 233 193 L 231 191 L 231 165 L 229 161 L 224 156 L 220 155 L 219 154 L 216 154 L 215 155 L 211 156 L 206 161 L 205 163 L 205 165 L 204 166 L 204 185 L 205 186 L 205 190 L 202 193 L 199 193 L 196 190 L 196 165 L 197 164 L 197 162 L 200 156 Z M 158 146 L 165 146 L 166 147 L 169 147 L 175 150 L 182 157 L 184 161 L 184 164 L 185 165 L 185 174 L 180 184 L 173 190 L 169 192 L 166 192 L 165 193 L 159 193 L 158 192 L 155 192 L 154 191 L 150 190 L 142 182 L 140 178 L 140 176 L 139 175 L 139 165 L 140 164 L 140 161 L 142 157 L 149 150 L 150 150 L 152 148 L 154 148 Z M 105 116 L 106 116 L 108 118 L 108 140 L 109 141 L 119 141 L 120 142 L 120 147 L 119 148 L 109 148 L 108 149 L 108 172 L 109 173 L 109 175 L 111 179 L 114 182 L 115 182 L 117 184 L 125 185 L 127 187 L 127 190 L 124 193 L 120 193 L 119 192 L 114 191 L 112 189 L 108 187 L 105 184 L 105 183 L 102 179 L 102 177 L 101 176 L 101 170 L 100 169 L 100 154 L 101 153 L 101 150 L 99 148 L 92 148 L 90 146 L 90 143 L 92 141 L 100 141 L 100 122 L 101 120 Z M 131 105 L 132 104 L 139 104 L 140 105 L 140 111 L 138 113 L 133 113 L 131 111 Z M 121 105 L 122 104 L 129 104 L 130 105 L 130 112 L 129 113 L 122 113 L 121 112 Z M 131 94 L 132 93 L 136 93 L 138 94 L 140 96 L 140 102 L 139 103 L 132 103 L 131 102 Z M 124 93 L 129 93 L 130 94 L 130 102 L 129 103 L 122 103 L 121 102 L 121 96 Z M 52 125 L 60 112 L 105 70 L 124 54 L 128 52 L 134 52 L 141 56 L 199 102 L 202 101 L 202 74 L 207 68 L 218 67 L 223 71 L 224 86 L 228 85 L 238 78 L 245 78 L 251 82 L 286 115 L 291 123 L 292 128 L 291 131 L 286 135 L 279 133 L 241 100 L 205 125 L 197 126 L 132 75 L 129 75 L 62 134 L 55 133 L 52 128 Z"/>
  </g>
</svg>
