<?xml version="1.0" encoding="UTF-8" standalone="no"?>
<svg xmlns="http://www.w3.org/2000/svg" width="469" height="268" viewBox="0 0 469 268" version="1.1" aria-labelledby="title" role="img">
  <title>T.A.R. Kvarc</title>
  <g fill="#FFFFFF" stroke="none" fill-rule="evenodd">
    <path d="M 362 212 L 360 216 L 359 224 L 358 225 L 358 228 L 357 229 L 357 234 L 359 238 L 363 240 L 367 240 L 368 239 L 370 239 L 376 236 L 378 238 L 378 239 L 381 239 L 382 240 L 380 248 L 386 248 L 389 235 L 388 234 L 385 234 L 384 233 L 384 228 L 385 227 L 385 224 L 386 223 L 386 220 L 387 219 L 388 212 L 381 212 L 380 213 L 380 216 L 379 217 L 379 221 L 378 222 L 377 229 L 373 233 L 369 234 L 368 235 L 367 235 L 365 233 L 365 228 L 366 227 L 366 224 L 367 223 L 367 220 L 368 219 L 368 215 L 369 214 L 369 212 Z M 441 211 L 436 211 L 435 212 L 434 218 L 433 219 L 433 222 L 432 223 L 432 227 L 431 228 L 431 231 L 430 232 L 430 235 L 429 236 L 429 239 L 436 239 L 437 237 L 438 228 L 439 227 L 439 224 L 440 223 L 440 220 L 441 219 L 441 216 L 442 215 L 442 212 Z M 402 211 L 400 214 L 400 217 L 399 218 L 399 221 L 398 222 L 398 225 L 397 226 L 397 230 L 396 231 L 396 234 L 395 235 L 395 239 L 416 239 L 417 238 L 421 237 L 425 232 L 425 227 L 420 223 L 407 223 L 406 222 L 406 218 L 407 217 L 408 211 Z M 403 234 L 403 231 L 405 227 L 416 227 L 418 229 L 418 231 L 414 235 L 404 235 Z M 326 211 L 324 214 L 324 217 L 323 218 L 323 221 L 322 222 L 322 225 L 321 226 L 321 229 L 320 230 L 320 234 L 322 238 L 326 239 L 327 240 L 330 240 L 336 237 L 337 237 L 338 239 L 345 239 L 345 236 L 346 235 L 346 232 L 347 231 L 347 228 L 348 227 L 348 224 L 349 223 L 349 219 L 350 218 L 351 212 L 350 211 L 345 211 L 343 213 L 343 217 L 342 218 L 342 221 L 341 222 L 341 225 L 340 226 L 339 230 L 335 234 L 333 235 L 330 235 L 328 233 L 328 228 L 329 227 L 329 224 L 330 223 L 330 220 L 331 219 L 332 211 Z M 289 211 L 288 212 L 288 215 L 287 216 L 286 224 L 285 225 L 285 228 L 284 229 L 284 232 L 283 233 L 282 239 L 289 239 L 290 238 L 291 231 L 293 227 L 302 227 L 303 228 L 303 233 L 302 234 L 302 237 L 301 239 L 309 239 L 310 231 L 311 230 L 311 227 L 312 226 L 312 223 L 313 222 L 313 219 L 314 218 L 314 214 L 315 212 L 314 211 L 308 211 L 307 212 L 306 219 L 304 222 L 295 222 L 294 221 L 294 218 L 295 217 L 295 214 L 296 212 Z M 279 212 L 271 212 L 271 216 L 270 217 L 270 220 L 269 221 L 268 228 L 267 230 L 263 234 L 261 235 L 259 235 L 257 233 L 257 228 L 258 227 L 258 223 L 259 222 L 259 219 L 260 218 L 261 212 L 258 212 L 257 211 L 255 211 L 254 212 L 253 216 L 252 217 L 252 220 L 251 221 L 250 228 L 249 230 L 245 234 L 243 235 L 241 235 L 239 233 L 239 228 L 240 227 L 240 224 L 241 223 L 241 220 L 242 219 L 243 212 L 236 212 L 235 214 L 235 217 L 234 218 L 234 221 L 233 222 L 232 230 L 231 231 L 231 235 L 232 237 L 236 240 L 241 240 L 242 239 L 244 239 L 248 236 L 249 236 L 252 239 L 255 239 L 256 240 L 261 239 L 264 237 L 265 237 L 266 239 L 272 239 L 273 238 L 273 235 L 274 234 L 274 231 L 275 230 L 275 226 L 276 225 L 276 222 L 277 221 L 277 218 L 278 217 L 278 214 Z M 217 211 L 208 211 L 204 213 L 199 218 L 198 222 L 197 223 L 197 231 L 198 232 L 198 234 L 202 238 L 204 239 L 207 239 L 208 240 L 212 240 L 213 239 L 216 239 L 218 238 L 223 233 L 223 232 L 217 231 L 214 234 L 212 235 L 209 235 L 204 231 L 204 228 L 205 227 L 224 227 L 225 226 L 225 218 L 224 216 L 220 212 L 218 212 Z M 205 221 L 206 219 L 210 216 L 215 216 L 218 218 L 218 222 L 217 223 L 206 223 Z M 168 211 L 166 214 L 166 217 L 165 218 L 164 226 L 163 227 L 162 232 L 160 234 L 155 234 L 154 239 L 156 239 L 157 240 L 161 240 L 162 239 L 164 239 L 168 235 L 169 233 L 169 230 L 170 229 L 170 226 L 171 225 L 171 222 L 172 221 L 172 218 L 173 217 L 182 217 L 183 218 L 183 222 L 182 223 L 181 230 L 179 234 L 179 239 L 186 239 L 187 233 L 188 232 L 188 229 L 189 228 L 189 225 L 190 224 L 190 220 L 192 216 L 192 212 L 170 212 Z M 144 211 L 134 211 L 130 213 L 125 218 L 123 222 L 123 226 L 122 227 L 122 229 L 123 230 L 124 234 L 128 238 L 130 239 L 133 239 L 134 240 L 139 240 L 140 239 L 143 239 L 147 237 L 152 231 L 152 229 L 153 228 L 153 219 L 152 217 L 147 212 L 145 212 Z M 142 216 L 146 221 L 146 226 L 145 227 L 145 229 L 140 234 L 136 235 L 131 232 L 130 230 L 130 224 L 132 220 L 135 217 L 137 216 Z M 74 212 L 74 214 L 73 215 L 73 219 L 72 220 L 71 228 L 70 229 L 70 232 L 69 233 L 68 239 L 75 239 L 76 238 L 76 234 L 77 233 L 77 230 L 78 229 L 78 225 L 79 224 L 79 222 L 80 220 L 85 216 L 89 216 L 90 217 L 90 223 L 89 224 L 89 227 L 88 228 L 88 232 L 87 233 L 86 239 L 93 239 L 94 238 L 94 234 L 95 233 L 95 230 L 96 229 L 96 225 L 97 224 L 97 222 L 98 220 L 102 216 L 104 215 L 106 215 L 109 218 L 108 220 L 108 223 L 107 224 L 107 228 L 106 229 L 106 232 L 105 233 L 105 237 L 104 239 L 111 239 L 112 238 L 112 234 L 113 233 L 113 230 L 114 229 L 114 226 L 115 225 L 115 222 L 116 221 L 116 215 L 115 213 L 114 213 L 112 211 L 104 211 L 100 214 L 97 214 L 94 211 L 87 211 L 83 213 L 82 213 L 81 211 L 76 211 Z M 47 211 L 43 213 L 37 219 L 36 225 L 35 226 L 35 230 L 36 231 L 37 235 L 40 238 L 42 239 L 53 239 L 54 238 L 56 238 L 61 233 L 61 230 L 54 230 L 54 231 L 51 234 L 45 234 L 43 232 L 43 224 L 44 223 L 44 221 L 49 216 L 54 216 L 57 219 L 57 220 L 64 220 L 64 217 L 61 213 L 57 211 Z M 381 129 L 379 134 L 379 169 L 380 170 L 380 175 L 383 179 L 386 181 L 393 182 L 394 183 L 404 183 L 405 182 L 435 183 L 436 182 L 443 181 L 447 178 L 449 175 L 450 166 L 427 166 L 427 180 L 426 181 L 403 181 L 401 179 L 401 127 L 404 124 L 423 124 L 428 127 L 428 141 L 449 141 L 450 140 L 450 134 L 448 129 L 445 126 L 437 123 L 392 123 L 384 126 Z M 442 167 L 443 168 L 443 175 L 439 179 L 435 180 L 434 179 L 435 177 L 435 168 L 436 167 Z M 388 127 L 390 127 L 391 128 L 391 178 L 390 179 L 389 179 L 385 175 L 385 130 Z M 434 125 L 439 126 L 441 128 L 441 138 L 440 139 L 434 139 L 433 138 L 433 126 Z M 283 123 L 283 125 L 288 125 L 289 126 L 289 180 L 288 181 L 282 181 L 282 183 L 317 183 L 317 181 L 312 181 L 311 180 L 311 176 L 310 175 L 311 173 L 311 155 L 312 154 L 329 154 L 335 157 L 335 175 L 336 176 L 336 179 L 340 183 L 364 183 L 363 181 L 359 181 L 357 179 L 357 162 L 352 156 L 348 154 L 349 152 L 354 150 L 356 148 L 358 144 L 358 133 L 357 132 L 357 130 L 353 126 L 349 124 L 346 124 L 345 123 Z M 340 155 L 346 156 L 349 159 L 349 180 L 348 181 L 344 181 L 340 178 L 340 159 L 339 158 L 339 156 Z M 341 125 L 347 126 L 349 128 L 349 148 L 346 151 L 344 151 L 343 152 L 340 152 L 339 151 L 340 149 L 340 126 Z M 294 125 L 300 125 L 301 126 L 301 180 L 300 181 L 295 181 L 293 179 L 293 176 L 294 175 L 294 172 L 293 171 L 293 162 L 294 161 L 294 157 L 293 156 L 293 145 L 294 144 L 294 141 L 293 140 L 293 126 Z M 312 124 L 331 124 L 336 127 L 336 149 L 333 152 L 331 153 L 312 153 L 311 152 L 311 129 L 310 128 L 310 126 Z M 221 123 L 220 125 L 220 128 L 219 129 L 219 131 L 217 135 L 217 138 L 215 142 L 215 145 L 214 146 L 214 148 L 213 149 L 213 151 L 212 152 L 212 154 L 211 155 L 211 157 L 210 158 L 210 160 L 208 164 L 208 167 L 207 168 L 207 170 L 206 171 L 204 179 L 202 181 L 197 181 L 197 183 L 215 183 L 216 181 L 210 181 L 209 180 L 210 173 L 213 167 L 238 167 L 240 169 L 241 175 L 243 179 L 242 181 L 238 181 L 238 183 L 270 183 L 270 181 L 266 181 L 264 179 L 264 177 L 263 176 L 263 174 L 262 173 L 262 171 L 261 170 L 261 168 L 260 167 L 260 165 L 258 161 L 258 158 L 257 157 L 257 155 L 256 154 L 256 152 L 255 151 L 255 149 L 254 148 L 254 146 L 253 145 L 253 143 L 252 142 L 252 140 L 251 139 L 251 137 L 250 136 L 250 134 L 248 130 L 247 124 L 246 123 Z M 225 126 L 227 127 L 227 130 L 228 131 L 228 133 L 229 134 L 229 136 L 231 140 L 231 143 L 232 144 L 232 146 L 234 150 L 234 153 L 235 154 L 235 156 L 236 157 L 236 159 L 238 163 L 238 165 L 237 166 L 214 166 L 213 165 L 213 163 L 215 160 L 215 157 L 216 156 L 216 154 L 217 153 L 217 151 L 218 150 L 218 148 L 219 147 L 219 145 L 220 144 L 220 142 L 222 138 L 222 135 L 223 134 L 223 131 L 224 130 L 224 127 Z M 231 125 L 238 125 L 240 127 L 240 129 L 241 130 L 241 132 L 242 133 L 242 135 L 243 136 L 243 138 L 244 139 L 244 141 L 245 142 L 245 144 L 246 145 L 246 147 L 247 148 L 247 150 L 248 151 L 248 153 L 250 157 L 250 160 L 251 161 L 251 163 L 252 164 L 252 166 L 253 167 L 253 169 L 255 173 L 255 176 L 257 179 L 256 181 L 249 181 L 247 179 L 247 177 L 246 176 L 246 174 L 245 173 L 245 171 L 244 170 L 244 168 L 243 167 L 243 165 L 241 161 L 241 158 L 240 157 L 240 155 L 239 154 L 239 152 L 238 151 L 238 149 L 237 148 L 237 146 L 236 145 L 236 143 L 235 142 L 235 140 L 234 139 L 234 137 L 233 136 L 233 134 L 232 133 L 232 131 L 230 127 Z M 114 123 L 114 125 L 119 125 L 121 127 L 121 129 L 122 130 L 122 132 L 125 139 L 125 142 L 126 143 L 126 145 L 127 146 L 127 148 L 130 155 L 130 158 L 132 161 L 132 164 L 134 168 L 134 171 L 135 172 L 136 178 L 137 179 L 138 183 L 163 183 L 164 179 L 165 178 L 165 176 L 166 175 L 166 172 L 167 171 L 167 169 L 168 168 L 168 166 L 171 159 L 171 156 L 172 155 L 172 153 L 175 146 L 175 143 L 176 142 L 176 140 L 177 139 L 177 137 L 180 130 L 180 127 L 182 125 L 189 125 L 189 123 L 168 123 L 168 125 L 175 125 L 176 127 L 175 128 L 175 130 L 172 137 L 172 140 L 171 141 L 171 143 L 170 144 L 170 146 L 169 147 L 169 149 L 166 156 L 166 159 L 163 166 L 163 169 L 162 170 L 161 175 L 159 177 L 157 176 L 156 170 L 155 169 L 155 167 L 152 160 L 152 157 L 151 156 L 151 154 L 150 153 L 150 151 L 149 150 L 149 148 L 148 147 L 148 145 L 147 144 L 147 142 L 146 141 L 146 139 L 145 138 L 145 136 L 142 129 L 142 126 L 143 125 L 148 125 L 148 124 L 147 123 Z M 126 125 L 133 125 L 134 126 L 134 129 L 136 132 L 136 134 L 138 138 L 138 141 L 139 142 L 139 144 L 140 145 L 140 147 L 141 148 L 141 150 L 142 151 L 142 153 L 144 157 L 144 160 L 145 161 L 146 167 L 147 168 L 148 174 L 149 175 L 149 179 L 146 181 L 143 181 L 141 179 L 141 177 L 140 176 L 140 174 L 138 170 L 138 167 L 137 166 L 137 164 L 136 163 L 136 161 L 134 157 L 134 154 L 133 153 L 133 151 L 132 150 L 132 148 L 131 147 L 131 145 L 130 144 L 130 142 L 129 141 L 129 139 L 128 138 L 128 136 L 127 135 L 127 133 L 125 129 L 125 126 Z M 22 123 L 22 125 L 28 125 L 29 126 L 29 180 L 28 181 L 22 181 L 22 183 L 56 183 L 56 181 L 51 181 L 49 179 L 49 157 L 50 156 L 55 160 L 72 179 L 71 181 L 69 181 L 69 183 L 101 183 L 101 181 L 95 181 L 84 170 L 64 147 L 64 145 L 84 125 L 94 125 L 94 123 L 71 123 L 71 125 L 77 125 L 78 127 L 51 152 L 49 151 L 49 126 L 50 125 L 56 125 L 56 123 Z M 58 150 L 60 150 L 72 163 L 72 164 L 74 166 L 75 166 L 76 168 L 85 177 L 85 179 L 84 180 L 77 180 L 76 178 L 59 160 L 59 159 L 55 155 L 55 153 Z M 34 125 L 39 125 L 40 126 L 40 180 L 39 181 L 34 181 L 33 180 L 33 171 L 32 170 L 32 159 L 33 158 L 32 132 L 33 131 L 33 126 Z M 122 94 L 121 93 L 119 93 L 118 94 L 94 94 L 94 95 L 122 95 Z M 275 94 L 274 93 L 272 93 L 271 91 L 270 91 L 270 93 L 269 94 L 244 94 L 244 95 L 275 95 Z M 393 92 L 389 90 L 389 92 L 387 94 L 385 94 L 379 97 L 377 97 L 371 100 L 370 102 L 382 96 L 384 96 L 388 94 L 391 94 L 393 93 Z M 421 85 L 421 91 L 422 91 L 422 85 Z M 408 82 L 406 84 L 406 90 L 413 96 L 415 96 L 419 94 L 419 93 L 417 94 L 415 93 L 415 92 L 418 89 L 418 85 L 417 83 L 413 82 L 412 81 Z M 294 81 L 290 83 L 288 87 L 288 89 L 293 94 L 294 94 L 295 96 L 297 96 L 301 94 L 304 91 L 305 87 L 303 83 L 300 84 L 298 82 Z M 301 88 L 303 87 L 304 89 L 302 90 Z M 161 81 L 157 84 L 156 86 L 156 89 L 163 96 L 164 96 L 164 93 L 166 91 L 168 90 L 171 91 L 172 90 L 172 86 L 171 84 L 168 85 L 166 82 Z M 365 59 L 370 70 L 371 70 L 366 59 Z M 381 33 L 380 33 L 380 34 L 382 38 L 382 42 L 381 43 L 381 46 L 379 50 L 380 50 L 382 46 L 382 43 L 383 42 L 383 39 L 382 38 L 382 35 Z M 90 30 L 87 30 L 85 31 L 83 33 L 81 39 L 82 39 L 83 35 L 87 31 L 90 31 Z M 326 27 L 325 29 L 329 32 L 329 56 L 328 57 L 324 57 L 322 58 L 321 63 L 326 63 L 327 62 L 329 63 L 328 66 L 323 66 L 323 67 L 328 67 L 329 68 L 329 85 L 324 90 L 324 91 L 345 91 L 347 90 L 349 92 L 348 94 L 326 94 L 326 95 L 353 95 L 349 90 L 347 89 L 343 89 L 342 87 L 344 86 L 344 66 L 346 64 L 350 64 L 351 63 L 356 63 L 357 64 L 362 79 L 366 99 L 379 92 L 382 92 L 383 90 L 382 90 L 371 78 L 365 69 L 361 60 L 359 58 L 360 56 L 362 56 L 371 52 L 377 46 L 378 43 L 378 35 L 376 31 L 372 27 L 360 22 L 342 22 L 341 23 L 337 23 Z M 353 58 L 355 60 L 354 62 L 343 64 L 343 86 L 341 87 L 339 84 L 339 79 L 340 78 L 340 76 L 339 75 L 339 70 L 340 69 L 339 67 L 339 62 L 341 60 L 345 60 L 346 59 L 350 59 L 351 58 Z M 341 26 L 343 26 L 344 25 L 356 25 L 362 28 L 361 30 L 358 29 L 358 30 L 361 31 L 362 29 L 364 30 L 363 33 L 365 33 L 367 36 L 367 43 L 362 50 L 355 54 L 347 55 L 346 56 L 344 55 L 344 30 L 345 29 L 355 29 L 355 28 L 346 28 L 345 29 L 343 29 L 343 55 L 342 56 L 340 55 L 340 27 Z M 219 22 L 223 29 L 217 43 L 216 48 L 214 49 L 213 52 L 207 49 L 203 55 L 203 57 L 206 57 L 211 60 L 208 69 L 202 81 L 196 87 L 191 90 L 191 91 L 216 91 L 217 93 L 216 94 L 192 94 L 192 95 L 220 95 L 220 93 L 216 89 L 214 85 L 214 77 L 218 66 L 223 70 L 227 76 L 229 76 L 238 66 L 240 67 L 247 84 L 241 91 L 265 91 L 268 90 L 267 88 L 264 89 L 260 86 L 262 84 L 262 82 L 254 64 L 255 61 L 264 61 L 264 59 L 262 57 L 259 50 L 256 51 L 255 49 L 251 50 L 248 49 L 241 31 L 241 29 L 244 25 L 241 27 L 240 32 L 248 50 L 247 52 L 244 50 L 236 29 L 241 22 Z M 216 63 L 218 65 L 218 66 L 216 67 L 216 69 L 214 73 L 214 77 L 213 78 L 213 84 L 211 85 L 210 84 L 210 75 L 212 71 L 212 68 L 214 64 Z M 259 55 L 261 56 L 262 59 L 261 60 L 253 60 L 252 62 L 254 65 L 254 67 L 257 72 L 257 74 L 261 82 L 261 84 L 260 85 L 259 85 L 257 82 L 257 80 L 255 77 L 255 75 L 252 70 L 252 68 L 249 62 L 249 59 L 250 58 L 256 57 Z M 226 35 L 228 36 L 228 38 L 224 46 L 224 48 L 222 51 L 221 57 L 222 57 L 222 54 L 226 46 L 226 44 L 227 42 L 229 41 L 231 43 L 231 45 L 234 50 L 235 55 L 237 58 L 237 59 L 231 65 L 230 65 L 230 66 L 228 68 L 227 68 L 220 60 L 220 59 L 219 59 L 217 57 L 219 49 Z M 72 22 L 72 25 L 76 32 L 77 37 L 78 37 L 80 31 L 85 27 L 88 26 L 97 26 L 98 27 L 97 29 L 94 29 L 94 30 L 97 30 L 99 32 L 99 35 L 98 36 L 98 41 L 99 42 L 98 45 L 98 55 L 99 56 L 99 84 L 92 91 L 114 91 L 117 90 L 113 85 L 113 31 L 114 30 L 117 30 L 117 29 L 112 30 L 112 85 L 110 86 L 109 85 L 109 27 L 110 26 L 120 26 L 124 28 L 123 31 L 126 30 L 129 35 L 134 38 L 139 28 L 138 27 L 134 35 L 132 36 L 131 33 L 136 24 L 136 22 Z"/>
  </g>
</svg>
