<?xml version="1.0" encoding="UTF-8" standalone="no"?>
<svg xmlns="http://www.w3.org/2000/svg" width="433" height="253" viewBox="0 0 433 253" version="1.1" aria-labelledby="title" role="img">
  <title>Territoriya Kvartsa</title>
  <g fill="#FFFFFF" stroke="none" fill-rule="evenodd">
    <path d="M 327 154 L 327 158 L 328 159 L 328 164 L 329 165 L 329 170 L 330 171 L 330 176 L 331 177 L 331 183 L 332 184 L 332 189 L 333 190 L 334 200 L 336 204 L 337 211 L 343 223 L 347 228 L 348 228 L 353 232 L 355 232 L 359 234 L 370 234 L 371 233 L 374 233 L 381 229 L 387 222 L 389 218 L 390 213 L 391 212 L 391 209 L 392 208 L 392 202 L 393 201 L 393 188 L 391 186 L 389 186 L 387 188 L 387 200 L 386 201 L 386 205 L 385 206 L 385 208 L 383 212 L 378 217 L 376 218 L 371 218 L 367 216 L 363 211 L 361 207 L 360 202 L 359 201 L 358 193 L 357 192 L 357 187 L 356 186 L 356 181 L 355 180 L 355 176 L 354 175 L 354 171 L 353 170 L 353 166 L 352 165 L 352 162 L 351 161 L 350 155 L 349 154 Z M 248 154 L 248 157 L 247 158 L 247 211 L 246 212 L 246 214 L 242 219 L 238 220 L 237 221 L 234 221 L 233 222 L 220 222 L 220 230 L 299 230 L 300 229 L 300 223 L 299 222 L 286 222 L 285 221 L 281 221 L 277 219 L 273 214 L 273 212 L 272 211 L 272 205 L 271 204 L 271 154 Z M 104 154 L 104 206 L 103 207 L 103 212 L 101 216 L 98 219 L 94 221 L 90 221 L 89 222 L 74 222 L 74 230 L 75 231 L 77 231 L 78 230 L 158 230 L 158 222 L 143 222 L 142 221 L 139 221 L 133 218 L 130 214 L 130 211 L 129 210 L 129 155 L 128 154 Z M 405 119 L 403 121 L 403 123 L 400 129 L 400 131 L 399 132 L 399 134 L 398 135 L 397 139 L 400 139 L 401 135 L 402 134 L 406 134 L 407 133 L 408 133 L 410 135 L 411 139 L 414 139 L 413 135 L 412 134 L 412 132 L 411 131 L 411 129 L 409 126 L 408 121 L 406 119 Z M 405 125 L 407 126 L 407 128 L 408 129 L 407 131 L 404 131 L 403 130 L 404 126 Z M 375 119 L 374 120 L 374 139 L 387 139 L 388 140 L 388 144 L 390 144 L 390 137 L 388 136 L 388 120 L 387 119 L 385 119 L 385 136 L 383 137 L 382 136 L 378 136 L 377 135 L 377 120 Z M 360 119 L 352 119 L 352 139 L 354 139 L 355 138 L 355 132 L 356 131 L 361 131 L 363 130 L 365 126 L 364 122 Z M 355 123 L 356 122 L 360 122 L 362 124 L 362 126 L 359 129 L 356 129 L 355 128 Z M 334 119 L 330 127 L 330 129 L 329 130 L 329 132 L 327 136 L 327 139 L 329 139 L 330 138 L 330 136 L 332 134 L 338 134 L 339 135 L 340 139 L 343 139 L 343 137 L 340 131 L 340 129 L 339 128 L 337 120 L 336 119 Z M 333 127 L 335 126 L 337 130 L 336 131 L 334 131 L 333 130 Z M 306 119 L 305 120 L 305 138 L 306 139 L 315 139 L 317 138 L 319 135 L 319 132 L 317 129 L 317 127 L 318 126 L 318 123 L 317 121 L 314 119 Z M 308 131 L 309 130 L 314 130 L 316 132 L 316 134 L 313 137 L 309 137 L 308 136 Z M 308 123 L 309 122 L 314 122 L 315 123 L 315 126 L 314 127 L 309 127 L 308 126 Z M 283 119 L 283 139 L 286 139 L 286 132 L 287 131 L 288 131 L 291 134 L 291 135 L 294 139 L 296 139 L 296 137 L 291 130 L 291 127 L 296 121 L 296 119 L 294 119 L 288 127 L 286 126 L 286 119 Z M 232 119 L 228 124 L 229 128 L 231 130 L 229 134 L 228 139 L 230 139 L 231 138 L 233 133 L 235 131 L 237 131 L 238 132 L 238 138 L 239 139 L 241 139 L 241 120 L 240 119 Z M 231 124 L 233 122 L 237 122 L 238 123 L 238 127 L 237 128 L 233 128 L 231 126 Z M 205 119 L 204 120 L 204 139 L 207 139 L 208 138 L 212 130 L 214 128 L 216 129 L 216 139 L 218 139 L 219 138 L 219 120 L 218 119 L 216 119 L 214 123 L 212 125 L 211 128 L 209 130 L 208 130 L 207 129 L 207 120 Z M 191 119 L 182 119 L 182 139 L 185 139 L 185 132 L 186 131 L 191 131 L 193 130 L 195 127 L 195 123 Z M 185 123 L 186 122 L 190 122 L 192 124 L 192 126 L 189 129 L 186 129 L 185 128 Z M 161 119 L 157 123 L 156 125 L 156 133 L 157 134 L 157 136 L 161 139 L 168 139 L 172 134 L 172 131 L 173 130 L 172 128 L 172 124 L 170 122 L 170 121 L 167 119 Z M 164 121 L 167 122 L 169 125 L 169 133 L 168 135 L 165 137 L 161 136 L 159 133 L 159 125 Z M 135 119 L 134 120 L 135 122 L 139 122 L 140 123 L 140 139 L 143 139 L 143 123 L 144 122 L 148 122 L 149 120 L 148 119 Z M 112 119 L 111 120 L 111 139 L 114 139 L 116 137 L 118 132 L 121 128 L 123 129 L 123 139 L 126 139 L 126 120 L 125 119 L 123 119 L 120 125 L 118 127 L 117 130 L 115 131 L 114 130 L 114 119 Z M 98 119 L 89 119 L 89 139 L 92 139 L 92 132 L 93 131 L 99 131 L 102 127 L 102 123 L 100 121 L 100 120 Z M 92 123 L 93 122 L 97 122 L 99 124 L 99 127 L 96 129 L 93 129 L 92 128 Z M 75 119 L 67 119 L 66 121 L 66 138 L 67 139 L 69 139 L 69 132 L 70 131 L 76 131 L 78 130 L 79 128 L 79 122 Z M 71 121 L 73 121 L 77 124 L 77 126 L 74 129 L 70 129 L 69 128 L 69 123 Z M 46 119 L 45 120 L 45 139 L 56 139 L 57 137 L 49 137 L 48 136 L 48 131 L 49 130 L 55 130 L 56 129 L 55 127 L 49 127 L 48 126 L 48 123 L 49 122 L 56 122 L 57 120 L 56 119 Z M 23 119 L 22 120 L 23 122 L 27 122 L 28 123 L 28 139 L 30 139 L 31 138 L 31 123 L 32 122 L 36 122 L 36 119 Z M 220 29 L 220 35 L 224 35 L 225 36 L 234 36 L 235 37 L 241 38 L 245 42 L 246 44 L 247 50 L 248 51 L 248 68 L 247 69 L 247 106 L 248 107 L 266 107 L 267 106 L 271 106 L 271 92 L 272 91 L 272 86 L 271 85 L 271 54 L 272 53 L 272 47 L 273 46 L 273 44 L 277 39 L 281 37 L 285 37 L 286 36 L 293 36 L 294 35 L 299 35 L 299 29 L 297 29 L 296 28 L 294 28 L 293 29 L 291 28 L 288 28 L 287 29 L 274 29 L 273 28 L 264 28 L 263 29 L 258 29 L 257 28 L 255 29 Z M 37 29 L 36 61 L 34 74 L 35 80 L 40 79 L 42 70 L 48 58 L 54 49 L 66 38 L 77 35 L 92 35 L 97 36 L 102 40 L 104 47 L 104 106 L 105 107 L 128 107 L 129 106 L 129 43 L 130 40 L 134 36 L 153 35 L 167 40 L 176 48 L 182 56 L 187 66 L 190 79 L 196 79 L 193 29 L 185 28 L 180 29 L 111 29 L 110 28 L 46 29 L 38 28 Z M 380 28 L 370 23 L 353 23 L 344 27 L 337 34 L 336 37 L 334 39 L 334 41 L 332 44 L 332 47 L 330 51 L 330 55 L 329 56 L 329 60 L 328 61 L 328 67 L 327 68 L 327 73 L 326 74 L 326 80 L 325 81 L 325 85 L 324 86 L 324 89 L 323 90 L 323 92 L 322 93 L 320 101 L 317 105 L 317 106 L 321 106 L 322 107 L 324 107 L 327 104 L 328 101 L 330 99 L 330 97 L 332 94 L 332 91 L 334 87 L 334 83 L 335 82 L 335 78 L 336 77 L 336 72 L 337 71 L 337 67 L 338 66 L 338 59 L 339 58 L 340 50 L 341 49 L 341 47 L 342 46 L 342 44 L 344 40 L 351 33 L 355 31 L 361 31 L 363 32 L 366 36 L 366 42 L 360 48 L 360 51 L 359 52 L 360 60 L 364 65 L 370 68 L 378 68 L 379 67 L 383 66 L 388 61 L 390 57 L 390 43 L 386 34 Z"/>
  </g>
</svg>
