<?xml version="1.0" encoding="UTF-8" standalone="no"?>
<svg xmlns="http://www.w3.org/2000/svg" width="436" height="144" viewBox="0 0 436 144" version="1.1" aria-labelledby="title" role="img">
  <title>Tosch</title>
  <g fill="#FFFFFF" stroke="none" fill-rule="evenodd">
    <path d="M 397 102 L 396 104 L 396 109 L 397 110 L 397 125 L 410 125 L 411 124 L 415 123 L 417 120 L 417 117 L 416 115 L 412 112 L 401 112 L 400 111 L 400 103 L 399 102 Z M 400 115 L 401 114 L 409 114 L 413 117 L 413 120 L 411 122 L 409 122 L 408 123 L 401 123 L 400 122 Z M 373 102 L 372 103 L 372 112 L 371 113 L 371 120 L 369 122 L 366 122 L 365 124 L 366 125 L 370 125 L 374 121 L 374 118 L 375 117 L 375 106 L 376 105 L 383 105 L 384 106 L 384 110 L 385 111 L 385 115 L 384 116 L 385 122 L 384 124 L 385 125 L 388 125 L 388 103 L 387 102 Z M 340 102 L 339 103 L 339 125 L 343 125 L 343 124 L 346 121 L 346 120 L 349 117 L 349 116 L 354 111 L 356 112 L 356 114 L 357 115 L 357 125 L 360 125 L 360 103 L 357 102 L 351 109 L 351 110 L 347 114 L 347 115 L 345 117 L 344 117 L 343 116 L 343 104 L 342 102 Z M 311 102 L 310 103 L 310 105 L 318 105 L 319 106 L 319 124 L 320 125 L 322 125 L 323 124 L 323 106 L 324 105 L 331 105 L 332 103 L 331 102 Z M 287 104 L 283 108 L 283 110 L 282 111 L 282 117 L 284 121 L 286 123 L 290 125 L 301 125 L 303 124 L 303 122 L 300 122 L 299 123 L 293 123 L 292 122 L 290 122 L 286 117 L 286 110 L 289 106 L 293 104 L 299 104 L 300 105 L 303 105 L 303 103 L 301 103 L 300 102 L 291 102 Z M 226 102 L 226 107 L 225 108 L 225 124 L 226 125 L 229 125 L 230 123 L 234 119 L 234 118 L 238 114 L 238 113 L 241 110 L 242 110 L 243 111 L 243 125 L 246 125 L 246 103 L 244 102 L 239 107 L 239 108 L 235 112 L 235 113 L 231 117 L 230 117 L 229 116 L 229 103 L 228 102 Z M 216 102 L 215 103 L 215 124 L 216 125 L 219 125 L 219 103 L 218 102 Z M 195 102 L 194 103 L 194 125 L 206 125 L 207 124 L 209 124 L 212 121 L 212 115 L 208 112 L 199 112 L 198 111 L 198 103 L 197 102 Z M 198 115 L 199 114 L 205 114 L 208 116 L 209 119 L 204 123 L 199 123 L 198 122 Z M 187 102 L 185 102 L 184 103 L 184 111 L 183 112 L 171 112 L 170 111 L 170 103 L 167 103 L 167 125 L 170 125 L 170 116 L 172 114 L 183 114 L 184 115 L 184 125 L 188 125 L 188 103 Z M 139 102 L 139 125 L 142 125 L 142 116 L 144 114 L 155 114 L 156 115 L 156 124 L 157 125 L 160 125 L 160 103 L 158 102 L 156 103 L 156 111 L 155 112 L 143 112 L 142 111 L 142 103 L 141 102 Z M 114 102 L 113 103 L 113 125 L 131 125 L 131 123 L 118 123 L 117 122 L 117 115 L 118 114 L 129 114 L 129 112 L 118 112 L 117 111 L 117 106 L 118 105 L 130 105 L 131 103 L 128 103 L 127 102 Z M 83 102 L 82 103 L 82 124 L 83 125 L 85 125 L 86 124 L 86 112 L 87 111 L 88 111 L 91 115 L 91 116 L 93 118 L 94 118 L 98 113 L 99 110 L 101 109 L 102 110 L 102 125 L 105 125 L 105 103 L 104 102 L 102 102 L 99 105 L 97 109 L 94 112 L 93 112 L 91 110 L 88 104 L 86 102 Z M 63 102 L 53 122 L 53 125 L 56 125 L 59 119 L 70 119 L 73 125 L 77 125 L 67 103 Z M 64 108 L 65 108 L 67 111 L 67 113 L 68 114 L 67 116 L 62 116 L 61 115 L 61 113 Z M 27 102 L 26 103 L 26 124 L 27 125 L 29 125 L 30 124 L 30 116 L 31 115 L 33 115 L 43 125 L 47 125 L 47 124 L 36 114 L 36 112 L 45 103 L 45 102 L 42 102 L 32 112 L 30 111 L 30 103 L 29 102 Z M 231 97 L 231 99 L 233 101 L 239 101 L 242 99 L 241 97 L 240 97 L 238 99 L 234 99 L 232 97 Z M 341 24 L 341 79 L 371 79 L 371 57 L 372 56 L 380 56 L 381 57 L 381 79 L 411 79 L 411 24 L 410 23 L 401 23 L 400 24 L 381 24 L 381 43 L 380 44 L 372 44 L 371 43 L 371 24 L 370 23 L 355 23 L 354 24 Z M 259 33 L 258 35 L 258 69 L 263 75 L 270 78 L 273 78 L 274 79 L 279 79 L 280 80 L 305 80 L 306 79 L 311 79 L 312 78 L 320 76 L 326 72 L 327 70 L 327 67 L 328 66 L 328 57 L 299 57 L 299 68 L 296 71 L 289 71 L 287 69 L 287 35 L 290 32 L 296 32 L 299 35 L 299 48 L 327 48 L 328 47 L 328 37 L 327 36 L 326 32 L 322 28 L 315 25 L 312 25 L 311 24 L 306 24 L 305 23 L 281 23 L 280 24 L 276 24 L 275 25 L 268 26 L 261 30 L 261 31 Z M 180 30 L 179 34 L 178 35 L 178 42 L 179 44 L 184 49 L 186 50 L 191 51 L 194 53 L 196 53 L 200 55 L 203 55 L 206 57 L 205 59 L 194 59 L 193 60 L 178 60 L 178 67 L 179 68 L 180 72 L 183 75 L 190 78 L 193 78 L 194 79 L 199 79 L 200 80 L 225 80 L 226 79 L 231 79 L 232 78 L 239 77 L 241 76 L 246 71 L 246 69 L 247 68 L 247 61 L 246 60 L 246 58 L 242 53 L 234 49 L 232 49 L 231 48 L 229 48 L 222 45 L 219 45 L 215 43 L 212 43 L 208 41 L 206 39 L 206 34 L 209 32 L 215 32 L 217 34 L 217 40 L 218 41 L 229 41 L 230 40 L 244 40 L 244 33 L 243 32 L 243 30 L 241 28 L 237 26 L 232 25 L 231 24 L 226 24 L 225 23 L 198 23 L 197 24 L 193 24 L 192 25 L 186 26 L 182 28 Z M 206 58 L 208 57 L 209 58 L 212 58 L 216 60 L 219 64 L 219 68 L 216 71 L 209 71 L 206 67 L 206 62 L 207 61 Z M 98 33 L 98 35 L 97 36 L 97 68 L 99 72 L 103 75 L 107 77 L 109 77 L 110 78 L 113 78 L 114 79 L 119 79 L 120 80 L 143 80 L 144 79 L 149 79 L 150 78 L 153 78 L 154 77 L 159 76 L 161 75 L 166 70 L 166 68 L 167 67 L 167 36 L 166 35 L 166 33 L 161 28 L 157 27 L 156 26 L 154 26 L 153 25 L 145 24 L 144 23 L 120 23 L 119 24 L 114 24 L 110 26 L 107 26 L 103 29 L 102 29 Z M 130 32 L 135 32 L 137 34 L 137 69 L 135 71 L 129 71 L 127 69 L 127 35 Z M 23 24 L 22 25 L 22 34 L 23 35 L 39 35 L 40 36 L 40 78 L 41 79 L 70 79 L 70 36 L 71 35 L 81 35 L 82 34 L 88 34 L 88 24 L 73 24 L 72 23 L 62 23 L 61 24 L 36 24 L 35 23 L 30 23 L 29 24 Z"/>
  </g>
</svg>
