<?xml version="1.0" encoding="UTF-8" standalone="no"?>
<svg xmlns="http://www.w3.org/2000/svg" width="290" height="291" viewBox="0 0 290 291" version="1.1" aria-labelledby="title" role="img">
  <title>TS</title>
  <g fill="#FFFFFF" stroke="none" fill-rule="evenodd">
    <path d="M 23 23 L 23 76 L 63 34 L 75 30 L 123 31 L 122 56 L 88 60 L 68 67 L 51 80 L 41 101 L 44 120 L 63 139 L 123 154 L 123 192 L 91 179 L 48 146 L 47 207 L 85 184 L 122 199 L 123 231 L 147 272 L 170 231 L 170 208 L 201 204 L 231 193 L 244 182 L 252 164 L 250 147 L 236 129 L 212 118 L 170 109 L 170 73 L 173 72 L 200 86 L 231 112 L 231 57 L 195 77 L 170 64 L 170 31 L 224 32 L 244 46 L 270 76 L 270 23 Z M 134 235 L 135 234 L 144 234 L 145 235 L 145 241 L 144 242 L 141 242 L 137 240 L 134 237 Z M 129 224 L 130 223 L 144 223 L 145 224 L 145 229 L 144 230 L 130 230 L 129 229 Z M 129 214 L 130 213 L 144 213 L 145 214 L 145 219 L 144 220 L 130 220 L 129 219 Z M 129 203 L 130 202 L 133 202 L 134 203 L 142 203 L 145 205 L 145 208 L 144 209 L 130 209 L 129 208 Z M 129 193 L 130 192 L 144 192 L 145 193 L 145 198 L 144 199 L 142 199 L 141 198 L 135 198 L 134 197 L 130 197 L 129 196 Z M 129 183 L 130 182 L 144 182 L 145 183 L 145 188 L 144 189 L 130 189 L 129 188 Z M 129 172 L 130 171 L 143 171 L 145 173 L 145 177 L 144 178 L 130 178 L 129 177 Z M 56 171 L 59 173 L 61 173 L 63 175 L 62 177 L 62 179 L 63 180 L 67 180 L 69 181 L 70 183 L 68 184 L 57 195 L 53 197 L 52 196 L 52 188 L 53 187 L 55 187 L 55 185 L 51 182 L 51 174 L 54 171 Z M 129 166 L 129 164 L 131 162 L 144 162 L 145 163 L 145 165 L 143 167 L 130 167 Z M 170 160 L 171 159 L 182 159 L 183 160 L 194 161 L 195 162 L 198 162 L 199 163 L 204 164 L 210 167 L 212 169 L 213 169 L 218 175 L 218 177 L 219 178 L 218 185 L 211 192 L 203 196 L 201 196 L 197 198 L 194 198 L 193 199 L 190 199 L 189 200 L 182 200 L 181 201 L 171 201 L 170 200 Z M 107 146 L 108 145 L 130 145 L 131 144 L 188 144 L 189 145 L 194 145 L 195 144 L 203 144 L 204 145 L 215 145 L 219 147 L 220 149 L 219 150 L 132 151 L 131 150 L 124 150 L 123 149 L 115 149 L 114 148 L 108 148 Z M 70 135 L 71 134 L 158 134 L 159 135 L 169 135 L 170 136 L 179 137 L 180 139 L 179 140 L 78 140 L 75 138 L 71 137 Z M 52 122 L 53 121 L 68 121 L 70 119 L 71 119 L 72 120 L 71 122 L 72 124 L 84 124 L 85 125 L 88 125 L 89 126 L 97 127 L 98 129 L 97 130 L 60 130 L 58 129 L 52 123 Z M 48 113 L 49 112 L 65 112 L 69 114 L 70 116 L 67 118 L 52 118 L 48 116 Z M 46 103 L 47 102 L 60 102 L 62 104 L 63 107 L 62 108 L 47 108 L 46 107 Z M 129 102 L 130 101 L 142 101 L 145 104 L 145 105 L 144 106 L 130 106 L 129 105 Z M 47 97 L 50 93 L 59 93 L 62 96 L 62 98 L 61 99 L 48 99 Z M 129 93 L 130 92 L 144 92 L 145 93 L 145 96 L 144 97 L 130 97 L 129 96 Z M 129 84 L 130 83 L 144 83 L 145 84 L 145 88 L 144 89 L 130 89 L 129 88 Z M 63 77 L 64 79 L 62 81 L 60 89 L 59 90 L 52 90 L 51 88 L 53 86 L 53 85 L 59 79 Z M 215 72 L 216 73 L 216 75 L 215 76 L 216 79 L 215 80 L 215 82 L 213 83 L 209 80 L 208 80 L 207 79 L 207 77 L 212 73 Z M 129 70 L 130 69 L 144 69 L 145 70 L 145 78 L 143 80 L 130 80 L 129 79 Z M 76 76 L 84 69 L 88 68 L 91 66 L 96 65 L 97 64 L 101 64 L 102 63 L 108 63 L 109 62 L 122 62 L 123 63 L 123 104 L 122 105 L 118 105 L 117 104 L 109 104 L 108 103 L 99 102 L 98 101 L 90 99 L 82 95 L 76 89 L 74 85 L 74 81 L 75 80 Z M 129 59 L 130 58 L 144 58 L 145 59 L 145 64 L 144 65 L 130 65 L 129 64 Z M 129 50 L 130 49 L 144 49 L 145 50 L 145 54 L 144 55 L 130 55 L 129 54 Z M 129 41 L 130 40 L 144 40 L 145 41 L 145 44 L 142 46 L 130 46 L 129 45 Z M 129 36 L 129 32 L 130 31 L 143 31 L 144 32 L 144 34 L 142 37 L 130 37 Z M 230 30 L 231 29 L 254 29 L 256 33 L 253 35 L 253 37 L 254 38 L 257 38 L 258 39 L 258 41 L 255 43 L 255 47 L 256 49 L 254 50 L 246 41 L 244 41 L 242 39 L 241 39 L 238 36 L 231 32 Z M 45 28 L 47 30 L 47 31 L 45 33 L 42 34 L 39 37 L 40 39 L 39 41 L 34 41 L 33 42 L 33 45 L 30 48 L 30 53 L 28 54 L 27 53 L 27 29 L 28 28 Z"/>
  </g>
</svg>
