<?xml version="1.0" encoding="UTF-8" standalone="no"?>
<svg xmlns="http://www.w3.org/2000/svg" width="395" height="334" viewBox="0 0 395 334" version="1.1" aria-labelledby="title" role="img">
  <title>Tsekh</title>
  <g fill="#FFFFFF" stroke="none" fill-rule="evenodd">
    <path d="M 190 135 L 190 138 L 193 138 L 196 141 L 196 187 L 190 189 L 189 193 L 259 193 L 260 190 L 257 189 L 255 185 L 265 171 L 268 173 L 276 186 L 274 189 L 270 190 L 270 193 L 298 192 L 297 189 L 290 185 L 276 162 L 277 157 L 288 141 L 295 138 L 296 134 L 278 134 L 277 137 L 282 141 L 273 155 L 271 154 L 264 141 L 266 138 L 269 138 L 268 134 L 241 135 L 241 138 L 246 139 L 251 145 L 260 160 L 262 167 L 250 184 L 240 191 L 238 190 L 238 176 L 235 176 L 232 183 L 226 188 L 212 188 L 210 186 L 210 167 L 221 166 L 224 170 L 224 173 L 228 173 L 229 156 L 228 153 L 224 153 L 221 160 L 211 161 L 210 140 L 225 139 L 230 143 L 232 149 L 236 150 L 236 135 Z M 117 134 L 116 135 L 116 138 L 119 138 L 121 140 L 121 187 L 118 189 L 115 189 L 115 193 L 170 193 L 174 196 L 176 204 L 177 205 L 179 205 L 180 204 L 180 189 L 176 189 L 171 187 L 171 140 L 174 138 L 177 138 L 178 137 L 178 135 L 177 134 L 152 134 L 151 135 L 151 137 L 152 138 L 155 138 L 157 140 L 157 145 L 158 146 L 158 167 L 157 168 L 158 181 L 157 182 L 157 187 L 156 188 L 137 188 L 135 186 L 135 140 L 137 138 L 139 138 L 139 134 Z M 64 48 L 62 56 L 87 82 L 84 94 L 94 101 L 99 115 L 93 128 L 75 127 L 69 131 L 72 144 L 43 143 L 37 146 L 37 160 L 23 162 L 23 175 L 34 177 L 33 228 L 52 239 L 56 236 L 53 225 L 96 210 L 103 224 L 88 233 L 96 246 L 88 262 L 89 278 L 101 289 L 112 291 L 131 280 L 132 256 L 155 269 L 152 286 L 138 293 L 147 295 L 139 310 L 142 315 L 147 315 L 150 306 L 170 291 L 171 287 L 164 286 L 168 275 L 202 281 L 246 275 L 248 285 L 261 302 L 282 294 L 289 299 L 311 274 L 293 246 L 299 237 L 324 245 L 328 238 L 349 239 L 360 228 L 349 203 L 341 201 L 338 206 L 337 199 L 321 192 L 324 177 L 363 176 L 376 166 L 376 160 L 361 150 L 325 151 L 322 135 L 335 130 L 361 132 L 369 119 L 361 121 L 359 114 L 364 110 L 354 109 L 336 123 L 318 126 L 313 112 L 321 106 L 324 92 L 332 84 L 327 84 L 323 92 L 312 81 L 328 65 L 321 56 L 307 58 L 307 42 L 295 40 L 284 54 L 274 46 L 280 39 L 274 33 L 272 45 L 264 42 L 248 55 L 236 50 L 235 22 L 177 22 L 178 42 L 173 52 L 158 57 L 148 54 L 124 33 L 118 37 L 124 46 L 113 44 L 109 48 L 112 58 L 107 52 L 103 54 L 107 65 L 98 75 Z M 260 293 L 263 292 L 265 294 L 266 294 L 267 295 L 267 298 L 265 300 L 263 300 L 259 296 L 259 294 Z M 284 292 L 284 291 L 286 289 L 288 289 L 289 288 L 293 288 L 294 289 L 294 290 L 289 295 L 287 295 Z M 258 283 L 259 284 L 259 287 L 255 289 L 252 286 L 252 285 L 253 284 Z M 287 281 L 288 283 L 284 285 L 282 288 L 281 288 L 279 286 L 279 284 L 280 283 L 282 283 L 284 281 Z M 268 278 L 270 277 L 273 277 L 274 278 L 274 282 L 278 289 L 281 292 L 280 294 L 277 294 L 273 296 L 269 296 L 268 295 L 268 294 L 271 290 L 271 285 L 267 280 Z M 274 276 L 280 273 L 283 276 L 283 277 L 282 278 L 275 278 Z M 289 256 L 291 256 L 293 258 L 293 259 L 295 259 L 306 272 L 305 276 L 296 287 L 295 287 L 292 284 L 292 283 L 288 279 L 288 278 L 284 274 L 284 273 L 281 271 L 281 269 L 285 266 L 285 264 L 283 262 L 283 260 Z M 119 256 L 125 261 L 127 265 L 127 273 L 126 274 L 126 276 L 120 282 L 116 284 L 113 284 L 112 285 L 108 285 L 100 281 L 95 275 L 95 272 L 94 271 L 94 266 L 95 265 L 95 263 L 96 262 L 98 262 L 100 264 L 104 265 L 106 268 L 106 271 L 107 272 L 111 272 L 116 262 L 116 257 L 117 256 Z M 104 241 L 105 242 L 105 245 L 104 246 L 99 247 L 97 245 L 98 243 L 100 243 L 102 241 Z M 108 239 L 111 236 L 113 236 L 121 245 L 121 246 L 119 247 L 118 246 L 110 245 L 108 242 Z M 102 237 L 102 238 L 98 241 L 95 241 L 94 240 L 94 239 L 99 235 L 100 235 Z M 314 234 L 316 233 L 317 235 L 315 236 Z M 47 233 L 49 232 L 51 234 L 51 235 L 50 236 L 48 236 L 47 235 Z M 100 231 L 99 233 L 97 233 L 92 237 L 90 236 L 90 233 L 93 230 L 95 229 L 98 229 Z M 39 230 L 40 229 L 42 229 L 43 231 L 42 232 L 40 232 Z M 101 228 L 102 227 L 106 227 L 107 228 L 107 230 L 106 231 L 103 231 L 101 229 Z M 35 207 L 37 208 L 38 216 L 39 217 L 39 219 L 41 223 L 41 226 L 39 228 L 36 228 L 35 227 L 35 217 L 34 216 L 34 208 Z M 37 199 L 39 200 L 41 204 L 41 207 L 46 217 L 47 223 L 44 226 L 42 225 L 42 223 L 41 222 L 41 220 L 39 216 L 38 208 L 37 207 L 37 202 L 36 201 Z M 37 193 L 38 193 L 40 196 L 39 198 L 37 198 L 35 196 L 35 195 Z M 59 190 L 60 189 L 62 189 L 63 191 L 62 192 L 60 192 Z M 78 177 L 79 176 L 87 176 L 89 180 L 89 185 L 88 186 L 79 186 L 78 185 Z M 72 176 L 75 176 L 76 177 L 76 185 L 75 186 L 72 186 L 71 185 L 71 177 Z M 59 177 L 60 176 L 68 176 L 69 177 L 69 186 L 68 187 L 60 187 L 59 186 L 59 183 L 58 182 Z M 35 177 L 36 176 L 39 176 L 46 182 L 55 186 L 56 187 L 56 190 L 58 194 L 61 194 L 62 195 L 64 194 L 91 194 L 92 195 L 92 197 L 93 198 L 94 202 L 92 204 L 82 209 L 77 210 L 74 212 L 72 212 L 69 214 L 67 214 L 59 218 L 56 218 L 55 217 L 52 217 L 50 218 L 48 216 L 47 212 L 45 209 L 45 207 L 44 206 L 44 204 L 43 203 L 43 201 L 42 200 L 42 198 L 41 197 L 41 195 L 40 194 L 38 186 L 35 181 Z M 44 177 L 45 176 L 49 176 L 50 175 L 55 175 L 57 178 L 57 181 L 55 183 L 51 183 L 47 181 L 44 178 Z M 79 150 L 87 150 L 88 151 L 88 156 L 86 160 L 78 160 L 77 159 L 77 152 Z M 57 151 L 58 150 L 71 150 L 72 151 L 72 159 L 71 160 L 59 160 L 58 159 L 58 153 Z M 40 151 L 41 150 L 55 150 L 56 151 L 55 159 L 54 160 L 41 160 L 40 159 Z M 78 135 L 79 134 L 90 134 L 91 136 L 90 137 L 90 141 L 88 144 L 79 144 L 78 143 Z M 307 84 L 309 83 L 310 85 L 308 86 Z M 191 66 L 211 65 L 226 67 L 248 74 L 264 83 L 282 99 L 291 111 L 301 131 L 306 150 L 306 175 L 304 186 L 299 201 L 290 218 L 271 239 L 257 249 L 245 255 L 224 261 L 217 262 L 189 261 L 168 255 L 152 247 L 140 238 L 125 222 L 113 201 L 106 176 L 107 145 L 113 127 L 124 107 L 143 87 L 153 80 L 169 72 Z M 322 63 L 322 71 L 319 74 L 311 78 L 309 77 L 305 77 L 303 79 L 302 79 L 298 77 L 295 80 L 293 79 L 294 76 L 309 60 L 318 60 Z M 318 58 L 320 57 L 321 59 L 319 60 Z M 117 53 L 119 52 L 123 56 L 123 57 L 121 58 L 117 54 Z M 113 47 L 115 46 L 117 48 L 118 51 L 116 52 L 113 49 Z M 296 42 L 299 44 L 302 44 L 305 47 L 307 47 L 308 48 L 308 51 L 307 52 L 305 52 L 305 54 L 304 55 L 304 59 L 298 65 L 298 66 L 299 66 L 300 68 L 292 76 L 292 77 L 290 79 L 288 79 L 285 76 L 285 74 L 288 71 L 290 70 L 293 70 L 293 69 L 290 69 L 289 68 L 289 65 L 288 64 L 288 55 L 289 54 L 289 52 L 292 46 L 294 44 L 294 43 Z M 121 38 L 125 36 L 129 40 L 129 41 L 127 43 L 125 43 L 121 39 Z M 184 30 L 186 26 L 189 23 L 190 23 L 194 26 L 217 26 L 220 24 L 224 24 L 227 29 L 227 33 L 228 34 L 228 42 L 225 44 L 223 48 L 215 48 L 214 47 L 199 47 L 198 48 L 188 48 L 186 44 L 184 42 Z"/>
  </g>
</svg>
