<?xml version="1.0" encoding="UTF-8" standalone="no"?>
<svg xmlns="http://www.w3.org/2000/svg" width="474" height="158" viewBox="0 0 474 158" version="1.1" aria-labelledby="title" role="img">
  <title>Vivat Mebel</title>
  <g fill="#FFFFFF" stroke="none" fill-rule="evenodd">
    <path d="M 424 95 L 424 97 L 426 97 L 429 100 L 429 133 L 425 137 L 423 137 L 423 138 L 454 138 L 455 127 L 453 128 L 452 132 L 448 136 L 445 136 L 444 137 L 439 137 L 438 136 L 436 136 L 434 134 L 434 100 L 437 97 L 439 97 L 439 95 Z M 376 95 L 376 97 L 379 97 L 381 99 L 381 134 L 379 136 L 376 137 L 376 138 L 408 138 L 408 130 L 409 129 L 409 127 L 407 128 L 406 132 L 402 136 L 400 136 L 399 137 L 392 137 L 391 136 L 389 136 L 387 134 L 387 118 L 388 117 L 395 117 L 398 119 L 399 124 L 400 124 L 400 110 L 399 110 L 398 114 L 395 116 L 388 116 L 387 115 L 387 98 L 388 97 L 400 97 L 403 100 L 404 104 L 406 105 L 406 96 L 405 95 Z M 326 95 L 326 97 L 328 97 L 331 100 L 331 134 L 329 136 L 326 137 L 326 138 L 350 138 L 351 137 L 355 136 L 359 132 L 360 130 L 360 122 L 359 120 L 356 117 L 352 116 L 351 115 L 351 114 L 356 109 L 356 107 L 357 106 L 357 103 L 355 99 L 353 97 L 351 96 L 348 96 L 347 95 Z M 338 116 L 346 116 L 347 117 L 349 117 L 353 121 L 354 123 L 354 130 L 350 135 L 346 136 L 345 137 L 342 137 L 341 136 L 339 136 L 337 134 L 337 117 Z M 338 97 L 346 97 L 350 101 L 351 103 L 351 108 L 350 110 L 346 114 L 338 114 L 337 113 L 337 98 Z M 280 95 L 280 97 L 282 97 L 285 100 L 285 134 L 283 136 L 279 137 L 279 138 L 311 138 L 312 128 L 310 128 L 309 132 L 305 136 L 303 136 L 302 137 L 294 137 L 292 136 L 290 133 L 290 118 L 291 117 L 298 117 L 300 118 L 302 120 L 302 124 L 304 124 L 303 122 L 303 110 L 302 110 L 302 113 L 298 116 L 292 116 L 290 114 L 290 99 L 292 97 L 303 97 L 306 99 L 308 103 L 308 105 L 309 105 L 309 96 L 308 95 Z M 213 95 L 213 97 L 216 97 L 219 100 L 219 105 L 218 106 L 218 117 L 217 118 L 217 130 L 216 131 L 216 134 L 214 136 L 211 137 L 211 138 L 224 138 L 224 137 L 221 136 L 218 133 L 218 128 L 219 127 L 219 114 L 220 113 L 220 108 L 221 107 L 223 108 L 223 110 L 226 115 L 226 117 L 228 120 L 228 122 L 230 125 L 230 127 L 232 130 L 232 132 L 235 138 L 237 138 L 237 136 L 242 126 L 244 119 L 250 107 L 252 108 L 252 110 L 253 111 L 253 128 L 254 129 L 254 133 L 250 137 L 248 137 L 248 138 L 265 138 L 265 137 L 262 136 L 259 133 L 259 117 L 258 116 L 258 99 L 261 97 L 263 97 L 263 95 L 253 95 L 251 97 L 250 102 L 248 105 L 248 107 L 246 110 L 244 117 L 241 122 L 240 126 L 238 128 L 236 127 L 236 125 L 234 122 L 233 117 L 231 114 L 231 112 L 229 109 L 229 107 L 227 104 L 225 97 L 223 95 Z M 48 47 L 47 47 L 47 49 L 46 50 L 46 57 L 45 58 L 45 67 L 44 68 L 44 74 L 43 75 L 42 93 L 41 94 L 41 101 L 40 102 L 40 110 L 39 111 L 39 118 L 38 119 L 38 123 L 37 125 L 33 129 L 31 130 L 23 131 L 23 138 L 58 138 L 59 137 L 59 133 L 58 131 L 53 131 L 52 130 L 50 130 L 46 127 L 44 123 L 44 119 L 45 118 L 45 108 L 46 107 L 46 98 L 47 97 L 47 89 L 48 88 L 48 82 L 49 81 L 49 73 L 50 72 L 50 65 L 51 64 L 51 57 L 49 53 Z M 305 24 L 306 26 L 308 26 L 311 29 L 311 31 L 313 34 L 314 39 L 317 44 L 317 46 L 319 49 L 319 51 L 321 54 L 321 56 L 324 61 L 325 66 L 327 70 L 329 71 L 332 65 L 332 63 L 334 60 L 334 58 L 337 52 L 337 50 L 339 47 L 339 45 L 340 44 L 341 39 L 343 36 L 344 31 L 345 29 L 348 26 L 350 26 L 351 24 L 337 24 L 337 26 L 340 26 L 342 28 L 342 32 L 341 33 L 341 35 L 340 36 L 338 44 L 336 47 L 335 52 L 333 55 L 333 57 L 331 61 L 329 60 L 327 52 L 325 49 L 325 47 L 323 44 L 323 42 L 321 39 L 321 37 L 320 36 L 320 34 L 318 30 L 318 28 L 320 26 L 322 26 L 323 24 Z M 272 24 L 273 26 L 275 26 L 278 29 L 278 66 L 276 68 L 272 69 L 272 70 L 290 70 L 290 69 L 286 68 L 284 66 L 284 29 L 287 26 L 289 26 L 290 24 Z M 212 24 L 212 26 L 215 26 L 217 28 L 220 34 L 220 36 L 221 37 L 222 42 L 224 45 L 225 50 L 227 53 L 228 58 L 231 63 L 232 68 L 234 71 L 236 71 L 237 67 L 238 66 L 238 64 L 239 63 L 239 61 L 241 58 L 241 56 L 243 53 L 244 48 L 246 45 L 247 40 L 249 37 L 250 32 L 252 28 L 256 26 L 257 24 L 244 24 L 244 26 L 247 26 L 249 30 L 248 31 L 248 33 L 247 34 L 245 42 L 243 45 L 241 53 L 239 56 L 239 58 L 237 60 L 235 59 L 235 57 L 233 54 L 232 49 L 230 46 L 228 38 L 225 32 L 225 28 L 227 26 L 229 26 L 230 24 Z M 416 23 L 416 36 L 417 36 L 418 31 L 422 27 L 424 26 L 431 26 L 432 27 L 432 66 L 430 68 L 427 68 L 425 69 L 425 70 L 444 70 L 444 69 L 440 68 L 438 66 L 438 27 L 439 26 L 446 26 L 450 28 L 452 31 L 453 36 L 454 36 L 454 24 L 419 24 L 418 23 Z M 382 23 L 381 23 L 378 27 L 378 29 L 376 32 L 375 37 L 371 45 L 369 53 L 367 56 L 367 58 L 366 59 L 366 61 L 364 65 L 361 68 L 358 69 L 358 70 L 372 70 L 372 69 L 370 69 L 366 66 L 367 62 L 368 61 L 368 59 L 371 53 L 386 53 L 388 55 L 388 57 L 391 63 L 391 67 L 388 69 L 386 69 L 386 70 L 404 70 L 404 69 L 400 68 L 397 65 L 397 63 L 396 62 L 396 60 L 395 59 L 393 51 L 391 48 L 390 43 L 388 40 L 386 32 L 384 29 L 384 27 Z M 378 34 L 380 34 L 381 35 L 381 37 L 382 38 L 384 46 L 386 49 L 386 51 L 385 52 L 373 52 L 372 51 L 374 43 L 376 40 L 376 38 Z M 176 22 L 157 22 L 144 24 L 104 127 L 105 132 L 109 133 L 140 49 L 142 46 L 144 46 L 145 47 L 152 123 L 148 129 L 138 131 L 137 133 L 138 138 L 184 138 L 184 131 L 176 130 L 170 125 L 170 116 L 169 115 L 168 96 L 167 95 L 166 76 L 164 65 L 164 54 L 162 44 L 163 35 L 170 30 L 177 29 L 177 23 Z M 34 22 L 33 23 L 33 29 L 41 30 L 49 34 L 60 66 L 71 93 L 84 131 L 92 131 L 102 110 L 105 99 L 117 70 L 120 59 L 132 29 L 134 27 L 134 24 L 132 22 L 111 22 L 110 23 L 110 29 L 114 29 L 119 31 L 122 35 L 122 40 L 100 96 L 98 104 L 95 107 L 92 103 L 69 38 L 69 34 L 72 31 L 77 29 L 81 29 L 80 22 Z"/>
  </g>
</svg>
