<?xml version="1.0" encoding="UTF-8"?>
<!DOCTYPE svg PUBLIC "-//W3C//DTD SVG 1.1//EN" "http://www.w3.org/Graphics/SVG/1.1/DTD/svg11.dtd">
<!-- Creator: CorelDRAW 2026 -->
<svg xmlns="http://www.w3.org/2000/svg" xml:space="preserve" width="500px" height="500px" version="1.1" style="shape-rendering:geometricPrecision; text-rendering:geometricPrecision; image-rendering:optimizeQuality; fill-rule:evenodd; clip-rule:evenodd"
viewBox="0 0 86.51 86.58"
 xmlns:xlink="http://www.w3.org/1999/xlink"
 xmlns:xodm="http://www.corel.com/coreldraw/odm/2003">
 <defs>
  <style type="text/css">
   <![CDATA[
    .fil0 {fill:#EBECEC}
    .fil1 {fill:#00A0E3}
    .fil2 {fill:#5FAF4C}
    .fil3 {fill:#EC1D25}
   ]]>
  </style>
 </defs>
 <g id="Слой_x0020_1">
  <metadata id="CorelCorpID_0Corel-Layer"/>
  <g id="_1959877186368">
   <path class="fil0" d="M2.5 57.7l81.51 0.02c0.66,-1.2 1.49,-5 1.8,-6.66 0.47,-2.46 0.7,-5.16 0.7,-7.74 0,-3.67 -0.91,-11.42 -2.5,-14.43l-81.48 -0.01c-0.52,0.59 -1.62,5.4 -1.83,6.59 -0.47,2.54 -0.7,5.17 -0.7,7.85 0,2.69 0.25,5.27 0.7,7.79 0.28,1.54 1.15,5.47 1.8,6.59z"/>
   <path class="fil1" d="M2.53 28.88l81.48 0.01c-0.55,-2.57 -2.87,-6.51 -4.26,-8.85 -0.49,-0.82 -1.17,-1.75 -1.77,-2.59 -4.77,-6.62 -12.36,-12.09 -19.93,-14.83 -14.41,-5.23 -29.52,-2.34 -40.85,6.12 -3.82,2.85 -5.84,5.22 -8.69,8.75 -1.29,1.6 -2.42,3.58 -3.39,5.34 -0.71,1.28 -2.42,4.81 -2.59,6.05z"/>
   <path class="fil2" d="M84.01 57.72l-81.51 -0.02c0.31,1.54 1.91,4.74 2.64,6.09 2.86,5.33 7.25,10.5 12.09,14.06 15.8,11.64 36.41,11.65 52.08,-0.03 3.4,-2.53 6.26,-5.46 8.68,-8.76 1.97,-2.67 5.24,-8.06 6.02,-11.34z"/>
   <path class="fil3" d="M84.04 28.82l-81.46 -0.03c-0.62,1.26 -0.49,1.19 -0.63,1.54l82.52 0.03c-0.02,-0.57 -0.29,-1.04 -0.43,-1.54z"/>
   <g>
    <polygon class="fil0" points="46.96,10.09 47.29,11.12 48.38,11.12 47.5,11.75 47.84,12.78 46.96,12.14 46.09,12.78 46.43,11.75 45.55,11.12 46.63,11.12 "/>
    <polygon class="fil0" points="52.73,10.09 53.06,11.12 54.14,11.12 53.27,11.75 53.6,12.78 52.73,12.14 51.86,12.78 52.19,11.75 51.32,11.12 52.4,11.12 "/>
    <polygon class="fil0" points="58.5,10.09 58.83,11.12 59.91,11.12 59.04,11.75 59.37,12.78 58.5,12.14 57.63,12.78 57.96,11.75 57.09,11.12 58.17,11.12 "/>
    <polygon class="fil0" points="46.96,15.93 47.29,16.96 48.38,16.95 47.5,17.59 47.84,18.61 46.96,17.98 46.09,18.61 46.43,17.59 45.55,16.95 46.63,16.96 "/>
    <polygon class="fil0" points="52.73,15.93 53.06,16.96 54.14,16.95 53.27,17.59 53.6,18.61 52.73,17.98 51.86,18.61 52.19,17.59 51.32,16.95 52.4,16.96 "/>
    <polygon class="fil0" points="58.5,15.93 58.83,16.96 59.91,16.95 59.04,17.59 59.37,18.61 58.5,17.98 57.63,18.61 57.96,17.59 57.09,16.95 58.17,16.96 "/>
    <polygon class="fil0" points="41.21,15.93 41.54,16.96 42.62,16.95 41.75,17.59 42.08,18.61 41.21,17.98 40.34,18.61 40.67,17.59 39.8,16.95 40.88,16.96 "/>
    <polygon class="fil0" points="46.96,21.56 47.29,22.59 48.38,22.59 47.5,23.22 47.84,24.25 46.96,23.61 46.09,24.25 46.43,23.22 45.55,22.59 46.63,22.59 "/>
    <polygon class="fil0" points="52.73,21.56 53.06,22.59 54.14,22.59 53.27,23.22 53.6,24.25 52.73,23.61 51.86,24.25 52.19,23.22 51.32,22.59 52.4,22.59 "/>
    <polygon class="fil0" points="58.5,21.56 58.83,22.59 59.91,22.59 59.04,23.22 59.37,24.25 58.5,23.61 57.63,24.25 57.96,23.22 57.09,22.59 58.17,22.59 "/>
    <polygon class="fil0" points="41.21,21.56 41.54,22.59 42.62,22.59 41.75,23.22 42.08,24.25 41.21,23.61 40.34,24.25 40.67,23.22 39.8,22.59 40.88,22.59 "/>
    <polygon class="fil0" points="35.39,21.56 35.72,22.59 36.81,22.59 35.93,23.22 36.27,24.25 35.39,23.61 34.52,24.25 34.85,23.22 33.98,22.59 35.06,22.59 "/>
   </g>
   <path class="fil3" d="M84.02 57.72l-81.44 0.03c-0.62,-1.27 -0.49,-1.19 -0.63,-1.54l82.64 -0.04c-0.14,0.59 -0.3,0.95 -0.57,1.55z"/>
   <g>
    <path class="fil0" d="M29.16 11.3c-0.08,-0.07 -0.74,-0.34 -0.87,-0.39 -0.04,-0.01 -0.06,-0.02 -0.1,-0.03l-0.48 -0.15c-0.04,-0.01 -0.07,-0.01 -0.1,-0.02 -0.25,-0.07 -0.63,-0.14 -0.87,-0.15l-0.49 -0.04c-0.02,0 -0.03,0 -0.05,0 -0.09,0 -0.15,0 -0.24,0 -0.03,0 -0.06,0 -0.1,0l-0.68 0.05c-0.23,0.03 -0.46,0.07 -0.68,0.12 -0.03,0.01 -0.06,0.02 -0.1,0.03 -0.03,0.01 -0.06,0.01 -0.1,0.02l-0.78 0.27 -0.39 0.17c-0.2,0.1 -0.39,0.21 -0.59,0.33 -0.13,0.08 -0.27,0.17 -0.39,0.26 -0.1,0.08 -0.2,0.15 -0.29,0.23 -0.1,0.09 -0.2,0.17 -0.3,0.26 -0.19,0.19 -0.39,0.38 -0.55,0.58 -0.34,0.41 -0.52,0.7 -0.78,1.16 -0.07,0.12 -0.12,0.25 -0.18,0.38 -0.03,0.07 -0.06,0.13 -0.08,0.2l-0.08 0.19c-0.09,0.22 -0.17,0.55 -0.23,0.78 -0.04,0.16 -0.09,0.41 -0.11,0.58l-0.01 0.14c-0.01,0.02 -0.01,0.03 -0.01,0.05 0,0.04 -0.01,0.06 -0.01,0.1 -0.01,0.09 -0.02,0.19 -0.02,0.29l-0.01 0.44c0,0.02 0,0.03 0,0.05 0.01,0.23 0.02,0.45 0.05,0.68 0.05,0.36 0.11,0.73 0.22,1.07 0.09,0.26 0.14,0.43 0.25,0.69 0.01,0.03 0.02,0.06 0.04,0.09 0.01,0.04 0.03,0.07 0.04,0.1 0.15,0.37 0.46,0.87 0.68,1.18l0.23 0.29c0.14,0.17 0.28,0.33 0.43,0.49l0.01 0c0.03,0.04 0.06,0.06 0.09,0.09 0.03,0.03 0.06,0.07 0.1,0.1 0.02,0.02 0.02,0.02 0.04,0.04 0.02,0.01 0.03,0.03 0.05,0.04 0.02,0.03 0.03,0.02 0.05,0.04 0.32,0.31 0.82,0.66 1.21,0.87l0.39 0.2c0.13,0.06 0.25,0.11 0.38,0.17 0.19,0.08 0.39,0.13 0.58,0.2 0.03,0.01 0.07,0.02 0.1,0.03 0.03,0.01 0.06,0.02 0.1,0.02 0.13,0.04 0.25,0.07 0.39,0.1 0.19,0.04 0.38,0.07 0.58,0.09l0.24 0.02c0.21,0.02 0.42,0.02 0.63,0.02 0.07,0 0.13,-0.01 0.2,-0.01 0.12,0.01 0.27,-0.01 0.39,-0.03l0.29 -0.03c0.48,-0.09 0.71,-0.14 1.17,-0.29 0.02,-0.01 0.03,-0.01 0.05,-0.02 0.02,-0.01 0.03,-0.01 0.05,-0.01 0.18,-0.07 0.52,-0.21 0.69,-0.3 -0.02,-0.01 -0.06,0 -0.08,0.01l-0.23 0.05c-0.18,0.03 -0.36,0.06 -0.54,0.07 -0.03,0 -0.06,0 -0.08,0.01l-0.16 0.01c-0.02,0 -0.02,0 -0.04,0l-0.12 0c-0.06,0.01 -0.39,0 -0.46,0 -0.05,-0.01 -0.11,-0.01 -0.16,-0.01 -0.15,-0.02 -0.31,-0.03 -0.47,-0.06 -0.02,0 -0.05,0 -0.07,-0.01 -0.03,-0.01 -0.06,-0.01 -0.08,-0.01 -0.94,-0.18 -1.94,-0.59 -2.78,-1.3l-0.16 -0.13c-0.08,-0.06 -0.23,-0.21 -0.3,-0.29 -0.06,-0.05 -0.24,-0.25 -0.29,-0.31 -0.13,-0.17 -0.24,-0.29 -0.36,-0.47 -0.34,-0.48 -0.61,-1.01 -0.79,-1.57 -0.02,-0.05 -0.04,-0.11 -0.05,-0.16l-0.08 -0.31c-0.01,-0.03 -0.01,-0.05 -0.02,-0.08 -0.01,-0.03 -0.01,-0.05 -0.02,-0.08 -0.01,-0.03 -0.01,-0.05 -0.01,-0.07l-0.07 -0.39c0,-0.03 -0.01,-0.05 -0.01,-0.08l-0.04 -0.86c0,-0.03 0,-0.04 0,-0.07 0,-0.15 0.01,-0.32 0.03,-0.47l0.06 -0.39c0.01,-0.06 0.02,-0.1 0.03,-0.16 0.01,-0.1 0.04,-0.2 0.07,-0.3l0.06 -0.24c0.04,-0.13 0.11,-0.34 0.16,-0.46 0.02,-0.03 0.03,-0.06 0.04,-0.08 0.15,-0.43 0.5,-1 0.8,-1.4 0.47,-0.62 1.12,-1.19 1.8,-1.57 0.21,-0.12 0.42,-0.22 0.62,-0.31 0.16,-0.06 0.31,-0.13 0.47,-0.18l0.23 -0.07c0.18,-0.06 0.37,-0.09 0.55,-0.13l0.7 -0.09c0.16,-0.01 0.44,-0.03 0.59,-0.02l0.43 0.03c0.2,0.02 0.41,0.05 0.62,0.09 0.03,0.01 0.13,0.03 0.16,0.03z"/>
    <polygon class="fil0" points="29.16,11.3 29.16,11.3 29.16,11.29 "/>
   </g>
  </g>
 </g>
</svg>
