<?xml version="1.0" encoding="UTF-8"?>
<!DOCTYPE svg PUBLIC "-//W3C//DTD SVG 1.1//EN" "http://www.w3.org/Graphics/SVG/1.1/DTD/svg11.dtd">
<!-- Creator: CorelDRAW 2026 -->
<svg xmlns="http://www.w3.org/2000/svg" xml:space="preserve" width="500px" height="500px" version="1.1" style="shape-rendering:geometricPrecision; text-rendering:geometricPrecision; image-rendering:optimizeQuality; fill-rule:evenodd; clip-rule:evenodd"
viewBox="0 0 61.11 61.16"
 xmlns:xlink="http://www.w3.org/1999/xlink"
 xmlns:xodm="http://www.corel.com/coreldraw/odm/2003">
 <defs>
  <style type="text/css">
   <![CDATA[
    .fil1 {fill:#EBECEC}
    .fil0 {fill:#3535C9}
    .fil2 {fill:#EC1D25}
   ]]>
  </style>
 </defs>
 <g id="Слой_x0020_1">
  <metadata id="CorelCorpID_0Corel-Layer"/>
  <g id="_1959874186480">
   <path class="fil0" d="M1.76 40.76l57.58 0.01c0.47,-0.85 1.05,-3.53 1.28,-4.7 0.33,-1.74 0.49,-3.65 0.49,-5.47 0,-2.59 -0.64,-8.06 -1.77,-10.19l-57.55 -0.01c-0.37,0.42 -1.14,3.81 -1.3,4.66 -0.33,1.79 -0.49,3.65 -0.49,5.54 0,1.9 0.18,3.73 0.5,5.5 0.19,1.09 0.81,3.87 1.26,4.66z"/>
   <path class="fil1" d="M1.79 20.4l57.55 0.01c-0.39,-1.82 -2.02,-4.6 -3,-6.25 -0.35,-0.58 -0.83,-1.24 -1.25,-1.83 -3.38,-4.68 -8.73,-8.54 -14.08,-10.48 -10.18,-3.69 -20.85,-1.66 -28.86,4.32 -2.7,2.02 -4.13,3.69 -6.14,6.19 -0.91,1.13 -1.71,2.52 -2.39,3.77 -0.51,0.9 -1.71,3.39 -1.83,4.27z"/>
   <path class="fil2" d="M59.34 40.77l-57.58 -0.01c0.22,1.09 1.36,3.35 1.87,4.3 2.02,3.77 5.12,7.42 8.54,9.94 11.16,8.21 25.72,8.22 36.79,-0.03 2.4,-1.79 4.42,-3.86 6.13,-6.18 1.39,-1.89 3.7,-5.7 4.25,-8.02z"/>
  </g>
 </g>
</svg>
