<?xml version="1.0" encoding="UTF-8"?>
<!DOCTYPE svg PUBLIC "-//W3C//DTD SVG 1.1//EN" "http://www.w3.org/Graphics/SVG/1.1/DTD/svg11.dtd">
<!-- Creator: CorelDRAW 2026 -->
<svg xmlns="http://www.w3.org/2000/svg" xml:space="preserve" width="3479px" height="982px" version="1.1" style="shape-rendering:geometricPrecision; text-rendering:geometricPrecision; image-rendering:optimizeQuality; fill-rule:evenodd; clip-rule:evenodd"
viewBox="0 0 594.04 167.76"
 xmlns:xlink="http://www.w3.org/1999/xlink"
 xmlns:xodm="http://www.corel.com/coreldraw/odm/2003">
 <defs>
  <style type="text/css">
   <![CDATA[
    .fil1 {fill:#FEFEFE}
    .fil0 {fill:#EC1D25}
   ]]>
  </style>
 </defs>
 <g id="Слой_x0020_1">
  <metadata id="CorelCorpID_0Corel-Layer"/>
  <path class="fil0" d="M420.86 133.16c2,-3.03 6.58,-3.69 10.31,-5 -2.58,-2.75 0.75,-0.73 -2.87,-1.9 -15.8,-5.11 -42.03,22.11 -26.06,33.11 23.18,15.98 163.45,12.96 158.19,-43.25 -1.58,-16.91 -23.1,-26.76 -38.8,-32.91 -9.18,-3.59 -17.56,-6.29 -27.63,-8.94 -18.58,-4.87 -39.45,-5.3 -33.24,-18.04 4.47,-9.17 26.11,-16.01 36.24,-18.41 12.4,-2.94 55.94,-10.56 66.16,-4.87 -1.45,2.12 0.01,0.71 -2.44,2.48 -1.04,0.74 -2.38,1.28 -3.78,1.93 -2.58,1.21 -4.86,2.3 -7.44,3.92 -4.84,3.05 -9.14,5.71 -10.48,11.18 4.99,-0.28 19.67,-9.03 27.03,-11.6 10.2,-3.57 20.26,-5.57 24.71,-14.14 6.59,-12.72 3.21,-20.46 -9.86,-23.44 -29.01,-6.61 -76.37,0.13 -102.41,9.16 -20.97,7.28 -33.08,16.5 -38.9,38.6 -3.46,13.13 -3.98,22.24 6.92,27.57 39.45,19.29 63.27,12.18 87.75,28.42 22.31,14.8 -25.13,25.13 -39.14,26.68 -12.76,1.42 -65.82,4.75 -74.26,-0.55z"/>
  <path class="fil1" d="M296.97 70.05c8.62,0.04 23.49,-2.32 23.33,8.4 -0.16,10.29 -13.8,8.62 -23.31,8.63l-0.02 -17.03zm-25.34 67.08l25.02 -0.06 0.37 -34.02c11.35,0.75 11.98,5.98 16.26,14.3 3.12,6.07 8.09,13.61 10.09,19.64l29.54 0.14c-2.58,-7.14 -6.66,-14.05 -10.2,-20.76 -5.43,-10.29 -6.1,-10.46 -14.61,-16.23 3.88,-2.42 14.17,-4.58 17.51,-16.7 2.93,-10.59 -0.92,-21.09 -7.85,-25.86 -10.57,-7.28 -51.43,-4.6 -66.99,-4.66 0.08,12.91 -1.42,77.28 0.86,84.21z"/>
  <path class="fil1" d="M0 136.58l25.91 -0.11c0.17,-6.77 -1.6,-16.6 1.36,-21.74 1.25,-2.16 8.93,-9.96 11.72,-11.9 4.5,4.28 14.47,27.35 17.84,33.76l31.73 -0.09c-7.15,-15.08 -23.43,-36.69 -31.18,-52.31 6.69,-9.92 26.93,-26.24 29.52,-31.74l-34.33 -0.02 -26.39 30.43 -0.24 -30.03 -25.81 -0.45 -0.13 84.2z"/>
  <path class="fil1" d="M120.76 136.57l27.54 -0.02c3.18,-4.16 28.23,-73.95 31.45,-83.85l-26.13 -0.3c-3.37,10.2 -14.99,53.26 -18.92,59.11l-18.37 -59 -26.93 -0.05 31.36 84.11z"/>
  <path class="fil1" d="M167.85 132.84c1.86,-9.37 3.96,-10.57 10.95,-14.71 5.86,-3.48 9.98,-6.03 15.64,-9.39 9.68,-5.76 22.39,-14.57 32.43,-19.13 2.78,5.33 8.15,35.39 9.11,43.38l-68.13 -0.15zm21.23 -31.24c-1.89,-22.82 -4.89,-10.13 8.2,-42.46 3.41,-8.43 11.87,-32.31 16.36,-38.48l12.48 64.57 -37.04 16.37zm-29.28 36.15l80.73 0.58c3.64,-3.89 5.61,-6.11 9.81,-10.15 2.5,-2.4 6.99,-7.55 9.04,-10.96 -5.39,-15.19 -39.75,-112.12 -43.87,-117.22l-55.71 137.75z"/>
  <path class="fil1" d="M432.81 122.64c1.84,-4.04 4,-8.09 5.02,-13.54l-21.92 -6.31c-5.31,6.51 -3.3,16.6 -18.25,15.94 -21.11,-0.94 -18.53,-40.04 -5.64,-45.87 15.34,-6.95 20.76,7.32 22.73,9.73l21.99 -4.73c-4.96,-19.36 -21.37,-28.22 -44.5,-26.03 -47.75,4.52 -44.71,71.92 -11.84,83.8 20.75,7.5 16.25,-0.21 24.56,-6.56 6.23,-4.77 17.59,-8.19 27.85,-6.43z"/>
 </g>
</svg>
