<?xml version="1.0" encoding="UTF-8" standalone="no"?>
<svg xmlns="http://www.w3.org/2000/svg" width="493" height="212" viewBox="0 0 493 212" version="1.1" aria-labelledby="title" role="img">
  <title>Azia Stone</title>
  <g fill="#111111" stroke="none" fill-rule="evenodd">
    <path d="M 236 126 L 236 191 L 264 191 L 265 190 L 265 187 L 264 186 L 265 180 L 264 179 L 253 179 L 252 178 L 252 165 L 253 164 L 262 164 L 263 163 L 263 152 L 253 152 L 252 151 L 252 140 L 253 139 L 264 139 L 264 126 Z M 181 126 L 181 191 L 195 191 L 195 168 L 196 167 L 198 168 L 198 170 L 199 171 L 199 173 L 200 174 L 200 176 L 201 177 L 201 179 L 202 180 L 202 182 L 203 183 L 205 191 L 219 191 L 219 167 L 220 166 L 220 160 L 219 159 L 219 150 L 220 149 L 219 147 L 219 135 L 220 134 L 220 131 L 219 130 L 219 126 L 206 126 L 206 146 L 204 149 L 202 148 L 202 146 L 201 145 L 201 143 L 200 142 L 200 140 L 199 139 L 199 137 L 198 136 L 198 134 L 197 133 L 197 131 L 196 130 L 195 126 Z M 77 126 L 77 139 L 86 139 L 87 140 L 87 191 L 103 191 L 103 140 L 104 139 L 113 139 L 113 126 Z M 141 125 L 140 126 L 135 127 L 133 129 L 132 129 L 127 136 L 127 140 L 126 141 L 126 177 L 127 178 L 127 181 L 129 185 L 133 189 L 139 192 L 153 192 L 154 191 L 158 190 L 164 184 L 165 182 L 165 178 L 166 177 L 166 144 L 165 143 L 165 136 L 163 132 L 160 129 L 159 129 L 155 126 L 152 126 L 151 125 Z M 145 136 L 147 136 L 149 138 L 149 180 L 147 182 L 145 182 L 143 180 L 143 138 Z M 39 125 L 38 126 L 35 126 L 31 128 L 26 133 L 26 135 L 25 136 L 25 150 L 26 151 L 26 153 L 30 158 L 31 158 L 33 160 L 34 160 L 36 162 L 37 162 L 47 169 L 48 171 L 48 179 L 45 182 L 43 182 L 41 180 L 41 169 L 40 168 L 26 168 L 25 169 L 25 179 L 26 180 L 26 183 L 27 185 L 31 189 L 35 191 L 37 191 L 38 192 L 47 193 L 48 192 L 52 192 L 53 191 L 55 191 L 62 186 L 64 182 L 64 167 L 63 166 L 62 162 L 58 157 L 57 157 L 55 155 L 54 155 L 52 153 L 51 153 L 49 151 L 46 150 L 42 147 L 41 145 L 41 138 L 43 136 L 45 136 L 47 138 L 47 145 L 48 146 L 63 146 L 63 137 L 62 136 L 62 133 L 57 128 L 53 126 L 50 126 L 49 125 Z M 219 67 L 219 70 L 346 191 L 348 191 L 474 69 L 473 66 L 428 27 L 265 27 Z M 425 94 L 426 96 L 424 98 L 420 106 L 414 114 L 413 117 L 411 119 L 407 127 L 362 171 L 359 172 L 358 171 L 358 169 L 361 164 L 361 162 L 364 157 L 364 155 L 405 114 L 405 113 L 424 94 Z M 267 92 L 269 93 L 269 94 L 330 156 L 330 158 L 336 169 L 336 171 L 337 172 L 336 174 L 335 174 L 319 158 L 318 158 L 286 126 L 283 120 L 277 112 L 275 107 L 266 94 Z M 346 86 L 348 87 L 348 89 L 349 90 L 349 94 L 350 95 L 350 99 L 351 100 L 351 104 L 352 105 L 352 110 L 353 111 L 353 115 L 354 116 L 354 121 L 355 122 L 355 127 L 356 128 L 356 132 L 357 133 L 358 147 L 359 148 L 359 156 L 358 157 L 358 159 L 351 173 L 351 175 L 347 182 L 345 181 L 345 179 L 343 176 L 343 174 L 341 171 L 341 169 L 334 155 L 334 149 L 335 148 L 335 144 L 336 143 L 336 137 L 337 136 L 337 132 L 338 131 L 338 127 L 339 126 L 339 120 L 340 119 L 341 109 L 342 108 L 342 104 L 343 103 L 343 99 L 344 98 L 344 93 L 345 92 L 345 87 Z M 462 71 L 463 73 L 446 90 L 445 90 L 445 91 L 443 92 L 442 94 L 441 94 L 427 108 L 426 108 L 425 106 L 427 104 L 429 99 L 433 94 L 434 91 L 436 89 L 437 86 L 442 79 L 444 74 L 447 71 Z M 437 71 L 438 73 L 405 106 L 405 107 L 377 135 L 376 135 L 375 134 L 375 132 L 386 110 L 386 108 L 388 105 L 388 103 L 392 96 L 392 94 L 398 83 L 398 81 L 402 73 L 404 71 Z M 396 71 L 397 72 L 397 74 L 390 87 L 390 89 L 380 109 L 380 111 L 374 122 L 374 124 L 369 133 L 369 135 L 366 141 L 364 142 L 362 139 L 361 129 L 360 128 L 360 124 L 359 123 L 359 120 L 358 119 L 357 108 L 356 107 L 356 103 L 355 102 L 355 97 L 354 96 L 354 91 L 353 90 L 353 87 L 352 86 L 352 82 L 351 81 L 350 72 L 351 71 Z M 298 71 L 342 71 L 343 72 L 343 75 L 342 76 L 342 82 L 341 83 L 341 88 L 340 89 L 340 93 L 339 94 L 339 100 L 338 101 L 337 111 L 336 112 L 335 122 L 334 123 L 334 128 L 333 129 L 332 138 L 331 139 L 331 142 L 330 143 L 328 142 L 326 138 L 326 136 L 320 125 L 320 123 L 310 103 L 310 101 L 306 94 L 306 92 L 298 77 L 298 75 L 297 74 L 297 72 Z M 255 72 L 256 71 L 290 71 L 292 73 L 294 77 L 294 79 L 299 88 L 299 90 L 304 99 L 304 101 L 309 110 L 309 112 L 311 115 L 311 117 L 317 128 L 317 130 L 320 136 L 318 137 L 306 125 L 306 124 L 302 120 L 301 120 L 298 117 L 298 116 L 274 92 L 274 91 L 271 88 L 270 88 L 255 73 Z M 230 72 L 231 71 L 246 71 L 250 76 L 251 79 L 255 84 L 256 87 L 260 92 L 261 95 L 267 103 L 268 106 L 266 107 L 263 104 L 262 104 L 243 85 L 242 85 L 230 73 Z M 245 54 L 245 65 L 244 66 L 231 66 L 230 65 L 230 64 L 242 53 L 244 53 Z M 448 53 L 450 52 L 456 58 L 457 58 L 463 64 L 463 65 L 462 66 L 449 66 L 448 65 Z M 392 51 L 394 50 L 402 54 L 407 55 L 410 57 L 412 57 L 420 61 L 425 62 L 427 63 L 428 65 L 427 66 L 404 66 L 393 54 Z M 302 51 L 302 52 L 297 57 L 297 58 L 294 61 L 294 62 L 290 66 L 266 66 L 265 65 L 266 63 L 268 63 L 271 61 L 273 61 L 279 58 L 284 57 L 287 55 L 292 54 L 300 50 Z M 396 64 L 395 66 L 357 66 L 356 65 L 356 64 L 358 62 L 359 62 L 362 59 L 363 59 L 366 56 L 370 54 L 380 46 L 381 46 L 384 49 L 384 50 L 387 53 L 387 54 Z M 298 64 L 303 58 L 303 57 L 307 53 L 307 52 L 310 49 L 310 48 L 312 46 L 313 46 L 320 52 L 321 52 L 323 54 L 330 58 L 333 61 L 334 61 L 337 64 L 337 65 L 336 66 L 299 66 Z M 387 41 L 397 32 L 399 32 L 400 33 L 402 33 L 403 34 L 405 34 L 406 35 L 408 35 L 409 36 L 411 36 L 412 37 L 414 37 L 415 38 L 417 38 L 418 39 L 420 39 L 421 40 L 423 40 L 424 41 L 426 41 L 427 42 L 429 42 L 430 43 L 432 43 L 433 44 L 441 46 L 444 48 L 444 59 L 443 60 L 443 63 L 441 64 L 433 60 L 431 60 L 425 57 L 423 57 L 420 55 L 415 54 L 410 51 L 408 51 L 405 49 L 403 49 L 400 47 L 398 47 L 390 43 L 388 43 Z M 319 43 L 325 40 L 327 40 L 330 38 L 332 38 L 335 36 L 337 36 L 340 34 L 342 34 L 345 32 L 348 32 L 354 35 L 356 35 L 359 37 L 361 37 L 367 40 L 369 40 L 372 42 L 374 42 L 375 44 L 370 48 L 366 50 L 359 56 L 358 56 L 356 58 L 355 58 L 353 60 L 346 64 L 342 61 L 341 61 L 338 58 L 331 54 L 324 48 L 323 48 L 319 44 Z M 306 41 L 306 42 L 304 44 L 302 44 L 299 46 L 297 46 L 291 49 L 286 50 L 283 52 L 281 52 L 273 56 L 265 58 L 262 60 L 260 60 L 254 63 L 251 63 L 250 62 L 250 48 L 258 44 L 263 43 L 266 41 L 268 41 L 269 40 L 271 40 L 272 39 L 274 39 L 278 37 L 281 37 L 284 35 L 289 34 L 292 32 L 296 33 L 300 37 L 301 37 Z M 416 32 L 417 31 L 425 31 L 427 33 L 428 33 L 431 36 L 431 37 L 429 38 L 428 37 L 426 37 L 425 36 L 417 34 Z M 363 32 L 364 31 L 387 31 L 388 33 L 381 39 L 378 39 L 377 38 L 372 37 L 369 35 L 364 34 Z M 304 32 L 305 31 L 319 31 L 320 32 L 324 31 L 325 32 L 327 32 L 328 34 L 322 37 L 320 37 L 314 40 L 312 40 L 308 36 L 307 36 L 304 33 Z M 274 32 L 274 34 L 273 35 L 271 35 L 270 36 L 268 36 L 264 38 L 262 37 L 262 36 L 268 31 L 273 31 Z M 161 22 L 160 23 L 160 28 L 159 29 L 159 35 L 158 36 L 158 41 L 157 42 L 157 49 L 156 50 L 156 55 L 155 56 L 155 62 L 154 63 L 154 69 L 153 70 L 153 77 L 152 78 L 152 84 L 151 85 L 151 87 L 152 88 L 168 88 L 169 87 L 169 77 L 170 76 L 176 76 L 177 77 L 177 85 L 178 86 L 178 88 L 194 88 L 195 87 L 195 85 L 194 84 L 193 71 L 192 70 L 192 65 L 191 64 L 191 59 L 190 58 L 190 53 L 189 52 L 189 46 L 188 45 L 188 39 L 187 38 L 187 33 L 186 32 L 186 26 L 185 25 L 185 22 Z M 172 45 L 173 45 L 175 47 L 175 55 L 176 56 L 176 63 L 175 64 L 170 64 L 169 63 L 170 61 L 170 54 L 171 53 L 171 46 Z M 123 22 L 123 87 L 124 88 L 139 88 L 140 87 L 140 23 L 139 22 Z M 79 22 L 79 35 L 89 35 L 90 36 L 90 39 L 87 45 L 86 51 L 85 52 L 85 54 L 84 55 L 84 57 L 82 61 L 82 64 L 81 65 L 81 67 L 80 68 L 80 70 L 79 71 L 79 73 L 77 77 L 77 87 L 78 88 L 108 88 L 109 87 L 109 75 L 97 75 L 96 73 L 97 72 L 97 70 L 98 69 L 98 67 L 99 66 L 99 64 L 100 63 L 100 61 L 102 57 L 102 54 L 104 51 L 104 49 L 105 48 L 105 46 L 106 45 L 106 43 L 107 42 L 107 40 L 109 36 L 109 22 Z M 31 22 L 31 24 L 30 25 L 30 32 L 29 33 L 29 38 L 28 39 L 28 46 L 27 47 L 27 53 L 26 54 L 26 61 L 25 62 L 25 68 L 24 69 L 24 75 L 23 76 L 23 83 L 22 84 L 22 87 L 23 88 L 39 88 L 40 87 L 40 77 L 41 76 L 47 76 L 48 77 L 48 87 L 49 88 L 65 88 L 66 86 L 65 85 L 65 79 L 64 78 L 64 72 L 63 71 L 63 66 L 62 65 L 62 59 L 61 58 L 61 53 L 60 52 L 60 46 L 59 45 L 59 39 L 58 38 L 58 32 L 57 31 L 57 25 L 56 24 L 56 22 Z M 43 45 L 45 46 L 45 48 L 46 49 L 46 58 L 47 59 L 47 63 L 46 64 L 42 64 L 41 63 L 41 55 L 42 54 L 42 46 Z"/>
  </g>
</svg>
