<?xml version="1.0" encoding="UTF-8" standalone="no"?>
<svg xmlns="http://www.w3.org/2000/svg" width="460" height="292" viewBox="0 0 460 292" version="1.1" aria-labelledby="title" role="img">
  <title>Beautiful Stone</title>
  <g fill="#111111" stroke="none" fill-rule="evenodd">
    <path d="M 272 254 L 272 273 L 277 273 L 277 267 L 278 266 L 279 266 L 285 273 L 292 273 L 295 269 L 301 269 L 304 273 L 312 273 L 314 268 L 316 269 L 318 273 L 320 273 L 322 271 L 322 269 L 323 268 L 325 269 L 325 272 L 326 273 L 330 273 L 331 272 L 333 273 L 337 273 L 337 266 L 338 265 L 343 265 L 344 266 L 344 272 L 345 273 L 355 273 L 360 266 L 362 266 L 363 267 L 363 273 L 368 273 L 368 254 L 355 254 L 353 255 L 351 258 L 349 257 L 349 254 L 344 254 L 344 260 L 343 261 L 338 261 L 337 260 L 337 254 L 324 254 L 320 262 L 318 262 L 317 261 L 315 254 L 308 254 L 308 265 L 307 266 L 305 265 L 304 261 L 301 256 L 301 254 L 295 254 L 294 258 L 292 261 L 292 263 L 289 268 L 287 268 L 283 263 L 284 260 L 289 256 L 289 254 L 284 254 L 279 259 L 277 258 L 277 254 Z M 350 261 L 351 261 L 354 265 L 354 266 L 351 270 L 349 269 L 349 262 Z M 356 259 L 357 258 L 362 258 L 363 260 L 362 261 L 357 261 Z M 77 254 L 78 273 L 82 273 L 83 268 L 85 269 L 86 273 L 90 273 L 92 269 L 95 273 L 104 273 L 107 268 L 111 268 L 115 273 L 119 273 L 120 270 L 125 273 L 134 272 L 137 269 L 137 266 L 133 266 L 130 269 L 127 269 L 124 266 L 124 260 L 126 258 L 131 258 L 133 261 L 137 261 L 138 258 L 142 258 L 144 273 L 148 273 L 149 258 L 155 259 L 155 273 L 177 273 L 179 266 L 185 266 L 188 264 L 190 265 L 191 269 L 197 273 L 205 272 L 208 269 L 210 270 L 210 273 L 214 273 L 216 267 L 222 273 L 230 273 L 233 269 L 239 269 L 241 273 L 250 273 L 255 266 L 258 267 L 258 273 L 263 272 L 262 254 L 249 254 L 246 257 L 246 261 L 248 264 L 246 269 L 244 268 L 238 254 L 232 255 L 226 269 L 220 262 L 227 256 L 227 254 L 221 254 L 217 258 L 214 254 L 210 254 L 210 257 L 208 258 L 206 255 L 201 253 L 195 254 L 191 257 L 185 254 L 134 255 L 127 253 L 120 257 L 118 265 L 116 264 L 112 254 L 107 254 L 101 266 L 99 265 L 99 254 L 92 254 L 89 262 L 86 260 L 84 254 Z M 160 268 L 160 266 L 161 265 L 171 265 L 172 266 L 171 268 L 168 268 L 167 269 L 161 269 Z M 251 259 L 252 258 L 257 258 L 258 260 L 256 262 L 253 262 L 251 260 Z M 195 261 L 197 258 L 202 258 L 204 261 L 209 261 L 210 262 L 210 265 L 209 266 L 204 266 L 201 269 L 198 269 L 195 266 Z M 178 261 L 178 259 L 179 258 L 183 258 L 184 259 L 184 260 L 182 262 L 179 262 Z M 160 259 L 161 258 L 172 258 L 173 259 L 173 262 L 171 263 L 170 261 L 161 261 Z M 387 167 L 386 166 L 383 167 L 378 167 L 377 166 L 337 167 L 340 176 L 340 187 L 339 188 L 339 191 L 337 195 L 330 202 L 322 205 L 310 204 L 303 200 L 300 197 L 293 185 L 291 178 L 290 167 L 286 167 L 285 168 L 243 168 L 243 177 L 244 178 L 244 184 L 245 185 L 247 197 L 251 206 L 252 211 L 258 221 L 267 231 L 277 238 L 291 243 L 302 244 L 303 245 L 331 245 L 332 244 L 341 243 L 358 236 L 367 229 L 373 222 L 380 210 L 384 199 L 386 187 L 387 186 Z M 224 167 L 223 166 L 221 167 L 184 167 L 183 166 L 176 166 L 175 167 L 175 177 L 172 188 L 167 194 L 161 197 L 157 197 L 156 198 L 126 198 L 125 197 L 125 167 L 75 167 L 75 241 L 76 242 L 171 242 L 172 241 L 184 240 L 194 237 L 202 233 L 210 226 L 219 211 L 223 195 Z M 417 130 L 417 159 L 418 160 L 440 160 L 441 159 L 441 156 L 440 155 L 424 155 L 423 154 L 423 148 L 425 146 L 439 146 L 439 142 L 424 142 L 423 141 L 423 136 L 424 135 L 440 135 L 440 130 Z M 386 130 L 386 137 L 385 138 L 385 141 L 386 142 L 386 147 L 385 148 L 385 150 L 386 151 L 386 157 L 385 159 L 386 160 L 391 159 L 391 144 L 393 143 L 395 145 L 396 148 L 402 156 L 403 159 L 407 159 L 409 160 L 410 159 L 410 131 L 409 130 L 405 130 L 404 131 L 404 146 L 402 147 L 399 143 L 398 140 L 392 132 L 392 131 L 391 130 Z M 357 131 L 352 136 L 350 140 L 350 149 L 351 150 L 352 154 L 356 158 L 360 159 L 361 160 L 369 160 L 370 159 L 372 159 L 374 157 L 375 157 L 379 152 L 379 149 L 380 148 L 380 142 L 379 141 L 379 138 L 378 136 L 374 132 L 370 130 L 360 130 L 359 131 Z M 361 135 L 368 135 L 370 136 L 373 140 L 373 143 L 374 144 L 373 150 L 372 152 L 368 155 L 362 155 L 360 154 L 356 149 L 356 141 L 357 139 Z M 323 130 L 323 135 L 331 135 L 332 136 L 332 159 L 338 159 L 338 136 L 339 135 L 347 135 L 347 130 Z M 301 130 L 299 131 L 296 135 L 296 141 L 300 145 L 302 146 L 311 148 L 313 150 L 313 152 L 310 155 L 304 155 L 301 153 L 300 150 L 294 150 L 295 154 L 298 158 L 302 159 L 303 160 L 311 160 L 312 159 L 314 159 L 316 158 L 319 154 L 319 148 L 316 144 L 312 142 L 305 141 L 303 140 L 301 138 L 301 137 L 305 134 L 308 134 L 310 135 L 312 137 L 312 138 L 318 138 L 318 136 L 317 134 L 312 130 Z M 247 130 L 247 159 L 248 160 L 264 160 L 265 159 L 269 159 L 269 156 L 268 155 L 254 155 L 253 154 L 253 131 L 252 130 Z M 215 130 L 215 152 L 216 153 L 216 155 L 220 159 L 222 159 L 223 160 L 232 160 L 236 158 L 238 156 L 239 154 L 239 151 L 240 150 L 240 131 L 239 130 L 234 130 L 234 150 L 233 151 L 233 153 L 231 155 L 224 155 L 221 152 L 221 130 Z M 209 130 L 188 130 L 188 159 L 191 159 L 192 160 L 194 159 L 194 148 L 195 147 L 207 147 L 207 142 L 195 142 L 194 141 L 194 136 L 195 135 L 209 135 L 209 133 L 210 132 Z M 175 130 L 175 159 L 181 159 L 181 130 Z M 146 130 L 146 135 L 154 135 L 155 136 L 155 159 L 161 159 L 161 136 L 162 135 L 170 135 L 171 134 L 171 131 L 170 130 Z M 116 130 L 116 153 L 117 155 L 121 159 L 123 159 L 124 160 L 133 160 L 137 158 L 140 155 L 140 152 L 141 151 L 141 130 L 135 130 L 135 149 L 134 150 L 134 153 L 132 155 L 125 155 L 122 152 L 122 131 L 121 130 Z M 93 130 L 91 134 L 91 136 L 89 139 L 89 141 L 86 146 L 86 148 L 83 153 L 83 155 L 81 159 L 88 159 L 88 157 L 91 153 L 102 153 L 104 155 L 106 159 L 111 160 L 112 158 L 108 151 L 108 149 L 106 146 L 106 144 L 104 141 L 104 139 L 101 134 L 100 130 Z M 96 138 L 98 139 L 98 141 L 100 145 L 100 147 L 99 148 L 94 148 L 93 147 L 93 145 L 94 144 L 94 142 Z M 55 130 L 55 143 L 54 144 L 54 147 L 55 148 L 55 160 L 70 160 L 71 159 L 78 159 L 78 155 L 62 155 L 61 154 L 61 147 L 62 146 L 76 146 L 76 142 L 62 142 L 61 141 L 61 136 L 62 135 L 77 135 L 77 130 Z M 23 130 L 22 131 L 22 158 L 23 160 L 38 160 L 39 159 L 43 159 L 45 158 L 48 154 L 48 148 L 47 146 L 44 144 L 44 143 L 47 140 L 47 135 L 45 133 L 45 132 L 41 131 L 40 130 Z M 29 148 L 30 147 L 40 147 L 42 149 L 42 153 L 39 155 L 30 155 L 29 154 Z M 29 136 L 30 135 L 39 135 L 41 137 L 41 139 L 38 142 L 30 142 L 29 141 Z M 75 25 L 75 121 L 203 121 L 210 110 L 215 99 L 216 93 L 217 92 L 218 76 L 217 75 L 217 67 L 216 66 L 216 62 L 214 56 L 208 45 L 199 35 L 190 29 L 180 26 L 175 26 L 174 25 Z M 125 69 L 126 68 L 154 68 L 155 69 L 158 69 L 162 71 L 166 75 L 168 79 L 168 81 L 169 82 L 169 87 L 170 88 L 170 94 L 169 95 L 169 98 L 168 99 L 167 103 L 164 106 L 158 109 L 154 109 L 153 110 L 148 110 L 147 111 L 126 111 L 125 110 Z M 257 50 L 250 68 L 249 96 L 253 109 L 261 121 L 367 121 L 360 114 L 350 109 L 310 96 L 300 91 L 295 84 L 295 75 L 297 70 L 302 65 L 306 63 L 319 62 L 328 66 L 334 75 L 337 89 L 359 89 L 383 86 L 379 62 L 372 47 L 360 34 L 345 26 L 323 22 L 309 22 L 290 25 L 276 31 L 269 36 Z"/>
  </g>
</svg>
