<?xml version="1.0" encoding="UTF-8" standalone="no"?>
<svg xmlns="http://www.w3.org/2000/svg" width="434" height="163" viewBox="0 0 434 163" version="1.1" aria-labelledby="title" role="img">
  <title>DecoLit</title>
  <g fill="#111111" stroke="none" fill-rule="evenodd">
    <path d="M 239 61 L 239 112 L 249 112 L 249 61 Z M 76 61 L 76 112 L 105 112 L 106 111 L 106 103 L 105 102 L 87 102 L 86 101 L 86 92 L 87 91 L 103 91 L 104 90 L 104 81 L 87 81 L 86 80 L 86 72 L 87 71 L 104 71 L 105 70 L 105 61 Z M 254 61 L 253 71 L 264 71 L 265 72 L 265 90 L 266 91 L 266 99 L 265 101 L 266 102 L 266 112 L 275 112 L 275 73 L 276 72 L 286 72 L 287 71 L 287 61 L 276 61 L 275 60 L 268 60 L 267 61 Z M 163 60 L 162 61 L 160 61 L 155 65 L 150 74 L 150 78 L 149 79 L 149 94 L 150 95 L 150 99 L 151 100 L 151 102 L 154 106 L 154 107 L 157 110 L 163 113 L 172 113 L 173 112 L 175 112 L 179 110 L 181 108 L 185 101 L 185 99 L 186 98 L 186 94 L 187 93 L 187 80 L 186 79 L 186 75 L 185 74 L 185 72 L 183 68 L 179 63 L 173 60 Z M 165 71 L 171 71 L 175 75 L 175 77 L 176 78 L 176 95 L 175 96 L 175 98 L 171 102 L 169 103 L 167 103 L 162 100 L 160 96 L 160 91 L 159 90 L 159 83 L 160 82 L 160 78 L 161 77 L 161 75 Z M 123 60 L 119 62 L 115 66 L 112 72 L 112 74 L 111 75 L 111 79 L 110 80 L 110 94 L 111 95 L 111 99 L 112 100 L 112 102 L 114 106 L 119 111 L 123 112 L 124 113 L 132 113 L 140 109 L 140 108 L 144 103 L 144 101 L 145 100 L 145 95 L 143 94 L 140 94 L 139 93 L 136 93 L 135 95 L 135 98 L 131 102 L 129 103 L 125 102 L 123 100 L 121 96 L 121 91 L 120 90 L 121 78 L 122 77 L 122 75 L 126 71 L 131 71 L 133 72 L 136 78 L 139 78 L 140 77 L 143 77 L 145 76 L 145 72 L 142 66 L 138 62 L 134 60 Z M 194 37 L 194 88 L 193 89 L 193 92 L 194 93 L 194 112 L 234 112 L 234 98 L 233 97 L 208 97 L 207 96 L 207 38 L 206 37 Z M 23 37 L 22 38 L 22 112 L 50 112 L 51 111 L 53 111 L 57 109 L 64 102 L 67 96 L 68 90 L 69 89 L 69 82 L 70 81 L 70 67 L 69 66 L 69 60 L 68 59 L 68 56 L 67 55 L 66 50 L 64 48 L 63 45 L 60 42 L 52 38 L 49 38 L 48 37 Z M 36 52 L 46 52 L 47 53 L 51 54 L 54 58 L 54 60 L 56 64 L 56 84 L 55 85 L 55 89 L 53 93 L 48 97 L 36 97 L 35 96 L 35 93 L 36 92 L 36 87 L 35 86 L 36 84 L 36 73 L 35 72 L 35 69 L 36 68 L 35 66 L 35 59 L 36 58 L 36 55 L 35 53 Z M 295 23 L 318 76 L 360 76 L 362 79 L 366 91 L 405 91 L 406 92 L 404 101 L 402 104 L 399 114 L 390 135 L 390 143 L 391 143 L 402 117 L 402 115 L 414 89 L 414 78 L 412 72 L 405 57 L 405 55 L 401 48 L 401 46 L 397 39 L 397 37 L 394 32 L 392 25 L 390 23 Z"/>
  </g>
</svg>
