<?xml version="1.0" encoding="UTF-8" standalone="no"?>
<svg xmlns="http://www.w3.org/2000/svg" width="445" height="307" viewBox="0 0 445 307" version="1.1" aria-labelledby="title" role="img">
  <title>Gemstone</title>
  <g fill="#111111" stroke="none" fill-rule="evenodd">
    <path d="M 339 191 L 328 191 L 323 201 L 312 216 L 303 225 L 292 234 L 270 246 L 268 246 L 259 250 L 256 250 L 251 252 L 247 252 L 246 253 L 240 253 L 239 254 L 221 254 L 220 253 L 213 253 L 212 252 L 208 252 L 207 251 L 204 251 L 203 250 L 200 250 L 194 248 L 191 246 L 182 243 L 180 241 L 172 237 L 169 234 L 168 234 L 168 235 L 181 245 L 200 255 L 209 258 L 220 260 L 221 261 L 227 261 L 228 262 L 249 262 L 250 261 L 256 261 L 257 260 L 261 260 L 262 259 L 269 258 L 289 250 L 307 238 L 321 224 L 327 216 L 337 198 Z M 95 191 L 98 202 L 109 223 L 122 241 L 136 255 L 160 272 L 180 281 L 198 286 L 212 288 L 232 288 L 251 285 L 267 280 L 286 271 L 298 263 L 317 246 L 316 245 L 303 255 L 285 264 L 271 269 L 259 272 L 242 273 L 241 274 L 218 272 L 200 267 L 189 262 L 179 256 L 165 245 L 153 233 L 142 219 L 133 203 L 128 191 Z M 390 132 L 390 177 L 426 177 L 426 169 L 425 168 L 403 168 L 402 167 L 402 160 L 403 159 L 422 159 L 422 150 L 403 150 L 402 149 L 402 143 L 403 142 L 425 142 L 425 132 Z M 335 132 L 335 138 L 334 139 L 334 141 L 335 142 L 335 146 L 334 147 L 334 149 L 335 150 L 335 156 L 334 157 L 335 159 L 335 177 L 346 177 L 346 156 L 347 155 L 348 155 L 353 160 L 353 161 L 357 165 L 357 166 L 367 177 L 377 177 L 377 132 L 366 132 L 365 133 L 365 153 L 364 154 L 363 154 L 358 149 L 358 148 L 344 132 Z M 230 132 L 229 133 L 229 142 L 242 142 L 243 143 L 243 177 L 255 177 L 255 143 L 256 142 L 269 142 L 270 141 L 270 133 L 269 132 Z M 124 133 L 124 177 L 135 177 L 135 159 L 137 157 L 139 158 L 139 159 L 143 164 L 144 167 L 146 169 L 147 172 L 149 173 L 152 173 L 154 172 L 154 171 L 156 169 L 157 166 L 159 164 L 160 161 L 162 159 L 164 155 L 166 156 L 166 177 L 177 177 L 177 133 L 176 132 L 167 132 L 165 134 L 163 139 L 159 144 L 155 152 L 151 157 L 150 157 L 148 155 L 144 147 L 142 145 L 139 139 L 137 137 L 136 134 L 134 132 L 125 132 Z M 78 132 L 78 177 L 114 177 L 114 168 L 91 168 L 90 167 L 90 160 L 91 159 L 110 159 L 110 150 L 91 150 L 90 149 L 90 143 L 91 142 L 113 142 L 113 132 Z M 292 132 L 291 133 L 289 133 L 285 135 L 282 138 L 281 138 L 281 139 L 278 142 L 275 148 L 275 151 L 274 152 L 274 158 L 275 159 L 275 163 L 277 167 L 284 174 L 290 177 L 294 177 L 295 178 L 304 178 L 305 177 L 311 176 L 315 173 L 316 173 L 320 169 L 324 162 L 324 159 L 325 158 L 325 152 L 324 151 L 324 148 L 319 139 L 314 135 L 310 133 L 308 133 L 307 132 L 302 132 L 301 131 L 298 131 L 297 132 Z M 299 141 L 301 141 L 302 142 L 306 143 L 311 148 L 311 150 L 312 151 L 312 159 L 310 163 L 307 166 L 303 168 L 296 168 L 292 166 L 288 162 L 288 160 L 287 159 L 287 150 L 288 148 L 293 143 L 295 142 L 298 142 Z M 221 134 L 219 134 L 215 132 L 209 132 L 208 131 L 206 131 L 205 132 L 199 132 L 198 133 L 194 134 L 188 140 L 188 142 L 187 143 L 187 149 L 188 150 L 188 152 L 192 156 L 196 158 L 199 158 L 200 159 L 203 159 L 204 160 L 208 160 L 209 161 L 211 161 L 213 163 L 213 166 L 211 168 L 209 168 L 208 169 L 201 169 L 200 168 L 197 168 L 196 167 L 194 167 L 190 165 L 187 171 L 187 174 L 191 176 L 193 176 L 194 177 L 197 177 L 198 178 L 211 178 L 212 177 L 215 177 L 219 175 L 223 171 L 225 167 L 225 160 L 224 158 L 219 153 L 217 152 L 211 151 L 210 150 L 202 149 L 199 146 L 199 144 L 202 141 L 212 141 L 213 142 L 215 142 L 216 143 L 220 144 L 220 142 L 223 137 L 223 136 Z M 40 132 L 39 133 L 37 133 L 33 135 L 30 138 L 29 138 L 24 145 L 23 151 L 22 152 L 22 158 L 23 159 L 24 165 L 32 174 L 38 177 L 42 177 L 43 178 L 52 178 L 53 177 L 57 177 L 58 176 L 60 176 L 64 174 L 66 172 L 66 168 L 67 167 L 66 165 L 66 154 L 56 154 L 55 155 L 55 166 L 52 168 L 44 168 L 43 167 L 41 167 L 36 162 L 36 160 L 35 159 L 35 150 L 36 148 L 41 143 L 43 142 L 49 141 L 50 142 L 53 142 L 55 143 L 58 146 L 60 146 L 62 145 L 67 140 L 67 139 L 62 135 L 58 133 L 56 133 L 55 132 L 50 132 L 49 131 L 47 131 L 46 132 Z M 168 72 L 168 73 L 169 73 L 177 67 L 185 63 L 206 56 L 219 55 L 220 54 L 234 54 L 235 55 L 243 55 L 244 56 L 253 57 L 265 61 L 268 63 L 270 63 L 282 69 L 294 77 L 300 82 L 316 99 L 323 109 L 327 117 L 339 117 L 338 113 L 332 101 L 319 83 L 309 73 L 289 59 L 279 54 L 277 54 L 268 50 L 265 50 L 260 48 L 256 48 L 255 47 L 249 47 L 248 46 L 225 46 L 224 47 L 214 48 L 213 49 L 210 49 L 201 52 L 186 59 Z M 312 59 L 296 46 L 283 38 L 259 28 L 235 23 L 208 23 L 188 27 L 171 33 L 159 39 L 137 54 L 122 69 L 114 79 L 104 95 L 95 117 L 128 117 L 130 110 L 139 93 L 147 81 L 161 65 L 177 52 L 187 46 L 213 36 L 224 34 L 250 34 L 261 36 L 285 44 L 302 53 L 311 60 Z"/>
  </g>
</svg>
