<?xml version="1.0" encoding="UTF-8" standalone="no"?>
<svg xmlns="http://www.w3.org/2000/svg" width="468" height="265" viewBox="0 0 468 265" version="1.1" aria-labelledby="title" role="img">
  <title>Humo Kamen</title>
  <g fill="#111111" stroke="none" fill-rule="evenodd">
    <path d="M 294 233 L 294 245 L 295 245 L 295 239 L 296 238 L 297 238 L 303 245 L 305 245 L 305 233 L 303 233 L 303 238 L 302 239 L 301 239 L 296 234 L 296 233 Z M 274 233 L 264 233 L 264 234 L 267 234 L 268 235 L 268 245 L 270 244 L 269 235 L 270 234 L 274 234 Z M 235 233 L 234 234 L 235 245 L 243 245 L 243 244 L 237 244 L 236 243 L 236 233 Z M 224 233 L 223 237 L 219 245 L 221 245 L 221 243 L 222 242 L 228 242 L 229 244 L 231 245 L 227 234 L 226 233 Z M 224 238 L 226 237 L 227 239 L 225 240 Z M 207 233 L 207 245 L 209 244 L 209 241 L 210 240 L 211 240 L 213 242 L 213 243 L 215 245 L 216 245 L 214 241 L 214 240 L 216 238 L 216 234 L 214 233 Z M 209 235 L 210 234 L 213 234 L 215 236 L 215 237 L 212 239 L 210 239 L 209 238 Z M 192 233 L 192 242 L 194 245 L 200 245 L 202 243 L 202 233 L 201 233 L 201 242 L 199 244 L 196 244 L 194 242 L 194 233 Z M 179 233 L 179 234 L 182 234 L 183 235 L 183 245 L 185 245 L 185 235 L 186 234 L 189 234 L 189 233 Z M 171 233 L 166 243 L 166 245 L 167 245 L 169 242 L 174 242 L 176 244 L 176 245 L 178 245 L 173 235 L 173 233 Z M 170 238 L 172 237 L 173 239 L 171 240 Z M 152 233 L 152 245 L 153 245 L 153 239 L 154 238 L 155 238 L 159 242 L 159 243 L 161 245 L 162 245 L 162 241 L 163 240 L 162 233 L 161 233 L 161 239 L 160 240 L 159 240 L 157 238 L 157 237 L 153 233 Z M 309 233 L 309 245 L 318 245 L 318 244 L 312 244 L 311 243 L 311 240 L 312 239 L 318 239 L 318 238 L 313 238 L 311 236 L 311 235 L 312 234 L 318 234 L 318 233 L 317 232 L 311 232 Z M 279 233 L 276 237 L 276 241 L 277 243 L 280 245 L 286 245 L 290 240 L 289 235 L 287 233 L 285 233 L 284 232 Z M 281 234 L 285 234 L 288 237 L 288 240 L 287 242 L 284 244 L 281 244 L 278 241 L 278 237 Z M 258 232 L 256 232 L 252 235 L 252 237 L 254 239 L 256 239 L 259 241 L 259 243 L 258 244 L 252 243 L 253 245 L 255 245 L 256 246 L 260 245 L 261 244 L 261 240 L 258 238 L 256 238 L 254 236 L 255 234 L 259 234 L 261 235 L 261 234 Z M 288 180 L 286 183 L 286 185 L 281 195 L 281 197 L 279 200 L 279 202 L 277 205 L 277 207 L 274 212 L 274 214 L 272 217 L 272 219 L 270 223 L 278 223 L 282 215 L 289 215 L 290 214 L 301 214 L 304 219 L 304 221 L 306 223 L 313 223 L 312 218 L 309 213 L 308 208 L 303 198 L 303 196 L 301 193 L 301 191 L 299 188 L 299 186 L 297 183 L 297 181 L 296 180 Z M 291 192 L 292 192 L 295 196 L 295 198 L 298 204 L 298 206 L 297 207 L 286 207 L 285 206 L 287 202 L 287 200 L 289 197 L 289 195 Z M 413 179 L 412 180 L 412 222 L 414 223 L 420 223 L 421 199 L 423 198 L 425 200 L 427 204 L 430 207 L 432 211 L 435 214 L 437 218 L 440 221 L 440 222 L 442 223 L 448 223 L 448 180 L 446 180 L 445 179 L 442 179 L 440 180 L 440 203 L 438 204 L 431 196 L 431 195 L 423 185 L 421 181 L 419 179 Z M 376 179 L 375 180 L 375 222 L 376 223 L 404 223 L 405 222 L 405 216 L 385 216 L 384 215 L 384 205 L 385 204 L 403 204 L 403 197 L 385 197 L 384 196 L 384 187 L 385 186 L 405 186 L 405 180 L 404 179 Z M 320 179 L 320 223 L 327 223 L 328 222 L 328 200 L 329 199 L 330 199 L 332 201 L 332 202 L 334 204 L 335 207 L 337 209 L 338 212 L 341 216 L 344 216 L 346 214 L 347 211 L 349 209 L 353 201 L 355 199 L 356 199 L 357 200 L 357 222 L 358 223 L 365 223 L 366 222 L 366 180 L 365 179 L 359 179 L 358 180 L 358 181 L 350 192 L 349 195 L 343 203 L 342 203 L 339 199 L 338 196 L 334 191 L 333 188 L 331 186 L 328 180 L 327 179 Z M 266 179 L 258 179 L 254 183 L 254 184 L 242 199 L 240 198 L 240 180 L 232 180 L 232 222 L 233 223 L 239 223 L 240 222 L 240 203 L 241 202 L 243 203 L 243 204 L 252 215 L 254 219 L 258 223 L 267 223 L 267 222 L 264 219 L 262 215 L 254 206 L 254 205 L 251 201 L 252 198 L 259 190 L 259 189 L 264 183 Z M 180 179 L 179 180 L 177 180 L 173 182 L 166 189 L 164 193 L 164 195 L 163 196 L 163 207 L 164 208 L 164 210 L 166 214 L 174 221 L 178 222 L 179 223 L 192 223 L 193 222 L 195 222 L 197 220 L 201 218 L 205 213 L 207 209 L 207 207 L 208 206 L 208 196 L 207 195 L 207 193 L 205 189 L 196 181 L 194 181 L 190 179 Z M 182 186 L 189 186 L 190 187 L 192 187 L 197 191 L 200 197 L 200 204 L 199 205 L 199 207 L 197 211 L 192 215 L 190 215 L 189 216 L 182 216 L 181 215 L 179 215 L 174 211 L 171 205 L 171 197 L 173 193 L 178 188 Z M 109 180 L 109 222 L 110 223 L 116 223 L 117 222 L 117 199 L 118 198 L 119 198 L 121 200 L 122 203 L 124 205 L 125 208 L 127 210 L 130 216 L 133 216 L 134 215 L 134 214 L 138 209 L 139 206 L 141 204 L 143 200 L 145 198 L 146 198 L 147 199 L 147 223 L 155 223 L 155 179 L 148 179 L 147 180 L 144 186 L 142 188 L 141 191 L 139 193 L 135 200 L 132 203 L 130 202 L 130 201 L 126 196 L 125 193 L 118 183 L 117 180 L 114 180 L 113 179 L 110 179 Z M 66 179 L 65 180 L 65 210 L 66 211 L 66 213 L 68 217 L 71 220 L 77 223 L 89 223 L 95 220 L 98 217 L 100 213 L 100 211 L 101 210 L 101 180 L 100 179 L 94 179 L 93 180 L 93 208 L 92 209 L 92 211 L 88 215 L 86 216 L 79 216 L 75 213 L 73 209 L 73 180 L 72 179 Z M 23 179 L 23 222 L 24 223 L 30 223 L 31 222 L 31 205 L 32 204 L 49 204 L 50 205 L 50 222 L 51 223 L 58 223 L 58 179 L 51 179 L 50 180 L 50 196 L 49 197 L 32 197 L 31 196 L 31 180 L 30 179 Z M 296 73 L 295 73 L 295 74 L 302 88 L 302 90 L 303 91 L 303 93 L 305 97 L 305 100 L 306 101 L 306 105 L 307 106 L 307 114 L 308 115 L 308 120 L 307 121 L 307 129 L 306 130 L 306 134 L 305 135 L 303 143 L 299 151 L 297 153 L 293 160 L 283 170 L 277 173 L 277 174 L 306 174 L 306 172 L 305 172 L 303 170 L 294 170 L 293 169 L 294 166 L 297 163 L 297 162 L 301 157 L 307 145 L 308 139 L 309 138 L 309 135 L 310 134 L 310 130 L 311 129 L 311 110 L 310 109 L 310 104 L 309 103 L 308 96 L 307 95 L 306 90 L 301 80 Z M 275 64 L 253 49 L 239 47 L 230 51 L 229 47 L 222 47 L 203 56 L 190 74 L 187 69 L 182 74 L 175 91 L 174 110 L 171 110 L 171 106 L 169 108 L 170 129 L 184 152 L 205 169 L 203 172 L 182 170 L 167 153 L 160 137 L 158 108 L 171 73 L 157 98 L 154 128 L 158 145 L 172 169 L 154 173 L 244 176 L 271 166 L 253 170 L 228 167 L 215 156 L 212 142 L 222 127 L 220 151 L 227 160 L 241 165 L 265 162 L 282 151 L 292 135 L 297 114 L 292 91 L 285 82 L 285 87 L 282 87 L 281 77 L 276 71 L 261 64 L 234 64 L 215 74 L 206 87 L 230 77 L 242 76 L 257 82 L 272 98 L 278 114 L 277 133 L 272 143 L 255 156 L 239 156 L 228 144 L 228 134 L 236 124 L 242 122 L 251 129 L 252 118 L 246 111 L 223 105 L 193 128 L 190 126 L 189 111 L 197 83 L 210 68 L 221 61 L 236 56 L 254 56 Z M 288 39 L 285 40 L 283 42 L 283 46 L 285 48 L 289 48 L 291 46 L 291 42 Z M 182 39 L 179 40 L 177 42 L 177 45 L 180 48 L 184 47 L 186 44 L 185 41 Z M 233 22 L 230 25 L 230 30 L 233 33 L 237 33 L 240 31 L 241 29 L 241 26 L 239 23 L 237 22 Z"/>
  </g>
</svg>
