<?xml version="1.0" encoding="UTF-8" standalone="no"?>
<svg xmlns="http://www.w3.org/2000/svg" width="389" height="150" viewBox="0 0 389 150" version="1.1" aria-labelledby="title" role="img">
  <title>Ideal Granit</title>
  <g fill="#111111" stroke="none" fill-rule="evenodd">
    <path d="M 340 88 L 340 96 L 349 96 L 350 97 L 350 122 L 351 123 L 354 123 L 355 122 L 360 122 L 360 97 L 361 96 L 370 96 L 370 88 Z M 321 88 L 321 119 L 322 120 L 322 122 L 331 122 L 331 88 Z M 280 88 L 280 122 L 290 122 L 290 109 L 291 108 L 292 108 L 294 110 L 294 111 L 302 122 L 311 122 L 311 88 L 302 88 L 301 89 L 301 101 L 300 102 L 298 101 L 294 94 L 289 88 Z M 250 88 L 247 93 L 247 95 L 244 100 L 244 102 L 242 105 L 242 107 L 239 112 L 239 114 L 237 117 L 236 122 L 245 122 L 248 117 L 260 117 L 261 118 L 262 122 L 272 122 L 271 118 L 266 108 L 266 106 L 264 103 L 264 101 L 262 98 L 262 96 L 261 95 L 261 93 L 258 88 Z M 252 104 L 253 103 L 255 103 L 256 104 L 257 108 L 256 109 L 252 109 L 251 108 Z M 197 88 L 197 122 L 206 122 L 207 121 L 207 112 L 208 111 L 209 111 L 213 115 L 217 122 L 228 122 L 226 118 L 220 111 L 220 110 L 225 106 L 227 102 L 227 97 L 225 93 L 222 90 L 218 88 Z M 207 97 L 208 96 L 214 96 L 217 99 L 217 101 L 215 103 L 211 103 L 210 104 L 208 104 L 207 103 Z M 173 87 L 171 87 L 170 88 L 165 88 L 161 90 L 155 96 L 154 100 L 153 101 L 153 110 L 154 111 L 155 115 L 160 120 L 164 122 L 166 122 L 167 123 L 174 123 L 175 122 L 178 122 L 182 120 L 185 117 L 186 117 L 187 115 L 186 113 L 186 103 L 185 102 L 180 102 L 179 101 L 179 100 L 185 94 L 185 93 L 183 91 L 177 88 L 174 88 Z M 169 96 L 173 96 L 178 100 L 178 102 L 177 103 L 171 103 L 170 104 L 170 109 L 171 110 L 176 110 L 177 111 L 177 112 L 175 114 L 168 114 L 166 113 L 163 109 L 163 101 L 167 97 Z M 295 38 L 295 72 L 320 72 L 320 64 L 306 64 L 305 63 L 305 38 Z M 264 38 L 264 40 L 262 43 L 262 45 L 259 50 L 259 52 L 256 57 L 256 59 L 252 67 L 251 72 L 260 72 L 263 66 L 274 66 L 277 72 L 287 72 L 285 68 L 285 66 L 283 63 L 283 61 L 281 58 L 281 56 L 279 53 L 279 51 L 277 48 L 277 46 L 274 41 L 274 39 L 273 38 Z M 268 52 L 270 53 L 272 57 L 271 59 L 267 59 L 266 58 L 266 56 Z M 215 38 L 215 72 L 242 72 L 242 64 L 226 64 L 225 63 L 225 60 L 226 59 L 239 59 L 240 58 L 240 51 L 226 51 L 225 50 L 225 47 L 226 46 L 242 46 L 242 39 L 241 38 Z M 174 38 L 174 72 L 192 72 L 193 71 L 195 71 L 199 69 L 202 66 L 205 60 L 205 50 L 201 43 L 200 43 L 197 40 L 195 39 L 192 39 L 191 38 Z M 185 47 L 191 47 L 195 51 L 195 59 L 191 63 L 189 63 L 188 64 L 185 64 L 184 63 L 184 48 Z M 154 38 L 153 39 L 153 72 L 163 72 L 163 39 L 162 38 Z M 56 38 L 55 39 L 49 40 L 41 44 L 39 46 L 38 46 L 31 53 L 31 54 L 27 59 L 25 63 L 25 65 L 24 66 L 24 69 L 23 70 L 23 84 L 24 85 L 25 90 L 29 98 L 32 101 L 32 102 L 40 109 L 50 114 L 53 114 L 54 115 L 71 115 L 72 114 L 78 113 L 84 110 L 86 108 L 87 108 L 96 99 L 102 88 L 102 85 L 103 84 L 103 70 L 102 69 L 101 63 L 98 57 L 95 54 L 95 53 L 85 44 L 79 41 L 77 41 L 74 39 L 71 39 L 70 38 Z M 124 22 L 123 23 L 123 131 L 142 131 L 142 23 L 141 22 Z"/>
  </g>
</svg>
