<?xml version="1.0" encoding="UTF-8" standalone="no"?>
<svg xmlns="http://www.w3.org/2000/svg" width="324" height="346" viewBox="0 0 324 346" version="1.1" aria-labelledby="title" role="img">
  <title>KS</title>
  <g fill="#111111" stroke="none" fill-rule="evenodd">
    <path d="M 222 299 L 222 304 L 221 305 L 221 308 L 220 309 L 220 317 L 222 319 L 228 319 L 229 318 L 233 317 L 236 320 L 236 325 L 239 325 L 240 323 L 240 320 L 241 319 L 241 316 L 238 314 L 238 312 L 239 311 L 239 308 L 240 307 L 240 302 L 241 301 L 241 299 L 236 299 L 236 303 L 235 304 L 234 311 L 233 313 L 229 316 L 227 316 L 225 314 L 225 309 L 226 308 L 226 303 L 227 302 L 227 299 Z M 127 299 L 127 303 L 126 304 L 126 307 L 125 308 L 125 312 L 124 313 L 124 317 L 123 319 L 128 319 L 129 317 L 129 314 L 131 310 L 132 310 L 134 312 L 134 314 L 135 315 L 136 319 L 141 319 L 140 314 L 137 308 L 143 302 L 144 299 L 140 299 L 134 306 L 132 306 L 131 305 L 133 299 Z M 70 299 L 69 301 L 68 309 L 67 310 L 67 317 L 70 319 L 76 319 L 77 318 L 79 318 L 80 319 L 84 319 L 85 318 L 86 309 L 87 308 L 87 305 L 88 304 L 88 299 L 84 299 L 83 300 L 83 305 L 82 306 L 81 312 L 76 316 L 74 316 L 72 314 L 72 310 L 73 309 L 73 305 L 74 304 L 74 299 Z M 251 299 L 248 302 L 248 304 L 252 304 L 254 302 L 259 302 L 260 303 L 260 306 L 259 307 L 251 307 L 250 308 L 248 308 L 245 312 L 245 316 L 248 319 L 254 319 L 255 318 L 257 318 L 258 319 L 262 319 L 263 318 L 263 311 L 264 310 L 264 307 L 265 306 L 265 302 L 260 298 L 254 298 L 253 299 Z M 250 314 L 250 312 L 252 310 L 258 310 L 259 311 L 259 312 L 255 316 L 252 316 Z M 212 299 L 210 298 L 207 298 L 206 299 L 197 299 L 196 307 L 195 308 L 195 312 L 194 313 L 193 321 L 192 322 L 192 325 L 191 327 L 196 327 L 197 326 L 198 318 L 199 317 L 200 317 L 202 319 L 208 319 L 210 318 L 214 314 L 216 306 L 215 305 L 215 302 Z M 208 302 L 211 306 L 210 312 L 207 315 L 203 316 L 200 313 L 200 308 L 201 307 L 201 305 L 204 302 Z M 176 299 L 172 303 L 172 304 L 177 304 L 179 302 L 183 302 L 185 304 L 185 305 L 183 307 L 175 307 L 171 309 L 169 313 L 171 318 L 173 319 L 179 319 L 180 318 L 182 318 L 183 319 L 187 319 L 188 318 L 187 315 L 188 314 L 188 311 L 189 310 L 189 307 L 190 306 L 190 302 L 187 299 L 185 299 L 184 298 L 179 298 L 178 299 Z M 183 309 L 184 311 L 181 315 L 177 316 L 175 314 L 175 312 L 177 310 Z M 164 299 L 156 298 L 155 299 L 151 300 L 147 304 L 147 306 L 146 307 L 146 315 L 147 317 L 148 317 L 150 319 L 160 319 L 165 316 L 166 312 L 164 308 L 166 306 L 167 303 Z M 151 311 L 152 310 L 159 310 L 161 312 L 161 313 L 158 316 L 154 316 L 151 314 Z M 152 305 L 155 302 L 160 302 L 161 303 L 161 306 L 160 307 L 153 307 Z M 108 300 L 104 299 L 103 298 L 99 298 L 98 299 L 94 300 L 93 303 L 97 303 L 98 302 L 103 302 L 104 303 L 104 305 L 102 307 L 98 307 L 98 310 L 101 310 L 103 312 L 103 313 L 100 316 L 97 316 L 95 314 L 90 314 L 90 316 L 94 319 L 103 319 L 105 318 L 108 314 L 108 312 L 106 309 L 106 308 L 109 305 L 109 302 Z M 304 262 L 299 262 L 298 268 L 297 269 L 297 273 L 296 274 L 296 277 L 295 278 L 295 282 L 300 282 L 300 278 L 301 277 L 301 273 L 302 272 L 302 268 L 303 267 L 303 264 Z M 275 262 L 275 264 L 274 265 L 274 269 L 273 270 L 273 273 L 272 274 L 272 277 L 271 278 L 271 282 L 287 282 L 289 281 L 292 277 L 292 273 L 289 270 L 279 270 L 278 268 L 279 267 L 279 264 L 280 262 Z M 277 278 L 277 274 L 278 273 L 285 273 L 287 275 L 285 279 L 278 279 Z M 248 262 L 248 264 L 247 265 L 247 269 L 246 270 L 246 273 L 245 274 L 245 279 L 246 281 L 249 283 L 252 283 L 258 280 L 259 282 L 261 283 L 261 288 L 264 288 L 265 287 L 265 284 L 266 283 L 266 279 L 264 278 L 264 272 L 265 271 L 265 268 L 266 267 L 266 262 L 262 262 L 261 264 L 261 268 L 260 269 L 260 273 L 258 277 L 255 279 L 252 279 L 250 277 L 250 273 L 251 272 L 251 269 L 252 268 L 252 264 L 253 262 Z M 223 262 L 222 263 L 221 271 L 220 272 L 220 280 L 224 283 L 227 283 L 231 281 L 233 282 L 237 282 L 238 276 L 239 275 L 239 271 L 240 270 L 240 267 L 241 266 L 241 262 L 237 262 L 236 263 L 236 267 L 235 268 L 234 275 L 230 279 L 226 279 L 225 278 L 225 272 L 226 271 L 226 268 L 227 267 L 227 262 Z M 197 262 L 197 265 L 196 266 L 196 270 L 195 271 L 195 274 L 194 275 L 193 282 L 198 282 L 199 275 L 201 273 L 207 273 L 208 274 L 207 282 L 212 282 L 212 278 L 213 277 L 213 274 L 214 273 L 214 269 L 215 268 L 216 262 L 211 262 L 210 268 L 208 270 L 202 270 L 201 269 L 201 265 L 202 264 L 202 262 Z M 160 262 L 160 264 L 159 265 L 159 269 L 158 270 L 158 273 L 157 274 L 157 280 L 159 282 L 161 283 L 164 283 L 169 280 L 170 280 L 174 283 L 176 283 L 180 281 L 182 282 L 186 282 L 187 281 L 187 277 L 188 276 L 188 272 L 189 271 L 190 262 L 186 262 L 185 263 L 185 267 L 184 268 L 184 272 L 183 273 L 183 275 L 182 277 L 179 279 L 177 279 L 175 277 L 175 274 L 176 273 L 176 269 L 177 268 L 177 264 L 178 262 L 173 262 L 172 264 L 172 268 L 171 269 L 170 275 L 169 277 L 166 279 L 164 279 L 162 277 L 165 262 Z M 113 262 L 112 266 L 111 267 L 111 270 L 110 271 L 110 275 L 108 278 L 105 278 L 104 279 L 104 282 L 107 283 L 108 282 L 112 281 L 114 277 L 115 270 L 117 266 L 123 266 L 124 267 L 124 270 L 123 271 L 123 274 L 122 275 L 122 279 L 121 280 L 121 282 L 126 282 L 127 280 L 127 276 L 128 275 L 128 271 L 129 270 L 130 262 Z M 149 262 L 146 262 L 145 261 L 139 263 L 134 268 L 134 270 L 133 271 L 133 277 L 137 282 L 139 282 L 140 283 L 144 283 L 145 282 L 149 281 L 151 279 L 151 277 L 148 276 L 145 279 L 141 279 L 138 276 L 138 274 L 139 273 L 152 273 L 153 272 L 153 266 L 152 264 Z M 140 267 L 143 265 L 146 265 L 149 268 L 149 269 L 148 270 L 141 270 L 140 269 Z M 99 262 L 97 262 L 96 261 L 89 262 L 87 263 L 83 267 L 83 269 L 82 270 L 82 278 L 86 282 L 88 282 L 89 283 L 93 283 L 94 282 L 98 281 L 101 278 L 103 274 L 103 266 Z M 96 265 L 99 269 L 98 271 L 98 274 L 95 278 L 93 279 L 90 279 L 87 276 L 87 271 L 88 269 L 92 265 Z M 48 262 L 48 265 L 47 266 L 47 270 L 46 271 L 46 274 L 45 275 L 44 282 L 49 282 L 49 279 L 50 278 L 50 275 L 51 274 L 51 270 L 52 268 L 56 265 L 58 265 L 60 267 L 60 269 L 59 270 L 59 274 L 58 275 L 58 278 L 57 279 L 57 282 L 62 282 L 64 270 L 65 268 L 69 265 L 71 265 L 73 267 L 72 269 L 72 273 L 71 274 L 70 282 L 75 282 L 75 277 L 76 276 L 77 268 L 78 267 L 77 264 L 75 262 L 72 261 L 66 264 L 60 261 L 56 262 L 55 263 L 53 262 Z M 40 263 L 36 262 L 35 261 L 33 261 L 32 262 L 29 262 L 27 263 L 24 266 L 22 270 L 22 278 L 24 281 L 28 283 L 32 283 L 33 282 L 35 282 L 39 279 L 40 276 L 35 276 L 32 279 L 29 279 L 27 277 L 27 270 L 28 268 L 32 265 L 35 265 L 37 267 L 37 268 L 42 268 L 42 266 Z M 283 46 L 270 34 L 238 23 L 214 22 L 190 27 L 159 27 L 83 121 L 81 27 L 33 27 L 33 239 L 81 240 L 82 190 L 117 148 L 148 218 L 169 240 L 192 249 L 225 252 L 254 248 L 279 235 L 294 217 L 302 198 L 305 182 L 302 150 L 295 134 L 280 117 L 244 101 L 301 94 L 295 69 Z M 206 167 L 207 166 L 215 167 L 216 168 L 223 169 L 227 171 L 230 171 L 234 173 L 238 178 L 238 184 L 237 186 L 233 190 L 231 191 L 228 191 L 227 192 L 218 192 L 217 191 L 213 190 L 208 185 L 207 183 L 207 180 L 206 179 Z M 178 158 L 180 157 L 183 159 L 188 160 L 191 162 L 194 162 L 198 164 L 201 164 L 202 166 L 201 167 L 198 167 L 197 168 L 183 169 L 180 165 L 180 163 L 178 160 Z M 208 88 L 212 84 L 214 83 L 227 83 L 231 85 L 233 87 L 234 91 L 235 92 L 235 98 L 236 100 L 235 101 L 233 101 L 232 100 L 228 100 L 227 99 L 222 99 L 221 98 L 217 98 L 216 97 L 214 97 L 212 96 L 208 92 Z M 205 39 L 229 38 L 253 43 L 264 49 L 273 58 L 282 77 L 281 81 L 249 85 L 243 75 L 238 71 L 227 67 L 214 67 L 202 72 L 195 80 L 193 87 L 194 98 L 203 109 L 262 124 L 273 131 L 285 147 L 289 160 L 290 179 L 284 204 L 277 215 L 267 225 L 246 234 L 212 236 L 184 230 L 173 224 L 164 215 L 154 193 L 154 190 L 157 188 L 191 183 L 195 194 L 202 202 L 214 207 L 230 207 L 245 200 L 252 188 L 252 173 L 244 162 L 235 157 L 198 148 L 179 140 L 166 128 L 159 112 L 157 90 L 165 64 L 173 54 L 184 46 Z"/>
  </g>
</svg>
