<?xml version="1.0" encoding="UTF-8" standalone="no"?>
<svg xmlns="http://www.w3.org/2000/svg" width="318" height="296" viewBox="0 0 318 296" version="1.1" aria-labelledby="title" role="img">
  <title>Kuhni Kvarc</title>
  <g fill="#111111" stroke="none" fill-rule="evenodd">
    <path d="M 22 275 L 22 276 L 81 276 L 82 277 L 88 276 L 135 276 L 136 277 L 299 276 L 299 275 L 229 275 L 228 274 L 204 274 L 203 275 L 201 274 L 179 274 L 178 275 L 141 275 L 140 274 L 134 274 L 133 275 L 107 275 L 106 274 L 97 274 L 96 275 L 93 274 Z M 246 236 L 246 264 L 251 264 L 251 256 L 252 255 L 253 255 L 255 257 L 258 264 L 264 264 L 263 261 L 261 259 L 258 253 L 258 252 L 260 251 L 263 247 L 263 242 L 262 240 L 259 237 L 257 237 L 256 236 Z M 251 242 L 252 241 L 255 241 L 258 243 L 258 245 L 256 247 L 252 247 L 251 246 Z M 224 236 L 222 239 L 222 241 L 220 244 L 220 246 L 218 249 L 218 251 L 214 259 L 213 264 L 218 264 L 221 258 L 232 258 L 234 260 L 235 264 L 240 264 L 240 262 L 236 254 L 235 249 L 232 244 L 232 242 L 229 236 Z M 226 245 L 227 245 L 229 248 L 229 250 L 230 251 L 229 253 L 224 253 L 223 252 L 225 248 L 225 246 Z M 184 236 L 184 238 L 187 244 L 189 252 L 191 255 L 193 263 L 194 264 L 199 264 L 201 261 L 201 259 L 202 258 L 202 256 L 203 255 L 205 247 L 207 244 L 209 236 L 205 236 L 202 241 L 201 246 L 199 249 L 198 254 L 197 255 L 195 254 L 195 252 L 194 251 L 194 249 L 193 248 L 193 246 L 192 245 L 192 243 L 190 240 L 189 236 Z M 160 236 L 160 264 L 165 264 L 165 254 L 166 253 L 168 254 L 172 261 L 175 264 L 180 264 L 180 262 L 177 259 L 177 258 L 174 255 L 174 254 L 171 250 L 171 247 L 178 239 L 179 236 L 174 236 L 167 244 L 165 243 L 165 236 Z M 136 236 L 136 264 L 141 264 L 141 237 L 140 236 Z M 106 236 L 106 264 L 111 264 L 111 250 L 112 249 L 113 249 L 116 252 L 116 253 L 124 264 L 129 264 L 129 236 L 124 236 L 124 251 L 123 252 L 122 252 L 120 250 L 120 249 L 118 247 L 118 246 L 111 236 Z M 78 236 L 77 237 L 77 263 L 78 264 L 83 264 L 83 253 L 84 252 L 92 252 L 93 253 L 93 264 L 99 264 L 99 237 L 98 236 L 94 236 L 93 237 L 93 246 L 92 247 L 84 247 L 83 246 L 83 236 Z M 51 236 L 51 260 L 55 264 L 57 264 L 58 265 L 63 265 L 64 264 L 66 264 L 70 260 L 70 257 L 71 256 L 71 238 L 70 236 L 66 236 L 65 237 L 65 257 L 62 260 L 59 260 L 56 257 L 56 237 L 55 236 Z M 26 236 L 25 237 L 25 264 L 30 264 L 30 257 L 32 255 L 33 255 L 35 257 L 35 258 L 40 264 L 46 264 L 46 263 L 43 260 L 43 259 L 35 249 L 35 248 L 40 243 L 44 236 L 38 236 L 38 237 L 32 244 L 30 243 L 30 236 Z M 278 236 L 274 239 L 273 239 L 270 242 L 268 246 L 268 254 L 269 255 L 269 257 L 272 261 L 280 265 L 287 265 L 288 264 L 291 264 L 293 263 L 296 260 L 296 259 L 293 256 L 292 256 L 289 259 L 287 259 L 286 260 L 281 260 L 277 258 L 275 256 L 274 252 L 273 251 L 273 249 L 274 248 L 274 246 L 278 242 L 280 241 L 287 241 L 288 242 L 290 242 L 292 244 L 294 244 L 296 242 L 296 241 L 293 238 L 289 236 L 286 236 L 285 235 L 283 235 L 282 236 Z M 248 22 L 170 120 L 184 126 L 194 135 L 228 189 L 245 205 L 253 210 L 262 213 L 298 214 L 298 212 L 284 203 L 268 187 L 231 131 L 214 117 L 214 114 L 287 22 Z M 170 22 L 92 120 L 105 125 L 118 137 L 154 192 L 167 205 L 184 213 L 218 213 L 193 190 L 154 131 L 136 116 L 141 108 L 152 96 L 210 22 Z M 28 22 L 28 23 L 35 26 L 41 32 L 44 40 L 44 196 L 40 205 L 36 209 L 27 212 L 27 214 L 94 214 L 93 212 L 85 209 L 80 204 L 77 196 L 77 40 L 81 31 L 86 26 L 93 23 L 93 22 Z"/>
  </g>
</svg>
