<?xml version="1.0" encoding="UTF-8" standalone="no"?>
<svg xmlns="http://www.w3.org/2000/svg" width="426" height="215" viewBox="0 0 426 215" version="1.1" aria-labelledby="title" role="img">
  <title>Ladi Kristal</title>
  <g fill="#111111" stroke="none" fill-rule="evenodd">
    <path d="M 359 189 L 359 190 L 402 190 L 402 189 Z M 170 189 L 168 188 L 167 189 L 149 189 L 149 190 L 170 190 Z M 143 188 L 139 189 L 138 190 L 136 190 L 136 191 L 138 190 L 141 190 L 143 189 Z M 45 189 L 43 188 L 42 189 L 24 189 L 24 190 L 45 190 Z M 351 189 L 348 186 L 347 186 L 347 188 L 346 189 L 328 189 L 328 190 L 351 190 Z M 128 157 L 123 159 L 123 160 L 121 161 L 121 162 L 122 162 L 123 160 L 128 158 Z M 357 130 L 357 131 L 362 136 L 362 182 L 359 185 L 358 185 L 358 186 L 402 186 L 402 184 L 404 183 L 404 182 L 403 182 L 402 184 L 401 184 L 399 182 L 395 174 L 395 172 L 394 172 L 394 175 L 393 177 L 388 182 L 386 183 L 383 183 L 382 184 L 375 184 L 374 183 L 371 183 L 370 182 L 370 136 L 375 131 L 375 130 Z M 306 130 L 306 131 L 310 135 L 310 137 L 308 140 L 308 142 L 305 147 L 305 149 L 303 153 L 301 154 L 299 153 L 298 151 L 296 152 L 294 156 L 294 158 L 299 160 L 300 162 L 292 179 L 286 185 L 285 185 L 285 186 L 303 186 L 304 188 L 303 189 L 286 189 L 286 190 L 308 190 L 308 189 L 304 185 L 302 185 L 300 183 L 300 182 L 302 181 L 302 175 L 303 174 L 304 168 L 305 167 L 307 167 L 313 173 L 313 174 L 315 174 L 315 173 L 322 166 L 323 166 L 325 169 L 325 171 L 329 179 L 329 182 L 326 185 L 325 185 L 325 186 L 344 186 L 344 184 L 343 183 L 340 183 L 339 182 L 339 181 L 341 180 L 341 179 L 339 180 L 337 179 L 337 176 L 339 175 L 339 174 L 335 166 L 335 163 L 336 162 L 343 162 L 343 161 L 341 159 L 341 157 L 338 157 L 337 156 L 335 151 L 334 151 L 332 153 L 330 152 L 324 136 L 322 136 L 321 135 L 324 130 Z M 298 177 L 300 176 L 301 178 L 299 179 Z M 302 169 L 303 170 L 303 172 L 302 173 L 302 175 L 300 176 L 299 175 L 299 173 L 300 172 L 300 170 Z M 301 167 L 303 166 L 304 168 L 302 169 Z M 302 164 L 304 163 L 305 165 L 303 166 Z M 332 160 L 334 159 L 335 161 L 333 162 Z M 338 159 L 340 158 L 341 160 L 339 161 Z M 327 153 L 329 152 L 330 154 L 328 155 Z M 325 148 L 327 147 L 328 149 L 326 150 Z M 312 140 L 314 141 L 314 145 L 312 146 L 312 148 L 310 151 L 310 153 L 308 156 L 308 158 L 309 158 L 309 156 L 310 155 L 310 153 L 312 150 L 313 146 L 315 145 L 316 146 L 317 151 L 319 154 L 319 156 L 321 160 L 321 161 L 316 166 L 313 167 L 311 165 L 311 164 L 313 163 L 313 162 L 312 162 L 312 163 L 310 164 L 307 161 L 307 160 L 305 159 L 306 153 L 308 150 L 308 148 Z M 322 140 L 324 139 L 325 141 L 323 142 Z M 224 130 L 227 136 L 227 138 L 229 141 L 229 143 L 230 143 L 230 140 L 231 138 L 236 134 L 237 134 L 238 136 L 236 137 L 235 139 L 234 139 L 233 142 L 234 142 L 235 139 L 238 137 L 245 137 L 246 138 L 246 182 L 243 185 L 242 185 L 242 186 L 260 186 L 261 188 L 260 189 L 243 189 L 243 190 L 264 190 L 263 187 L 258 183 L 258 138 L 259 137 L 266 137 L 266 136 L 268 135 L 270 137 L 271 140 L 273 141 L 273 139 L 276 133 L 277 132 L 279 133 L 276 140 L 277 140 L 280 133 L 278 132 L 278 130 Z M 255 136 L 255 134 L 256 133 L 263 133 L 264 134 L 263 136 L 258 136 L 257 137 Z M 238 134 L 239 133 L 245 133 L 246 135 L 245 136 L 239 136 Z M 147 130 L 147 131 L 152 136 L 152 182 L 150 183 L 148 185 L 148 186 L 166 186 L 165 184 L 162 184 L 160 182 L 160 178 L 161 177 L 163 177 L 163 171 L 161 171 L 160 170 L 160 165 L 161 164 L 163 164 L 163 162 L 161 162 L 160 161 L 160 140 L 161 139 L 163 139 L 163 138 L 161 138 L 160 136 L 164 132 L 165 132 L 166 134 L 167 134 L 167 133 L 165 132 L 165 130 Z M 22 130 L 22 131 L 24 132 L 27 136 L 27 182 L 24 184 L 23 186 L 41 186 L 40 184 L 37 184 L 35 182 L 35 169 L 39 165 L 39 164 L 45 158 L 46 158 L 58 180 L 58 182 L 55 186 L 60 186 L 61 187 L 60 189 L 56 189 L 56 190 L 82 190 L 82 189 L 78 186 L 73 184 L 70 184 L 66 180 L 58 163 L 56 161 L 51 151 L 57 143 L 66 134 L 68 134 L 69 136 L 72 135 L 71 132 L 73 131 L 73 130 L 53 130 L 53 131 L 57 134 L 57 138 L 41 157 L 40 157 L 39 156 L 39 154 L 38 154 L 38 161 L 37 162 L 35 161 L 35 136 L 38 133 L 41 135 L 42 134 L 41 130 Z M 74 187 L 76 186 L 77 188 L 75 189 Z M 62 187 L 63 186 L 72 186 L 73 188 L 72 189 L 63 189 Z M 191 129 L 183 132 L 177 139 L 176 146 L 177 147 L 177 150 L 181 156 L 180 159 L 182 161 L 187 163 L 191 163 L 192 164 L 200 165 L 205 167 L 207 167 L 207 166 L 209 165 L 210 166 L 210 169 L 213 171 L 213 177 L 209 182 L 205 184 L 198 185 L 197 184 L 189 183 L 184 178 L 184 177 L 186 176 L 185 172 L 184 172 L 185 175 L 183 176 L 181 173 L 181 171 L 180 171 L 173 185 L 177 184 L 178 186 L 175 187 L 175 188 L 179 187 L 180 184 L 183 184 L 184 185 L 183 188 L 189 189 L 190 190 L 194 190 L 195 191 L 204 191 L 205 190 L 211 189 L 211 188 L 207 189 L 206 187 L 213 184 L 216 181 L 219 176 L 219 172 L 221 171 L 222 173 L 223 173 L 223 168 L 220 170 L 219 169 L 219 165 L 215 159 L 205 154 L 194 152 L 193 150 L 190 151 L 189 150 L 190 147 L 188 145 L 188 141 L 187 141 L 188 147 L 186 148 L 184 145 L 184 139 L 185 137 L 190 133 L 191 133 L 192 136 L 193 136 L 192 134 L 193 132 L 199 132 L 201 134 L 201 136 L 204 134 L 205 135 L 205 138 L 207 138 L 209 140 L 210 143 L 214 144 L 216 139 L 214 139 L 213 137 L 216 131 L 211 132 L 210 131 L 202 130 L 201 129 Z M 193 188 L 194 187 L 205 187 L 206 189 L 205 190 L 194 190 Z M 188 187 L 189 186 L 191 186 L 192 188 L 191 189 L 189 189 Z M 184 186 L 185 185 L 187 185 L 188 187 L 187 188 L 185 188 Z M 195 162 L 196 161 L 203 162 L 205 163 L 206 165 L 204 166 L 203 165 L 196 164 Z M 190 161 L 191 160 L 194 160 L 195 162 L 194 163 L 191 163 Z M 183 159 L 184 158 L 186 158 L 187 159 L 189 159 L 190 161 L 189 162 L 187 162 L 186 161 L 184 161 Z M 88 135 L 88 136 L 92 138 L 92 159 L 91 160 L 86 160 L 86 164 L 91 164 L 92 165 L 92 182 L 90 184 L 89 184 L 88 186 L 103 186 L 104 187 L 103 189 L 90 189 L 90 190 L 111 190 L 111 189 L 108 186 L 106 185 L 103 185 L 102 184 L 102 183 L 104 182 L 104 169 L 103 169 L 103 182 L 102 183 L 100 182 L 100 163 L 101 162 L 103 162 L 104 161 L 108 161 L 109 160 L 112 160 L 113 161 L 113 164 L 115 165 L 115 167 L 118 173 L 118 176 L 120 180 L 120 183 L 121 184 L 121 187 L 122 188 L 122 192 L 124 193 L 128 191 L 130 189 L 132 189 L 136 187 L 136 186 L 135 186 L 124 174 L 117 161 L 117 159 L 118 158 L 122 157 L 127 154 L 132 148 L 132 140 L 131 138 L 126 133 L 119 130 L 114 130 L 113 129 L 101 130 L 100 131 L 97 131 L 94 133 L 92 133 Z M 104 137 L 105 136 L 114 136 L 118 138 L 121 138 L 123 141 L 123 148 L 122 150 L 118 154 L 114 156 L 105 158 L 104 157 Z M 113 134 L 115 133 L 116 135 L 114 136 Z M 112 132 L 113 133 L 112 135 L 105 135 L 103 136 L 103 158 L 101 159 L 100 158 L 100 134 L 101 133 L 104 133 L 105 132 Z M 283 46 L 282 46 L 282 57 L 281 58 L 281 62 L 277 70 L 279 69 L 280 65 L 281 64 L 281 62 L 282 61 L 282 57 L 283 56 Z M 251 28 L 249 29 L 249 34 L 250 34 L 250 30 Z M 291 23 L 291 24 L 295 28 L 295 73 L 293 75 L 292 75 L 290 77 L 290 78 L 292 79 L 292 81 L 312 81 L 311 79 L 309 80 L 307 79 L 308 76 L 306 73 L 306 38 L 304 38 L 303 37 L 304 35 L 306 35 L 306 30 L 308 28 L 308 27 L 307 27 L 306 25 L 308 23 L 308 22 Z M 303 28 L 305 27 L 306 29 L 304 30 Z M 235 22 L 235 24 L 238 27 L 238 74 L 234 77 L 233 77 L 233 78 L 238 78 L 239 79 L 239 81 L 260 81 L 260 80 L 258 80 L 257 78 L 258 77 L 262 77 L 263 76 L 265 76 L 269 74 L 274 69 L 278 62 L 278 58 L 279 57 L 279 44 L 280 43 L 282 43 L 282 41 L 281 41 L 281 42 L 279 43 L 278 42 L 278 39 L 277 37 L 278 36 L 280 36 L 280 35 L 277 36 L 274 32 L 274 31 L 269 26 L 265 24 L 263 24 L 262 23 L 257 23 L 256 22 Z M 247 25 L 256 25 L 257 26 L 257 29 L 258 29 L 258 27 L 260 26 L 261 27 L 261 30 L 264 30 L 266 32 L 268 36 L 268 38 L 269 39 L 269 43 L 270 44 L 270 55 L 269 56 L 269 61 L 268 62 L 268 64 L 266 68 L 261 73 L 257 74 L 256 75 L 251 75 L 250 74 L 250 39 L 249 39 L 249 74 L 248 75 L 246 74 L 246 26 Z M 113 23 L 117 28 L 117 73 L 112 78 L 117 78 L 118 81 L 135 81 L 136 78 L 147 78 L 148 81 L 159 81 L 162 78 L 164 79 L 164 81 L 185 81 L 182 77 L 178 75 L 178 73 L 180 72 L 180 68 L 177 67 L 179 61 L 182 62 L 182 60 L 185 58 L 191 66 L 197 60 L 203 63 L 206 70 L 206 74 L 202 78 L 204 78 L 205 81 L 215 81 L 216 78 L 218 78 L 219 81 L 228 81 L 224 77 L 219 76 L 214 69 L 211 62 L 214 59 L 211 60 L 209 56 L 213 54 L 217 54 L 217 53 L 212 53 L 210 55 L 208 53 L 218 48 L 215 48 L 213 43 L 208 46 L 204 45 L 199 31 L 202 28 L 200 29 L 198 28 L 201 22 L 185 23 L 187 26 L 186 33 L 181 45 L 178 46 L 174 44 L 172 50 L 177 53 L 177 56 L 170 71 L 165 76 L 157 80 L 150 65 L 143 73 L 139 75 L 126 75 L 125 74 L 125 28 L 130 24 L 130 22 Z M 182 55 L 183 57 L 182 58 L 182 60 L 180 61 L 179 60 L 179 58 L 180 56 Z M 190 33 L 192 34 L 192 36 L 190 37 L 190 38 L 193 38 L 194 39 L 194 41 L 196 44 L 196 46 L 198 50 L 198 53 L 194 57 L 193 57 L 192 59 L 191 59 L 183 51 L 183 47 L 184 46 L 184 44 L 187 39 L 188 35 Z"/>
  </g>
</svg>
