<?xml version="1.0" encoding="UTF-8" standalone="no"?>
<svg xmlns="http://www.w3.org/2000/svg" width="477" height="269" viewBox="0 0 477 269" version="1.1" aria-labelledby="title" role="img">
  <title>Mercury Group</title>
  <g fill="#111111" stroke="none" fill-rule="evenodd">
    <path d="M 413 249 L 418 249 L 418 247 L 419 246 L 419 242 L 420 241 L 427 241 L 428 240 L 430 240 L 434 236 L 434 232 L 431 228 L 429 228 L 428 227 L 413 227 Z M 418 231 L 419 230 L 426 230 L 429 232 L 429 235 L 425 238 L 419 238 L 418 237 Z M 380 227 L 380 244 L 382 246 L 382 247 L 386 249 L 388 249 L 389 250 L 394 250 L 395 249 L 398 249 L 400 248 L 403 245 L 404 243 L 404 227 L 399 227 L 399 242 L 396 246 L 389 246 L 385 243 L 385 227 Z M 344 233 L 344 235 L 343 236 L 343 240 L 344 241 L 344 243 L 347 247 L 351 249 L 354 249 L 355 250 L 360 250 L 361 249 L 364 249 L 368 247 L 370 245 L 372 241 L 372 235 L 370 231 L 368 229 L 364 227 L 352 227 L 348 229 Z M 352 231 L 354 230 L 361 230 L 366 234 L 367 239 L 366 240 L 366 242 L 362 246 L 354 246 L 350 243 L 349 241 L 349 235 Z M 315 227 L 315 249 L 320 249 L 320 241 L 321 240 L 324 240 L 332 249 L 337 249 L 337 248 L 331 241 L 331 240 L 336 235 L 336 232 L 335 230 L 330 227 Z M 320 231 L 321 230 L 328 230 L 331 233 L 331 234 L 328 237 L 323 238 L 320 236 Z M 281 232 L 279 238 L 280 239 L 280 242 L 281 244 L 285 248 L 287 249 L 291 249 L 292 250 L 298 250 L 299 249 L 305 248 L 305 237 L 294 237 L 294 240 L 299 240 L 300 241 L 300 245 L 299 246 L 290 246 L 288 244 L 287 244 L 285 241 L 285 235 L 287 232 L 291 230 L 300 230 L 301 231 L 303 231 L 304 230 L 304 228 L 302 228 L 301 227 L 289 227 L 288 228 L 286 228 Z M 227 227 L 227 228 L 229 229 L 229 230 L 237 240 L 237 249 L 242 249 L 243 248 L 243 239 L 249 232 L 249 231 L 252 228 L 252 227 L 247 227 L 241 235 L 239 235 L 236 232 L 236 231 L 233 228 L 233 227 Z M 199 227 L 199 249 L 204 249 L 204 241 L 205 240 L 208 240 L 216 249 L 222 249 L 222 248 L 216 242 L 216 239 L 220 236 L 220 231 L 217 228 L 215 228 L 214 227 Z M 204 231 L 205 230 L 212 230 L 215 232 L 215 234 L 213 237 L 205 237 L 204 236 Z M 165 228 L 165 231 L 166 232 L 166 244 L 169 248 L 171 249 L 174 249 L 175 250 L 180 250 L 181 249 L 184 249 L 186 248 L 189 245 L 189 243 L 190 242 L 190 228 L 189 227 L 185 227 L 185 229 L 184 230 L 184 243 L 181 246 L 174 246 L 171 243 L 171 227 L 166 227 Z M 137 231 L 135 235 L 135 241 L 136 242 L 136 244 L 140 248 L 146 249 L 147 250 L 153 250 L 154 249 L 157 249 L 158 248 L 158 245 L 156 245 L 155 246 L 146 246 L 141 242 L 141 240 L 140 239 L 140 236 L 144 231 L 146 230 L 154 230 L 155 231 L 157 231 L 158 230 L 158 228 L 156 227 L 144 227 L 143 228 L 141 228 Z M 106 227 L 106 249 L 112 249 L 112 241 L 113 240 L 117 241 L 118 243 L 123 248 L 123 249 L 129 249 L 129 248 L 124 243 L 123 241 L 123 239 L 125 238 L 128 234 L 128 232 L 124 228 L 122 227 Z M 112 231 L 113 230 L 120 230 L 122 232 L 122 235 L 120 237 L 118 237 L 117 238 L 113 238 L 112 237 Z M 79 227 L 79 249 L 98 249 L 98 246 L 85 246 L 84 245 L 84 240 L 85 239 L 96 239 L 96 236 L 85 236 L 84 235 L 84 231 L 85 230 L 97 230 L 97 227 Z M 37 227 L 37 232 L 36 233 L 36 240 L 35 241 L 35 249 L 40 249 L 40 242 L 41 241 L 41 234 L 42 233 L 44 234 L 46 238 L 46 240 L 49 245 L 50 249 L 55 249 L 57 245 L 57 243 L 59 240 L 59 238 L 61 235 L 62 235 L 64 237 L 64 244 L 65 245 L 65 249 L 70 249 L 70 247 L 69 246 L 69 239 L 68 238 L 68 230 L 67 229 L 67 227 L 60 227 L 53 241 L 51 240 L 50 236 L 47 231 L 46 227 Z M 389 94 L 392 101 L 394 103 L 405 125 L 407 127 L 410 134 L 412 136 L 415 142 L 451 142 L 452 141 L 454 141 L 454 94 Z M 276 54 L 265 72 L 262 83 L 262 141 L 270 162 L 289 183 L 306 195 L 327 202 L 446 202 L 452 197 L 454 193 L 454 149 L 337 149 L 323 145 L 319 138 L 319 80 L 326 74 L 342 72 L 457 72 L 433 22 L 326 22 L 302 32 L 288 42 Z M 156 22 L 139 78 L 138 88 L 164 172 L 166 174 L 182 120 L 184 119 L 185 120 L 185 202 L 240 202 L 240 25 L 239 22 Z M 23 22 L 23 202 L 77 202 L 78 122 L 81 125 L 105 202 L 159 202 L 104 22 Z"/>
  </g>
</svg>
