<?xml version="1.0" encoding="UTF-8" standalone="no"?>
<svg xmlns="http://www.w3.org/2000/svg" width="425" height="273" viewBox="0 0 425 273" version="1.1" aria-labelledby="title" role="img">
  <title>Mondelux</title>
  <g fill="#111111" stroke="none" fill-rule="evenodd">
    <path d="M 340 236 L 340 254 L 353 254 L 354 252 L 343 252 L 342 251 L 342 246 L 343 245 L 352 245 L 352 244 L 343 244 L 342 243 L 342 239 L 343 238 L 353 238 L 353 236 Z M 320 236 L 320 254 L 322 254 L 322 247 L 323 246 L 328 246 L 331 249 L 332 252 L 334 254 L 336 254 L 335 251 L 332 247 L 332 246 L 335 242 L 335 239 L 332 236 Z M 322 239 L 323 238 L 331 238 L 333 240 L 333 241 L 330 244 L 324 244 L 322 242 Z M 301 236 L 301 251 L 305 254 L 312 254 L 315 251 L 315 236 L 313 236 L 313 249 L 310 252 L 306 252 L 303 249 L 303 236 Z M 283 236 L 283 238 L 288 238 L 289 239 L 289 254 L 291 254 L 291 239 L 292 238 L 297 238 L 297 236 Z M 277 236 L 277 254 L 279 254 L 279 236 Z M 257 236 L 257 254 L 259 254 L 259 243 L 260 242 L 261 242 L 263 244 L 263 245 L 265 247 L 269 254 L 272 254 L 272 236 L 270 236 L 270 247 L 269 248 L 267 247 L 267 246 L 262 240 L 260 236 Z M 238 236 L 238 247 L 237 248 L 238 250 L 238 254 L 240 254 L 240 247 L 241 246 L 246 246 L 248 248 L 250 253 L 251 254 L 254 254 L 254 253 L 250 248 L 250 245 L 252 243 L 252 238 L 249 236 Z M 240 239 L 241 238 L 248 238 L 250 240 L 250 242 L 247 244 L 241 244 L 240 243 Z M 218 236 L 218 250 L 220 252 L 220 253 L 222 254 L 229 254 L 231 253 L 231 252 L 233 250 L 233 236 L 231 236 L 231 247 L 230 248 L 230 250 L 228 252 L 223 252 L 221 250 L 220 248 L 220 236 Z M 214 236 L 202 236 L 202 254 L 204 254 L 204 246 L 205 245 L 213 245 L 213 244 L 205 244 L 204 243 L 204 239 L 205 238 L 214 238 Z M 175 236 L 175 254 L 177 254 L 177 244 L 178 243 L 179 243 L 182 246 L 187 254 L 189 254 L 189 236 L 187 236 L 187 246 L 186 247 L 185 247 L 183 245 L 179 238 L 177 236 Z M 157 236 L 157 254 L 170 254 L 171 252 L 160 252 L 159 251 L 159 247 L 161 245 L 163 245 L 164 246 L 170 245 L 169 243 L 167 244 L 160 244 L 159 243 L 159 239 L 160 238 L 170 238 L 170 236 Z M 137 236 L 137 254 L 139 254 L 139 247 L 141 245 L 149 245 L 150 246 L 150 254 L 152 254 L 152 236 L 150 236 L 150 242 L 149 243 L 140 243 L 139 242 L 139 236 Z M 122 236 L 120 237 L 117 241 L 117 248 L 119 252 L 120 252 L 122 254 L 129 254 L 133 250 L 133 248 L 131 248 L 128 252 L 123 252 L 120 249 L 119 243 L 121 239 L 124 237 L 127 237 L 129 238 L 131 241 L 132 241 L 132 239 L 131 237 L 129 236 Z M 99 236 L 100 238 L 105 238 L 106 239 L 106 254 L 108 254 L 108 239 L 109 238 L 114 238 L 114 236 Z M 94 236 L 94 254 L 96 254 L 96 236 Z M 76 236 L 76 239 L 75 240 L 75 250 L 76 251 L 76 254 L 78 254 L 78 248 L 80 246 L 82 246 L 84 248 L 86 252 L 88 254 L 90 254 L 90 252 L 83 244 L 83 243 L 89 237 L 89 236 L 87 236 L 80 243 L 78 242 L 78 237 Z M 266 176 L 266 219 L 271 219 L 272 220 L 293 220 L 294 219 L 294 215 L 273 215 L 272 214 L 272 176 Z M 346 175 L 346 176 L 349 179 L 351 183 L 355 187 L 355 188 L 361 195 L 361 198 L 350 211 L 350 212 L 346 216 L 345 220 L 351 220 L 353 218 L 355 214 L 358 211 L 358 210 L 361 207 L 361 206 L 365 202 L 366 202 L 368 204 L 370 208 L 373 211 L 373 212 L 376 215 L 376 216 L 379 220 L 386 220 L 384 216 L 377 208 L 377 207 L 369 197 L 371 193 L 384 177 L 384 175 L 379 175 L 376 178 L 376 179 L 373 182 L 373 183 L 370 186 L 370 187 L 366 191 L 365 191 L 362 188 L 362 187 L 359 184 L 359 183 L 353 175 Z M 338 176 L 336 175 L 332 176 L 332 207 L 331 208 L 331 210 L 327 214 L 325 215 L 315 215 L 310 212 L 308 208 L 308 193 L 307 192 L 308 179 L 307 178 L 307 176 L 302 176 L 302 209 L 303 210 L 303 212 L 307 217 L 311 219 L 313 219 L 314 220 L 327 220 L 331 218 L 336 213 L 337 207 L 338 206 Z M 224 175 L 223 176 L 223 219 L 225 219 L 226 220 L 252 220 L 253 219 L 257 219 L 257 215 L 230 215 L 229 214 L 229 200 L 230 199 L 254 199 L 254 195 L 253 194 L 230 194 L 229 193 L 229 181 L 230 180 L 256 180 L 256 176 L 255 175 Z M 207 179 L 201 176 L 196 176 L 195 175 L 193 175 L 192 176 L 176 176 L 176 214 L 175 215 L 176 219 L 181 219 L 182 220 L 189 220 L 190 219 L 194 220 L 195 219 L 200 219 L 201 218 L 205 217 L 210 212 L 212 208 L 212 206 L 213 205 L 213 201 L 214 200 L 214 194 L 213 193 L 213 189 L 212 188 L 212 186 Z M 183 180 L 195 180 L 196 181 L 199 181 L 201 182 L 206 187 L 206 189 L 207 190 L 207 205 L 205 209 L 201 213 L 199 214 L 196 214 L 195 215 L 183 215 L 181 213 L 181 182 Z M 128 176 L 128 219 L 134 219 L 134 189 L 135 188 L 136 188 L 139 191 L 139 192 L 144 198 L 148 205 L 151 208 L 152 211 L 157 217 L 157 218 L 159 220 L 163 220 L 165 219 L 165 176 L 159 176 L 159 207 L 158 208 L 156 207 L 156 206 L 154 204 L 152 200 L 149 197 L 149 196 L 147 194 L 143 187 L 140 184 L 136 177 L 134 175 L 132 176 Z M 86 177 L 79 184 L 77 188 L 77 190 L 76 191 L 76 204 L 77 205 L 77 207 L 79 211 L 85 217 L 91 220 L 104 220 L 105 219 L 107 219 L 116 211 L 118 207 L 118 205 L 119 204 L 119 191 L 118 190 L 118 188 L 113 180 L 104 175 L 92 175 L 91 176 Z M 92 180 L 99 179 L 100 180 L 103 180 L 107 182 L 110 185 L 112 189 L 112 191 L 113 192 L 113 203 L 112 204 L 112 206 L 110 210 L 107 213 L 103 215 L 92 215 L 88 213 L 84 209 L 83 205 L 82 204 L 82 190 L 85 186 L 85 185 Z M 23 175 L 22 176 L 22 219 L 23 220 L 25 219 L 28 219 L 28 188 L 30 187 L 31 188 L 32 193 L 34 196 L 34 198 L 35 199 L 35 201 L 36 202 L 36 204 L 37 205 L 37 207 L 38 208 L 38 210 L 39 211 L 39 213 L 40 214 L 40 216 L 42 220 L 47 220 L 49 216 L 49 214 L 50 213 L 50 211 L 51 210 L 53 202 L 57 194 L 57 192 L 58 190 L 60 189 L 61 190 L 61 219 L 62 220 L 66 220 L 67 219 L 67 176 L 66 175 L 59 175 L 58 176 L 58 178 L 55 184 L 53 192 L 51 195 L 51 197 L 50 198 L 48 206 L 47 208 L 45 210 L 44 210 L 41 204 L 39 196 L 37 193 L 37 191 L 36 190 L 36 188 L 35 187 L 35 185 L 34 184 L 32 176 L 30 175 Z M 395 166 L 393 167 L 390 171 L 390 176 L 392 178 L 392 179 L 395 181 L 401 181 L 404 179 L 406 175 L 406 172 L 403 167 L 401 166 Z M 396 176 L 397 175 L 399 175 L 401 179 L 400 180 L 397 180 L 396 179 Z M 396 171 L 397 170 L 399 170 L 400 172 L 399 173 L 397 173 Z M 402 169 L 403 169 L 405 172 L 405 175 L 403 178 L 402 178 L 400 175 L 401 173 L 401 170 Z M 393 169 L 395 170 L 395 177 L 394 178 L 393 178 L 391 175 L 391 173 Z M 186 62 L 152 96 L 152 97 L 206 150 L 208 150 L 260 98 L 260 96 L 237 74 L 214 74 L 212 75 L 212 76 L 209 78 L 193 95 L 192 95 L 192 97 L 193 97 L 206 110 L 209 109 L 222 96 L 226 98 L 226 99 L 207 118 L 206 118 L 185 97 L 185 95 L 202 78 L 202 76 L 188 62 Z M 231 57 L 231 58 L 247 74 L 274 74 L 274 73 L 245 44 L 244 44 Z M 227 23 L 226 23 L 202 47 L 201 47 L 192 56 L 192 58 L 206 72 L 208 72 L 220 60 L 220 59 L 222 57 L 223 57 L 241 39 L 241 37 Z M 202 37 L 188 23 L 186 23 L 136 73 L 136 74 L 166 74 L 177 63 L 178 63 L 182 59 L 182 58 L 191 50 L 192 48 L 193 48 L 202 39 Z"/>
  </g>
</svg>
