<?xml version="1.0" encoding="UTF-8" standalone="no"?>
<svg xmlns="http://www.w3.org/2000/svg" width="596" height="139" viewBox="0 0 596 139" version="1.1" aria-labelledby="title" role="img">
  <title>Namuna</title>
  <g fill="#111111" stroke="none" fill-rule="evenodd">
    <path d="M 537 27 L 535 30 L 535 37 L 534 38 L 534 40 L 528 52 L 528 54 L 526 57 L 526 59 L 522 66 L 522 68 L 520 71 L 520 73 L 518 77 L 515 80 L 513 80 L 509 82 L 509 85 L 510 86 L 515 86 L 516 85 L 532 85 L 532 81 L 530 80 L 527 80 L 525 78 L 526 73 L 529 67 L 548 67 L 551 72 L 551 74 L 552 75 L 552 79 L 548 81 L 545 81 L 545 85 L 546 86 L 559 86 L 560 85 L 577 85 L 577 81 L 571 80 L 568 77 L 566 73 L 566 71 L 563 66 L 563 64 L 560 59 L 560 57 L 558 54 L 558 52 L 555 47 L 555 45 L 553 42 L 553 40 L 550 35 L 550 33 L 549 32 L 548 28 L 547 27 Z M 538 45 L 539 45 L 541 47 L 541 49 L 545 57 L 545 60 L 544 61 L 533 61 L 532 60 L 532 58 L 534 55 L 535 50 Z M 374 27 L 374 32 L 378 32 L 382 36 L 382 74 L 385 80 L 392 85 L 411 87 L 426 83 L 431 78 L 433 73 L 433 37 L 436 33 L 445 32 L 452 37 L 452 73 L 448 80 L 441 81 L 441 85 L 468 85 L 468 81 L 460 79 L 457 73 L 457 45 L 459 44 L 496 86 L 502 86 L 502 37 L 505 33 L 511 32 L 511 27 L 486 27 L 486 32 L 492 33 L 496 39 L 495 62 L 485 53 L 463 27 L 415 27 L 415 32 L 419 32 L 424 36 L 424 71 L 419 78 L 414 80 L 404 80 L 397 74 L 396 71 L 396 35 L 400 32 L 404 32 L 404 27 Z M 289 27 L 289 32 L 293 32 L 297 35 L 297 46 L 296 47 L 294 75 L 290 80 L 287 80 L 284 82 L 285 85 L 309 85 L 309 81 L 302 79 L 300 76 L 302 45 L 303 44 L 305 45 L 322 85 L 326 85 L 344 44 L 346 45 L 347 78 L 345 80 L 339 81 L 339 85 L 370 85 L 369 80 L 365 80 L 362 78 L 361 60 L 360 59 L 360 46 L 359 45 L 359 35 L 363 32 L 367 32 L 367 27 L 345 27 L 329 63 L 325 59 L 312 27 Z M 242 27 L 240 30 L 240 36 L 239 37 L 239 39 L 234 49 L 234 51 L 231 56 L 231 58 L 229 61 L 229 63 L 225 70 L 225 72 L 221 79 L 219 80 L 216 80 L 215 81 L 215 85 L 237 85 L 237 81 L 232 80 L 230 78 L 231 72 L 234 67 L 253 67 L 254 68 L 255 72 L 257 75 L 257 78 L 253 81 L 250 81 L 250 85 L 281 85 L 281 81 L 276 80 L 273 78 L 269 70 L 269 68 L 266 63 L 266 61 L 264 58 L 264 56 L 262 53 L 262 51 L 260 48 L 260 46 L 258 43 L 258 41 L 256 38 L 256 36 L 253 31 L 252 27 Z M 243 44 L 245 45 L 245 47 L 248 52 L 248 54 L 250 58 L 250 60 L 249 61 L 238 61 L 237 60 L 238 54 Z M 148 27 L 148 32 L 151 32 L 157 36 L 157 76 L 156 78 L 153 80 L 148 80 L 148 85 L 173 85 L 173 81 L 171 80 L 167 80 L 164 77 L 164 75 L 163 74 L 163 46 L 165 45 L 201 86 L 207 86 L 207 38 L 209 34 L 216 32 L 216 27 L 191 27 L 191 31 L 192 32 L 198 33 L 201 37 L 201 61 L 200 62 L 199 62 L 193 56 L 193 55 L 186 48 L 186 47 L 174 34 L 169 27 Z M 22 22 L 22 120 L 30 119 L 31 74 L 33 75 L 44 118 L 52 116 L 52 110 L 41 72 L 42 69 L 65 111 L 72 106 L 51 65 L 52 63 L 79 94 L 86 99 L 91 92 L 59 55 L 61 54 L 99 80 L 101 79 L 104 70 L 63 44 L 72 45 L 110 58 L 113 47 L 72 36 L 68 33 L 117 32 L 117 23 Z"/>
  </g>
</svg>
