<?xml version="1.0" encoding="UTF-8" standalone="no"?>
<svg xmlns="http://www.w3.org/2000/svg" width="387" height="317" viewBox="0 0 387 317" version="1.1" aria-labelledby="title" role="img">
  <title>ProStone</title>
  <g fill="#111111" stroke="none" fill-rule="evenodd">
    <path d="M 340 263 L 334 270 L 334 273 L 333 274 L 333 284 L 334 285 L 334 287 L 336 291 L 342 296 L 348 297 L 349 298 L 355 298 L 356 297 L 359 297 L 360 296 L 364 295 L 365 294 L 365 291 L 359 294 L 356 294 L 355 295 L 349 295 L 348 294 L 344 293 L 339 288 L 337 284 L 337 280 L 338 279 L 368 279 L 368 273 L 367 272 L 367 270 L 365 266 L 361 262 L 357 260 L 347 260 L 346 261 L 344 261 Z M 338 271 L 344 264 L 348 263 L 349 262 L 354 262 L 355 263 L 357 263 L 361 266 L 361 267 L 363 269 L 364 275 L 363 276 L 339 276 L 338 275 Z M 288 260 L 287 261 L 287 297 L 290 297 L 291 296 L 291 270 L 292 268 L 296 264 L 300 263 L 301 262 L 306 262 L 310 264 L 314 268 L 314 270 L 315 271 L 315 297 L 318 297 L 318 293 L 319 292 L 319 288 L 318 287 L 319 285 L 319 271 L 318 270 L 318 267 L 316 265 L 316 264 L 314 262 L 310 260 L 300 260 L 299 261 L 297 261 L 293 265 L 292 265 L 291 264 L 291 261 L 290 260 Z M 244 261 L 236 268 L 234 272 L 233 281 L 234 282 L 234 286 L 236 290 L 240 294 L 246 297 L 251 297 L 252 298 L 254 298 L 255 297 L 260 297 L 264 295 L 269 291 L 269 290 L 272 286 L 272 283 L 273 282 L 273 274 L 272 273 L 271 269 L 267 264 L 259 260 L 247 260 L 246 261 Z M 252 262 L 259 263 L 263 265 L 266 268 L 268 272 L 268 275 L 269 276 L 269 282 L 268 283 L 268 285 L 266 289 L 263 292 L 259 294 L 257 294 L 256 295 L 251 295 L 250 294 L 248 294 L 244 292 L 240 288 L 238 284 L 238 273 L 240 269 L 244 265 L 248 263 L 251 263 Z M 117 258 L 108 263 L 108 264 L 104 269 L 104 271 L 103 272 L 103 282 L 104 283 L 105 288 L 113 295 L 117 296 L 118 297 L 121 297 L 122 298 L 129 298 L 130 297 L 133 297 L 134 296 L 136 296 L 140 294 L 146 288 L 148 284 L 148 281 L 149 280 L 149 274 L 148 273 L 148 270 L 147 268 L 141 261 L 135 258 L 131 258 L 130 257 L 123 257 L 122 258 Z M 121 266 L 124 266 L 125 265 L 127 266 L 131 266 L 136 270 L 138 274 L 138 281 L 137 283 L 132 288 L 130 289 L 122 289 L 118 287 L 114 282 L 114 279 L 113 278 L 114 273 L 115 271 L 119 267 Z M 100 258 L 95 257 L 94 258 L 91 258 L 86 261 L 84 260 L 84 258 L 74 258 L 74 297 L 84 297 L 85 296 L 85 293 L 84 292 L 84 276 L 85 275 L 85 272 L 86 270 L 91 266 L 100 266 Z M 210 250 L 210 259 L 209 260 L 205 260 L 204 261 L 204 263 L 209 263 L 210 264 L 210 293 L 214 297 L 222 297 L 223 296 L 223 294 L 216 294 L 213 290 L 213 264 L 214 263 L 222 263 L 222 261 L 221 260 L 214 260 L 213 259 L 213 250 Z M 189 244 L 187 244 L 186 243 L 182 243 L 181 242 L 175 242 L 174 243 L 170 243 L 166 245 L 161 250 L 160 252 L 160 261 L 161 263 L 165 267 L 184 275 L 189 280 L 189 287 L 185 292 L 181 294 L 177 294 L 175 295 L 174 294 L 168 294 L 167 293 L 164 293 L 161 291 L 159 291 L 159 294 L 162 296 L 165 296 L 166 297 L 182 297 L 183 296 L 187 295 L 192 290 L 193 288 L 193 279 L 192 277 L 187 272 L 181 269 L 179 269 L 176 267 L 171 266 L 169 264 L 168 264 L 164 260 L 164 258 L 163 257 L 164 252 L 169 247 L 171 246 L 185 246 L 189 248 L 190 246 Z M 56 243 L 54 243 L 50 241 L 23 241 L 23 296 L 24 297 L 33 297 L 34 296 L 34 278 L 35 277 L 48 277 L 49 276 L 52 276 L 58 273 L 63 268 L 65 264 L 65 254 L 62 248 Z M 34 250 L 35 249 L 45 249 L 46 250 L 49 250 L 53 253 L 55 257 L 54 263 L 50 267 L 48 267 L 47 268 L 35 268 L 34 267 Z M 89 127 L 102 143 L 106 150 L 117 162 L 138 173 L 158 186 L 163 188 L 188 203 L 192 203 L 198 200 L 206 194 L 211 189 L 238 169 L 257 153 L 259 153 L 268 142 L 276 135 L 276 134 L 271 134 L 270 135 L 266 135 L 265 136 L 246 140 L 231 147 L 229 147 L 222 151 L 220 151 L 218 153 L 214 154 L 188 168 L 184 168 L 180 166 L 159 161 L 156 159 L 138 153 L 130 148 L 107 137 L 92 127 Z M 277 123 L 272 104 L 268 103 L 263 100 L 257 93 L 238 95 L 237 96 L 233 96 L 227 98 L 222 98 L 216 100 L 204 101 L 189 109 L 177 113 L 173 113 L 172 114 L 151 114 L 150 113 L 146 113 L 130 107 L 127 107 L 112 100 L 109 100 L 107 101 L 94 115 L 94 116 L 97 117 L 107 124 L 123 132 L 125 132 L 144 141 L 175 151 L 186 148 L 191 145 L 202 142 L 205 140 L 213 138 L 216 136 L 219 136 L 226 133 L 236 131 L 243 128 L 246 128 L 255 125 L 259 125 L 260 124 Z M 121 87 L 124 89 L 136 92 L 147 98 L 149 98 L 150 99 L 157 99 L 158 98 L 165 98 L 166 97 L 172 97 L 173 96 L 176 96 L 189 90 L 191 88 L 195 86 L 197 86 L 198 85 L 202 85 L 203 84 L 214 84 L 215 83 L 230 83 L 231 84 L 236 84 L 237 83 L 246 83 L 248 82 L 248 81 L 244 77 L 244 76 L 231 63 L 227 63 L 226 62 L 220 62 L 219 61 L 216 61 L 215 62 L 187 62 L 186 61 L 183 61 L 182 60 L 177 59 L 169 55 L 162 55 L 161 56 L 158 56 L 154 58 L 150 58 L 149 59 L 142 59 L 140 60 L 137 63 L 137 64 L 135 66 L 133 70 L 130 73 L 126 80 L 123 83 Z M 161 41 L 161 42 L 166 42 L 167 41 L 172 41 L 173 40 L 176 40 L 177 39 L 186 39 L 189 41 L 191 41 L 195 43 L 209 44 L 209 43 L 207 41 L 202 39 L 192 29 L 192 28 L 185 22 L 182 22 L 175 29 L 174 29 L 171 32 L 170 32 Z"/>
  </g>
</svg>
