<?xml version="1.0" encoding="UTF-8" standalone="no"?>
<svg xmlns="http://www.w3.org/2000/svg" width="351" height="329" viewBox="0 0 351 329" version="1.1" aria-labelledby="title" role="img">
  <title>Quartzstone.uz</title>
  <g fill="#111111" stroke="none" fill-rule="evenodd">
    <path d="M 280 300 L 280 306 L 284 306 L 284 300 Z M 312 273 L 312 278 L 313 279 L 321 279 L 322 280 L 322 282 L 320 284 L 318 289 L 316 291 L 314 296 L 311 300 L 311 306 L 312 307 L 320 307 L 321 306 L 324 306 L 325 307 L 330 307 L 330 301 L 319 301 L 318 300 L 320 295 L 322 293 L 328 281 L 330 279 L 330 273 Z M 289 273 L 289 300 L 292 305 L 296 307 L 301 307 L 306 304 L 307 300 L 308 299 L 308 273 L 303 273 L 303 298 L 301 301 L 296 301 L 294 298 L 294 274 L 293 273 Z M 258 273 L 257 274 L 257 306 L 258 307 L 268 307 L 269 306 L 275 306 L 276 305 L 276 302 L 275 301 L 263 301 L 262 300 L 262 293 L 263 292 L 273 292 L 274 291 L 274 287 L 273 286 L 263 286 L 262 285 L 262 280 L 264 278 L 275 278 L 275 273 Z M 233 273 L 233 305 L 235 307 L 237 307 L 238 306 L 238 291 L 240 290 L 247 304 L 247 306 L 248 307 L 251 307 L 252 306 L 252 273 L 248 273 L 248 289 L 247 290 L 245 289 L 238 273 Z M 186 273 L 185 274 L 185 278 L 186 279 L 191 279 L 192 280 L 192 306 L 197 306 L 197 280 L 198 279 L 204 278 L 204 273 Z M 144 273 L 143 274 L 143 278 L 144 279 L 152 279 L 153 280 L 153 282 L 151 284 L 149 289 L 142 299 L 142 307 L 160 307 L 161 306 L 161 301 L 150 301 L 149 300 L 149 298 L 151 294 L 153 292 L 155 287 L 159 282 L 161 278 L 161 274 L 160 273 Z M 122 273 L 122 279 L 128 279 L 129 280 L 129 306 L 133 306 L 133 280 L 134 279 L 138 279 L 140 278 L 140 273 Z M 100 273 L 99 274 L 99 306 L 100 307 L 103 307 L 104 306 L 104 293 L 105 292 L 107 292 L 111 297 L 114 305 L 116 307 L 120 307 L 120 304 L 114 293 L 114 292 L 118 288 L 118 286 L 119 285 L 119 279 L 117 275 L 114 273 Z M 104 280 L 105 279 L 112 279 L 114 281 L 114 285 L 112 287 L 105 287 L 104 286 Z M 82 273 L 81 275 L 81 278 L 80 279 L 80 282 L 78 286 L 78 289 L 76 293 L 76 296 L 75 297 L 75 300 L 74 301 L 73 307 L 77 307 L 78 306 L 79 300 L 80 299 L 89 299 L 91 303 L 91 306 L 92 307 L 96 307 L 96 303 L 95 302 L 95 300 L 93 296 L 93 293 L 92 292 L 92 289 L 91 288 L 91 286 L 89 282 L 88 275 L 87 273 Z M 84 284 L 86 285 L 86 287 L 87 288 L 87 292 L 86 293 L 83 293 L 82 292 L 82 288 Z M 51 273 L 51 298 L 52 299 L 52 302 L 54 304 L 54 305 L 58 307 L 63 307 L 64 306 L 66 306 L 68 304 L 69 300 L 70 299 L 70 273 L 66 273 L 65 274 L 65 299 L 63 301 L 58 301 L 56 298 L 56 274 L 55 273 Z M 217 272 L 216 273 L 212 274 L 209 277 L 207 281 L 207 285 L 206 286 L 206 293 L 207 294 L 207 298 L 208 299 L 208 301 L 213 306 L 215 307 L 221 307 L 223 306 L 228 300 L 228 297 L 229 296 L 229 283 L 228 282 L 227 278 L 222 273 L 219 273 Z M 216 278 L 219 278 L 221 279 L 223 281 L 223 283 L 224 284 L 224 296 L 220 301 L 215 301 L 213 299 L 211 295 L 211 285 L 212 284 L 212 282 Z M 172 272 L 171 273 L 169 273 L 165 277 L 165 279 L 164 280 L 164 284 L 165 285 L 165 287 L 168 290 L 174 293 L 176 293 L 178 295 L 178 299 L 176 301 L 173 302 L 169 299 L 167 295 L 163 296 L 163 297 L 164 298 L 164 301 L 165 303 L 168 306 L 170 307 L 176 307 L 180 305 L 182 302 L 182 299 L 183 298 L 182 291 L 178 287 L 176 287 L 175 286 L 171 285 L 169 283 L 169 280 L 171 278 L 175 278 L 177 280 L 177 282 L 178 283 L 181 283 L 182 282 L 182 279 L 180 275 L 179 275 L 177 273 L 174 273 Z M 31 273 L 27 277 L 25 281 L 25 285 L 24 286 L 24 294 L 25 295 L 26 301 L 27 303 L 32 307 L 39 307 L 40 306 L 42 306 L 45 309 L 47 309 L 48 305 L 45 302 L 46 296 L 47 295 L 47 284 L 46 283 L 46 280 L 45 278 L 40 273 L 38 273 L 37 272 Z M 37 278 L 41 281 L 41 283 L 42 284 L 42 296 L 41 297 L 39 297 L 37 295 L 36 295 L 35 300 L 33 301 L 29 296 L 29 284 L 32 279 L 34 278 Z M 140 23 L 30 132 L 22 142 L 140 261 L 142 261 L 176 226 L 178 226 L 214 262 L 332 142 L 214 23 L 212 23 L 178 58 L 142 23 Z M 105 155 L 107 155 L 164 212 L 164 214 L 142 237 L 139 236 L 136 233 L 136 232 L 104 200 L 104 199 L 102 197 L 101 197 L 100 195 L 98 194 L 92 188 L 92 187 L 83 178 L 83 177 Z M 285 119 L 308 142 L 308 143 L 303 148 L 303 149 L 301 150 L 295 156 L 295 157 L 293 159 L 292 159 L 281 170 L 281 171 L 269 183 L 268 183 L 265 186 L 265 187 L 259 193 L 258 193 L 253 198 L 253 199 L 215 237 L 213 237 L 190 214 L 190 213 L 193 210 L 193 209 L 196 206 L 197 206 L 199 204 L 199 203 L 283 119 Z M 176 83 L 178 83 L 236 141 L 236 142 L 178 200 L 176 200 L 119 143 L 119 141 L 165 95 L 165 94 Z M 213 47 L 214 47 L 257 90 L 257 91 L 271 105 L 271 106 L 249 128 L 247 128 L 190 71 L 190 70 Z M 142 47 L 164 69 L 164 71 L 151 84 L 151 85 L 71 165 L 69 165 L 46 142 L 46 141 L 140 47 Z"/>
  </g>
</svg>
