<?xml version="1.0" encoding="UTF-8" standalone="no"?>
<svg xmlns="http://www.w3.org/2000/svg" width="445" height="189" viewBox="0 0 445 189" version="1.1" aria-labelledby="title" role="img">
  <title>Real Stone</title>
  <g fill="#111111" stroke="none" fill-rule="evenodd">
    <path d="M 303 137 L 303 169 L 347 169 L 347 166 L 312 166 L 311 165 L 311 155 L 312 154 L 343 154 L 343 150 L 312 150 L 311 149 L 311 141 L 312 140 L 345 140 L 346 139 L 346 137 L 345 136 L 304 136 Z M 242 137 L 242 163 L 241 164 L 242 166 L 242 169 L 248 169 L 249 168 L 249 146 L 250 145 L 252 145 L 257 150 L 258 150 L 261 153 L 262 153 L 279 168 L 281 169 L 288 169 L 289 168 L 289 166 L 288 165 L 288 145 L 289 144 L 289 142 L 288 141 L 288 137 L 281 137 L 281 159 L 280 160 L 278 160 L 274 156 L 273 156 L 269 152 L 268 152 L 249 136 L 243 136 Z M 173 150 L 173 155 L 174 156 L 174 158 L 178 163 L 185 167 L 191 168 L 192 169 L 197 169 L 198 170 L 206 170 L 207 169 L 212 169 L 213 168 L 216 168 L 224 164 L 230 157 L 230 149 L 228 145 L 224 141 L 218 138 L 216 138 L 215 137 L 211 137 L 210 136 L 194 136 L 193 137 L 189 137 L 188 138 L 183 139 L 176 144 Z M 181 150 L 182 149 L 182 147 L 187 142 L 189 141 L 195 140 L 196 139 L 207 139 L 208 140 L 212 140 L 218 143 L 222 148 L 223 154 L 222 155 L 221 159 L 217 163 L 215 164 L 213 164 L 212 165 L 208 165 L 207 166 L 196 166 L 195 165 L 192 165 L 191 164 L 187 163 L 182 158 L 181 156 Z M 122 136 L 122 140 L 141 140 L 142 141 L 142 169 L 149 169 L 149 141 L 150 140 L 168 140 L 169 139 L 169 136 Z M 71 143 L 71 146 L 72 148 L 74 150 L 78 152 L 81 152 L 82 153 L 87 153 L 88 154 L 94 154 L 95 155 L 101 155 L 102 156 L 106 157 L 108 159 L 108 161 L 104 165 L 101 165 L 100 166 L 87 166 L 86 165 L 80 164 L 76 160 L 75 158 L 69 158 L 69 161 L 70 163 L 75 167 L 81 168 L 82 169 L 90 169 L 91 170 L 104 169 L 105 168 L 110 167 L 112 165 L 113 165 L 116 161 L 115 157 L 113 155 L 109 153 L 103 152 L 102 151 L 96 151 L 95 150 L 88 150 L 87 149 L 83 149 L 78 145 L 80 141 L 82 140 L 85 140 L 86 139 L 97 139 L 98 140 L 101 140 L 103 141 L 106 144 L 106 145 L 114 145 L 112 141 L 108 138 L 102 137 L 101 136 L 83 136 L 82 137 L 79 137 L 75 139 Z M 22 23 L 22 120 L 41 120 L 41 82 L 42 81 L 60 81 L 65 83 L 69 87 L 92 120 L 114 120 L 91 86 L 84 80 L 85 77 L 90 76 L 96 73 L 104 65 L 106 61 L 106 58 L 107 57 L 107 44 L 104 36 L 97 29 L 91 26 L 85 25 L 84 24 L 80 24 L 79 23 Z M 41 36 L 42 35 L 74 35 L 75 36 L 78 36 L 80 37 L 86 43 L 86 45 L 87 46 L 87 56 L 86 57 L 85 61 L 80 66 L 76 67 L 75 68 L 68 68 L 67 69 L 42 69 L 41 68 Z M 353 22 L 353 120 L 426 120 L 426 108 L 373 108 L 372 107 L 372 23 L 355 23 Z M 292 23 L 289 23 L 288 22 L 281 22 L 280 23 L 268 23 L 268 25 L 266 28 L 264 35 L 260 42 L 260 44 L 257 49 L 255 56 L 251 63 L 251 65 L 249 68 L 249 70 L 247 73 L 245 80 L 242 85 L 241 90 L 238 95 L 238 97 L 235 102 L 235 104 L 233 107 L 233 109 L 228 120 L 248 120 L 251 114 L 254 103 L 258 95 L 302 95 L 305 99 L 305 101 L 308 107 L 309 112 L 311 115 L 312 120 L 333 120 L 331 116 L 330 111 L 328 108 L 328 106 L 326 103 L 326 101 L 323 96 L 323 94 L 317 81 L 317 79 L 313 72 L 311 65 L 307 58 L 307 56 L 304 51 L 304 49 L 301 44 L 301 42 Z M 280 38 L 282 39 L 283 44 L 288 54 L 288 56 L 292 64 L 293 69 L 297 77 L 297 79 L 298 80 L 298 82 L 297 83 L 264 83 L 263 82 L 263 79 L 265 76 L 265 74 L 267 71 L 268 66 L 270 63 L 270 61 L 274 53 L 274 51 L 277 45 L 278 40 Z M 212 23 L 207 22 L 204 23 L 136 23 L 136 120 L 214 120 L 214 108 L 156 108 L 155 107 L 155 79 L 156 78 L 206 78 L 206 66 L 156 65 L 155 64 L 155 36 L 156 35 L 212 35 Z"/>
  </g>
</svg>
