<?xml version="1.0" encoding="UTF-8" standalone="no"?>
<svg xmlns="http://www.w3.org/2000/svg" width="452" height="312" viewBox="0 0 452 312" version="1.1" aria-labelledby="title" role="img">
  <title>Sang</title>
  <g fill="#111111" stroke="none" fill-rule="evenodd">
    <path d="M 281 266 L 278 270 L 278 276 L 279 278 L 283 281 L 283 283 L 277 291 L 277 293 L 280 293 L 280 292 L 287 282 L 291 282 L 292 283 L 292 292 L 293 293 L 295 293 L 295 265 L 284 265 L 283 266 Z M 285 267 L 291 267 L 292 268 L 292 279 L 291 280 L 287 280 L 286 279 L 284 279 L 281 275 L 281 271 Z M 250 265 L 250 293 L 253 293 L 253 280 L 254 279 L 265 279 L 266 280 L 266 293 L 269 293 L 269 265 L 266 265 L 266 276 L 265 277 L 254 277 L 253 276 L 253 265 Z M 214 265 L 214 271 L 213 272 L 213 293 L 215 293 L 215 282 L 216 281 L 216 277 L 217 276 L 218 276 L 220 279 L 220 281 L 222 284 L 222 286 L 224 289 L 224 291 L 225 292 L 227 292 L 229 289 L 229 287 L 231 284 L 231 282 L 235 274 L 237 275 L 237 287 L 238 288 L 238 293 L 241 292 L 241 286 L 240 285 L 240 265 L 236 265 L 235 269 L 230 279 L 230 281 L 227 285 L 226 285 L 224 282 L 224 280 L 222 277 L 222 275 L 220 272 L 220 270 L 218 267 L 218 265 Z M 194 265 L 193 269 L 191 272 L 190 277 L 188 280 L 186 288 L 185 289 L 185 293 L 187 292 L 188 288 L 190 285 L 200 285 L 202 288 L 203 292 L 204 293 L 206 293 L 206 289 L 205 288 L 203 280 L 201 277 L 201 275 L 200 274 L 198 266 L 197 265 Z M 194 272 L 196 272 L 197 273 L 197 275 L 199 279 L 199 282 L 198 283 L 192 283 L 191 282 L 191 279 L 192 278 L 192 276 Z M 161 265 L 160 266 L 160 292 L 161 293 L 163 293 L 164 292 L 164 281 L 165 280 L 167 280 L 169 282 L 173 289 L 177 293 L 180 293 L 180 292 L 177 289 L 177 288 L 170 278 L 171 275 L 176 269 L 178 265 L 176 265 L 173 268 L 173 269 L 170 272 L 170 273 L 166 277 L 164 276 L 164 265 Z M 375 221 L 371 223 L 369 225 L 367 229 L 367 233 L 366 234 L 366 236 L 367 237 L 367 241 L 369 245 L 372 248 L 374 249 L 383 249 L 385 248 L 389 244 L 389 242 L 390 241 L 390 237 L 391 236 L 391 234 L 390 233 L 390 229 L 389 228 L 389 226 L 386 223 L 382 221 Z M 376 223 L 381 223 L 383 224 L 385 226 L 386 230 L 387 231 L 387 240 L 386 241 L 386 243 L 382 247 L 376 247 L 374 246 L 372 244 L 371 240 L 370 239 L 370 231 L 371 230 L 371 228 Z M 363 221 L 349 221 L 349 249 L 352 249 L 352 224 L 353 223 L 363 223 Z M 325 221 L 323 222 L 319 226 L 318 228 L 318 230 L 317 231 L 317 240 L 318 241 L 319 245 L 322 248 L 324 249 L 333 249 L 337 247 L 340 243 L 340 241 L 341 240 L 341 231 L 340 230 L 339 226 L 335 222 L 333 221 Z M 327 223 L 332 223 L 336 227 L 337 229 L 337 242 L 336 244 L 332 247 L 326 247 L 324 246 L 322 244 L 321 242 L 321 239 L 320 238 L 320 233 L 321 232 L 321 229 L 322 227 Z M 294 221 L 293 222 L 293 249 L 306 249 L 311 245 L 311 238 L 308 235 L 308 232 L 310 229 L 309 224 L 304 221 Z M 298 235 L 302 235 L 303 236 L 305 236 L 307 238 L 308 240 L 308 243 L 306 246 L 304 247 L 298 247 L 296 245 L 296 237 Z M 297 224 L 298 223 L 303 223 L 306 226 L 306 231 L 302 234 L 298 234 L 297 233 Z M 270 221 L 269 222 L 269 248 L 270 249 L 285 249 L 285 247 L 273 247 L 272 246 L 272 237 L 273 236 L 282 236 L 282 234 L 274 234 L 272 232 L 272 224 L 273 223 L 285 223 L 285 221 Z M 240 221 L 240 249 L 258 249 L 259 250 L 259 255 L 261 256 L 262 255 L 262 247 L 260 247 L 259 246 L 259 222 L 258 221 L 256 221 L 256 246 L 255 247 L 244 247 L 243 246 L 243 221 Z M 226 221 L 216 221 L 215 222 L 215 249 L 218 249 L 219 248 L 219 240 L 220 239 L 228 238 L 230 237 L 232 234 L 232 232 L 233 231 L 232 226 L 230 223 Z M 220 223 L 224 223 L 229 227 L 229 233 L 225 237 L 220 237 L 219 236 L 219 224 Z M 196 221 L 194 224 L 194 226 L 193 227 L 191 235 L 189 238 L 189 240 L 188 241 L 186 249 L 188 249 L 190 245 L 190 243 L 192 241 L 201 241 L 203 243 L 204 248 L 205 249 L 208 249 L 208 247 L 207 246 L 207 244 L 206 243 L 206 241 L 205 240 L 203 232 L 201 229 L 200 224 L 198 221 Z M 196 227 L 198 228 L 198 230 L 199 231 L 199 233 L 201 237 L 200 239 L 193 239 L 192 238 L 192 236 L 194 233 L 194 231 Z M 163 221 L 163 224 L 162 225 L 162 232 L 163 233 L 163 249 L 175 249 L 177 248 L 181 243 L 181 240 L 177 235 L 177 233 L 179 230 L 179 226 L 176 222 L 174 222 L 173 221 Z M 166 236 L 167 235 L 172 235 L 174 236 L 177 239 L 177 244 L 174 247 L 167 247 L 166 246 Z M 166 224 L 167 223 L 172 223 L 175 226 L 175 231 L 171 234 L 167 234 L 166 233 Z M 137 221 L 136 222 L 136 249 L 139 249 L 140 248 L 140 237 L 141 236 L 143 236 L 144 237 L 145 240 L 147 242 L 149 246 L 152 249 L 156 249 L 156 248 L 152 244 L 150 240 L 145 234 L 145 233 L 148 230 L 148 229 L 152 225 L 154 221 L 152 221 L 148 225 L 148 226 L 142 233 L 140 232 L 140 222 L 139 221 Z M 102 221 L 98 223 L 98 224 L 100 225 L 103 223 L 108 223 L 111 227 L 110 231 L 108 233 L 102 234 L 102 235 L 106 235 L 107 236 L 109 236 L 111 238 L 112 242 L 108 247 L 101 247 L 99 245 L 97 245 L 97 247 L 98 247 L 100 249 L 110 249 L 112 247 L 113 247 L 115 243 L 115 239 L 111 234 L 111 233 L 114 229 L 114 226 L 113 224 L 109 221 Z M 70 221 L 70 236 L 69 237 L 70 239 L 70 246 L 69 248 L 70 249 L 72 249 L 74 247 L 79 237 L 81 235 L 83 231 L 85 230 L 86 231 L 86 249 L 89 249 L 89 221 L 87 221 L 86 222 L 83 228 L 81 230 L 80 233 L 75 240 L 73 239 L 73 222 L 72 221 Z M 308 178 L 304 180 L 302 182 L 302 184 L 301 185 L 302 191 L 307 195 L 304 201 L 302 203 L 301 206 L 304 206 L 305 205 L 306 202 L 311 195 L 314 195 L 316 197 L 316 206 L 319 206 L 319 179 L 318 178 Z M 307 181 L 309 181 L 310 180 L 314 180 L 316 182 L 316 192 L 315 193 L 309 193 L 305 190 L 305 183 Z M 273 178 L 273 206 L 276 206 L 277 203 L 279 201 L 280 198 L 282 196 L 284 191 L 286 189 L 288 185 L 290 186 L 290 206 L 293 206 L 293 179 L 292 178 L 290 178 L 289 179 L 288 182 L 281 192 L 280 195 L 278 197 L 277 197 L 276 196 L 276 178 Z M 248 178 L 247 179 L 247 192 L 246 193 L 246 199 L 245 200 L 245 202 L 243 204 L 241 204 L 241 206 L 245 206 L 248 202 L 248 196 L 249 195 L 249 182 L 251 180 L 259 180 L 260 181 L 260 206 L 263 206 L 263 179 L 262 178 Z M 221 178 L 220 179 L 220 205 L 221 206 L 236 206 L 236 204 L 225 204 L 224 203 L 224 194 L 225 193 L 234 193 L 234 191 L 225 191 L 224 190 L 224 181 L 225 180 L 236 180 L 236 179 L 235 178 Z M 195 178 L 194 179 L 194 191 L 193 192 L 193 198 L 192 199 L 192 202 L 190 204 L 188 204 L 188 213 L 190 213 L 191 212 L 191 207 L 192 206 L 209 206 L 210 207 L 210 212 L 212 213 L 213 212 L 213 204 L 211 204 L 210 203 L 210 189 L 209 188 L 210 183 L 209 182 L 209 178 Z M 198 180 L 205 180 L 206 181 L 206 203 L 205 204 L 195 204 L 194 203 L 195 201 L 195 198 L 196 197 L 196 188 L 197 187 L 197 181 Z M 170 178 L 167 180 L 167 182 L 171 180 L 176 180 L 179 183 L 179 187 L 176 190 L 174 191 L 171 191 L 171 192 L 177 193 L 180 196 L 180 200 L 177 204 L 170 204 L 167 202 L 166 202 L 166 204 L 169 206 L 179 206 L 183 202 L 183 200 L 184 199 L 183 195 L 180 192 L 180 190 L 182 188 L 182 182 L 178 178 Z M 138 178 L 138 206 L 141 206 L 141 205 L 143 203 L 144 200 L 146 198 L 147 195 L 149 193 L 152 187 L 154 188 L 154 205 L 155 206 L 157 206 L 158 205 L 158 179 L 157 178 L 155 178 L 154 179 L 153 182 L 151 184 L 150 187 L 148 189 L 144 197 L 142 198 L 141 197 L 141 179 L 140 178 Z M 230 24 L 230 143 L 239 143 L 240 43 L 249 54 L 303 142 L 315 143 L 315 24 L 307 24 L 306 120 L 301 115 L 244 24 Z M 152 24 L 148 36 L 146 39 L 143 50 L 141 53 L 138 64 L 136 67 L 133 78 L 131 81 L 122 109 L 120 112 L 120 115 L 116 124 L 114 132 L 112 135 L 112 138 L 110 143 L 119 143 L 121 135 L 123 132 L 131 108 L 181 108 L 184 117 L 186 120 L 193 142 L 194 143 L 207 143 L 205 135 L 199 121 L 196 110 L 194 107 L 188 87 L 183 76 L 180 65 L 178 62 L 165 24 Z M 156 39 L 158 40 L 160 48 L 162 51 L 164 59 L 166 62 L 166 64 L 167 65 L 167 67 L 168 68 L 168 70 L 169 71 L 169 73 L 170 74 L 170 76 L 171 77 L 171 79 L 172 80 L 172 82 L 173 83 L 175 91 L 177 94 L 177 97 L 178 98 L 177 100 L 135 100 L 134 99 L 135 95 L 136 94 L 136 92 L 137 91 L 137 89 L 139 86 L 139 84 L 140 83 L 140 81 L 141 80 L 141 78 L 142 77 L 142 75 L 143 74 L 143 72 L 144 71 L 144 69 L 145 68 L 145 66 L 146 65 L 148 57 L 150 54 L 150 52 L 151 51 L 153 43 Z M 371 27 L 364 31 L 354 41 L 349 49 L 344 63 L 342 75 L 342 95 L 345 111 L 351 124 L 362 136 L 370 141 L 380 144 L 393 145 L 404 143 L 413 139 L 421 132 L 424 134 L 426 142 L 432 143 L 432 83 L 397 83 L 398 90 L 422 91 L 422 120 L 420 124 L 410 133 L 398 137 L 383 136 L 373 131 L 362 119 L 356 101 L 355 77 L 357 63 L 360 54 L 366 44 L 378 34 L 390 30 L 409 31 L 421 36 L 424 39 L 429 34 L 428 32 L 417 26 L 401 22 L 388 22 Z M 68 22 L 53 23 L 41 29 L 33 38 L 29 50 L 29 60 L 31 67 L 34 72 L 43 80 L 73 94 L 80 101 L 82 106 L 82 119 L 78 128 L 71 134 L 63 137 L 49 137 L 42 135 L 36 132 L 26 123 L 23 130 L 33 139 L 46 144 L 61 145 L 71 143 L 80 139 L 90 130 L 95 118 L 95 104 L 91 94 L 80 84 L 50 70 L 45 65 L 41 57 L 41 47 L 44 40 L 48 35 L 58 30 L 70 30 L 79 33 L 85 38 L 90 33 L 86 29 L 76 24 Z"/>
  </g>
</svg>
