<?xml version="1.0" encoding="UTF-8" standalone="no"?>
<svg xmlns="http://www.w3.org/2000/svg" width="446" height="286" viewBox="0 0 446 286" version="1.1" aria-labelledby="title" role="img">
  <title>Special Stoneza</title>
  <g fill="#111111" stroke="none" fill-rule="evenodd">
    <path d="M 151 203 L 163 262 L 166 265 L 170 266 L 184 265 L 192 258 L 198 257 L 205 261 L 223 266 L 245 266 L 260 262 L 274 254 L 287 241 L 293 230 L 297 212 L 296 195 L 292 180 L 205 180 L 207 185 L 232 216 L 238 225 L 241 233 L 241 238 L 236 245 L 232 247 L 221 247 L 212 243 L 202 234 L 192 220 L 182 201 L 179 198 L 175 197 L 154 198 Z M 205 170 L 209 171 L 210 172 L 239 172 L 240 171 L 254 171 L 258 168 L 258 166 L 257 165 L 233 165 L 232 166 L 216 166 L 215 165 L 210 165 L 209 166 L 207 166 L 205 168 Z M 284 159 L 287 162 L 291 162 L 300 157 L 305 162 L 310 162 L 317 158 L 324 157 L 326 161 L 329 161 L 336 154 L 338 154 L 339 155 L 338 159 L 340 162 L 347 161 L 351 158 L 357 162 L 363 162 L 374 156 L 376 161 L 384 160 L 391 163 L 395 159 L 395 157 L 390 156 L 387 153 L 398 147 L 400 147 L 401 149 L 398 154 L 398 158 L 401 161 L 405 161 L 409 158 L 411 158 L 415 162 L 419 162 L 423 160 L 426 156 L 426 154 L 424 154 L 422 156 L 419 155 L 426 144 L 426 142 L 419 139 L 415 139 L 405 144 L 403 138 L 388 139 L 373 153 L 365 157 L 360 157 L 359 156 L 360 153 L 368 152 L 375 146 L 375 142 L 373 140 L 365 140 L 361 142 L 353 150 L 353 152 L 350 155 L 347 156 L 346 155 L 347 152 L 354 144 L 353 141 L 348 141 L 344 144 L 342 144 L 340 141 L 335 141 L 328 150 L 325 152 L 324 151 L 326 147 L 325 141 L 321 139 L 312 141 L 311 137 L 308 136 L 311 130 L 307 129 L 303 131 L 298 136 L 292 136 L 290 138 L 291 144 L 285 150 Z M 313 148 L 314 149 L 313 151 L 314 155 L 312 157 L 308 157 L 307 156 L 308 152 L 312 148 Z M 383 149 L 383 148 L 386 146 L 388 147 L 388 148 L 385 150 Z M 415 145 L 416 146 L 416 148 L 412 152 L 411 152 L 408 155 L 407 155 L 406 154 L 406 152 L 412 146 Z M 365 146 L 367 145 L 368 147 L 366 148 Z M 309 142 L 309 143 L 307 144 L 303 148 L 301 152 L 294 156 L 292 156 L 291 155 L 293 150 L 301 141 L 308 141 Z M 164 130 L 163 129 L 160 129 L 158 130 L 156 132 L 155 132 L 153 136 L 155 138 L 158 138 L 160 137 L 164 133 Z M 218 121 L 216 119 L 211 119 L 202 124 L 191 135 L 180 152 L 175 156 L 173 155 L 173 153 L 180 144 L 180 142 L 175 141 L 173 139 L 168 139 L 162 142 L 147 156 L 144 156 L 143 154 L 153 143 L 153 141 L 151 140 L 147 141 L 136 152 L 127 157 L 122 157 L 121 152 L 128 145 L 130 146 L 130 150 L 134 149 L 137 146 L 137 142 L 135 140 L 125 141 L 120 144 L 109 155 L 105 157 L 100 157 L 98 155 L 99 153 L 107 152 L 114 146 L 113 141 L 104 140 L 94 147 L 91 141 L 85 141 L 81 143 L 80 141 L 82 137 L 77 136 L 61 150 L 61 152 L 63 153 L 62 156 L 46 175 L 46 179 L 51 180 L 58 169 L 67 159 L 72 162 L 80 162 L 91 158 L 96 162 L 102 162 L 113 156 L 114 159 L 118 162 L 124 162 L 133 157 L 135 157 L 140 162 L 143 162 L 150 158 L 152 158 L 155 161 L 159 161 L 163 158 L 165 158 L 169 162 L 172 162 L 178 158 L 184 162 L 190 161 L 199 154 L 199 151 L 191 156 L 188 156 L 188 150 L 210 134 L 215 129 Z M 91 151 L 92 153 L 89 156 L 88 156 L 87 154 L 90 151 Z M 85 147 L 85 149 L 79 155 L 77 156 L 73 156 L 72 155 L 72 154 L 79 148 L 83 146 Z M 172 145 L 172 146 L 170 148 L 169 148 L 169 149 L 165 153 L 164 153 L 162 155 L 160 155 L 159 154 L 160 151 L 164 147 L 170 144 Z M 107 144 L 108 146 L 106 148 L 103 149 L 102 147 L 106 144 Z M 209 126 L 210 128 L 204 134 L 203 134 L 202 132 L 208 126 Z M 298 121 L 296 119 L 290 118 L 289 119 L 285 119 L 284 120 L 281 120 L 280 121 L 275 122 L 267 126 L 264 129 L 263 129 L 263 130 L 260 133 L 259 135 L 259 138 L 260 140 L 265 145 L 268 146 L 272 149 L 272 152 L 270 154 L 266 156 L 255 156 L 251 153 L 251 152 L 255 148 L 255 146 L 251 146 L 249 148 L 248 148 L 245 152 L 245 157 L 248 160 L 252 161 L 253 162 L 267 162 L 268 161 L 273 160 L 275 158 L 276 158 L 279 155 L 279 149 L 276 145 L 275 145 L 272 142 L 269 141 L 265 137 L 265 136 L 269 132 L 281 126 L 283 126 L 287 124 L 290 124 L 291 126 L 288 129 L 287 129 L 283 132 L 280 132 L 277 134 L 276 138 L 277 139 L 281 139 L 285 137 L 290 133 L 291 133 L 297 127 L 298 125 Z M 78 120 L 75 118 L 67 118 L 66 119 L 63 119 L 62 120 L 59 120 L 56 122 L 54 122 L 43 128 L 38 135 L 38 138 L 39 140 L 44 145 L 47 146 L 51 150 L 51 152 L 49 154 L 45 155 L 44 156 L 33 156 L 30 154 L 30 152 L 33 149 L 33 146 L 30 146 L 28 147 L 23 152 L 22 154 L 23 157 L 26 160 L 30 161 L 31 162 L 45 162 L 46 161 L 49 161 L 53 159 L 58 154 L 58 149 L 57 147 L 53 143 L 50 142 L 45 138 L 45 135 L 48 132 L 60 126 L 62 126 L 66 124 L 69 124 L 70 125 L 69 127 L 63 130 L 61 132 L 58 133 L 56 135 L 56 138 L 57 139 L 60 139 L 70 132 L 71 132 L 73 130 L 74 130 L 77 127 L 79 123 Z M 148 73 L 149 96 L 151 104 L 153 107 L 237 107 L 236 103 L 230 94 L 218 79 L 206 56 L 207 46 L 213 41 L 220 41 L 228 44 L 240 56 L 259 84 L 264 89 L 285 89 L 288 88 L 290 85 L 279 29 L 277 26 L 271 23 L 260 23 L 256 25 L 247 33 L 244 33 L 230 26 L 213 22 L 199 22 L 185 25 L 169 34 L 160 43 L 152 57 Z"/>
  </g>
</svg>
