<?xml version="1.0" encoding="UTF-8" standalone="no"?>
<svg xmlns="http://www.w3.org/2000/svg" width="490" height="242" viewBox="0 0 490 242" version="1.1" aria-labelledby="title" role="img">
  <title>StolMaster</title>
  <g fill="#111111" stroke="none" fill-rule="evenodd">
    <path d="M 132 194 L 131 195 L 130 205 L 129 206 L 128 210 L 126 212 L 126 214 L 131 214 L 133 212 L 134 204 L 135 203 L 135 199 L 136 198 L 142 198 L 143 199 L 143 214 L 148 214 L 148 198 L 147 196 L 145 194 Z M 80 194 L 79 195 L 79 197 L 80 198 L 86 198 L 87 199 L 87 214 L 92 214 L 92 199 L 93 198 L 101 198 L 101 194 Z M 299 194 L 294 194 L 293 193 L 290 193 L 289 194 L 286 194 L 284 193 L 283 194 L 283 222 L 284 223 L 288 222 L 288 216 L 290 214 L 299 214 L 302 212 L 302 210 L 303 209 L 303 199 Z M 289 198 L 296 198 L 298 200 L 298 207 L 296 210 L 289 210 L 288 209 L 288 199 Z M 263 194 L 259 199 L 259 209 L 260 211 L 263 214 L 265 214 L 266 215 L 275 215 L 276 214 L 279 214 L 279 211 L 278 210 L 266 210 L 265 209 L 265 207 L 266 206 L 279 206 L 279 197 L 276 194 L 274 194 L 273 193 L 267 193 L 266 194 Z M 265 199 L 266 198 L 273 198 L 274 199 L 274 201 L 273 202 L 266 202 L 265 201 Z M 214 209 L 216 213 L 218 214 L 233 214 L 233 210 L 221 210 L 220 209 L 220 199 L 221 198 L 233 198 L 234 197 L 236 198 L 243 198 L 244 199 L 244 214 L 248 214 L 249 213 L 249 206 L 248 205 L 249 199 L 250 198 L 257 198 L 257 194 L 233 194 L 232 193 L 222 193 L 221 194 L 218 194 L 215 197 L 215 199 L 214 200 Z M 192 194 L 192 198 L 204 198 L 205 199 L 205 201 L 204 202 L 193 202 L 191 204 L 191 212 L 193 214 L 210 214 L 211 213 L 211 198 L 210 196 L 208 194 L 203 194 L 202 193 L 199 193 L 198 194 Z M 196 207 L 197 206 L 204 206 L 205 207 L 205 209 L 204 210 L 197 210 L 196 209 Z M 105 195 L 103 199 L 103 209 L 104 210 L 104 212 L 106 214 L 114 214 L 115 215 L 121 214 L 124 211 L 124 197 L 121 194 L 118 194 L 117 193 L 111 193 L 110 194 L 107 194 Z M 110 198 L 118 198 L 119 199 L 120 207 L 118 210 L 110 210 L 108 208 L 108 200 Z M 152 188 L 152 214 L 154 215 L 157 215 L 158 214 L 158 200 L 159 199 L 161 200 L 167 214 L 172 214 L 178 202 L 178 200 L 180 199 L 181 200 L 181 209 L 182 210 L 182 214 L 187 214 L 187 187 L 180 187 L 178 189 L 175 195 L 175 197 L 170 206 L 168 205 L 166 201 L 166 199 L 164 197 L 162 193 L 161 189 L 159 187 L 153 187 Z M 57 188 L 54 191 L 54 193 L 53 194 L 53 208 L 54 209 L 54 211 L 57 214 L 76 214 L 76 210 L 62 210 L 59 207 L 59 194 L 61 192 L 76 192 L 76 187 L 59 187 Z M 470 91 L 470 189 L 471 189 L 471 91 Z M 182 22 L 181 24 L 181 170 L 182 171 L 332 171 L 332 22 Z M 215 39 L 220 44 L 258 108 L 260 108 L 297 44 L 301 39 L 303 40 L 326 147 L 325 153 L 302 153 L 300 151 L 292 105 L 289 107 L 262 153 L 255 153 L 227 104 L 225 107 L 216 152 L 191 152 L 206 75 Z M 23 22 L 23 171 L 175 171 L 175 22 Z M 95 39 L 116 39 L 128 42 L 138 47 L 138 72 L 137 73 L 135 73 L 130 69 L 116 63 L 99 63 L 91 66 L 82 73 L 79 77 L 74 89 L 74 105 L 79 117 L 88 126 L 101 131 L 112 131 L 123 128 L 136 120 L 138 121 L 138 145 L 129 150 L 114 154 L 94 154 L 93 153 L 89 153 L 80 150 L 71 145 L 54 128 L 49 118 L 46 108 L 46 89 L 47 88 L 47 84 L 51 73 L 56 64 L 67 52 L 74 47 L 84 42 Z"/>
  </g>
</svg>
