<?xml version="1.0" encoding="UTF-8" standalone="no"?>
<svg xmlns="http://www.w3.org/2000/svg" width="467" height="271" viewBox="0 0 467 271" version="1.1" aria-labelledby="title" role="img">
  <title>Strong Stone</title>
  <g fill="#111111" stroke="none" fill-rule="evenodd">
    <path d="M 285 229 L 285 250 L 286 251 L 301 251 L 301 249 L 289 249 L 288 248 L 288 242 L 289 241 L 300 241 L 300 239 L 289 239 L 288 238 L 288 232 L 289 231 L 301 231 L 301 229 Z M 253 229 L 253 251 L 255 251 L 256 250 L 256 236 L 257 235 L 258 235 L 260 237 L 260 238 L 264 242 L 264 243 L 267 246 L 267 247 L 271 251 L 273 251 L 273 229 L 271 229 L 271 244 L 270 245 L 269 245 L 266 242 L 266 241 L 263 238 L 263 237 L 256 229 Z M 191 229 L 191 231 L 199 231 L 200 232 L 200 251 L 202 251 L 202 232 L 203 231 L 210 231 L 210 229 Z M 223 230 L 220 233 L 219 237 L 218 238 L 218 242 L 221 248 L 226 251 L 235 251 L 237 250 L 241 246 L 241 244 L 242 243 L 242 237 L 241 236 L 241 234 L 237 230 L 235 229 L 232 229 L 231 228 Z M 226 231 L 228 231 L 229 230 L 234 231 L 238 234 L 240 238 L 240 241 L 239 242 L 238 246 L 234 249 L 227 249 L 225 248 L 221 243 L 221 237 L 222 235 Z M 171 228 L 166 232 L 166 237 L 170 240 L 178 241 L 180 243 L 180 247 L 177 249 L 170 249 L 168 247 L 166 247 L 166 249 L 169 251 L 179 251 L 181 249 L 182 249 L 183 247 L 183 243 L 182 241 L 179 239 L 171 238 L 168 235 L 168 233 L 172 230 L 177 230 L 180 232 L 182 232 L 182 230 L 178 229 L 177 228 Z M 390 148 L 386 152 L 383 159 L 383 198 L 386 205 L 393 211 L 399 213 L 447 213 L 447 186 L 445 182 L 439 176 L 434 174 L 412 173 L 411 174 L 411 183 L 432 183 L 434 184 L 438 188 L 438 203 L 437 204 L 400 204 L 396 202 L 393 199 L 392 196 L 392 161 L 395 156 L 398 154 L 447 154 L 447 145 L 397 145 Z M 311 145 L 311 212 L 312 213 L 319 213 L 320 212 L 320 161 L 322 160 L 336 178 L 343 185 L 346 190 L 355 200 L 363 211 L 366 213 L 374 213 L 375 211 L 375 167 L 374 166 L 374 162 L 375 161 L 375 149 L 374 148 L 374 145 L 365 145 L 365 195 L 364 196 L 359 192 L 321 145 Z M 245 148 L 240 153 L 238 157 L 238 160 L 237 161 L 237 197 L 238 198 L 238 200 L 240 204 L 246 210 L 250 212 L 252 212 L 253 213 L 287 213 L 288 212 L 293 211 L 295 209 L 296 209 L 301 203 L 302 201 L 302 198 L 303 197 L 303 161 L 302 160 L 302 157 L 299 153 L 299 152 L 295 148 L 291 146 L 289 146 L 288 145 L 252 145 L 251 146 L 249 146 Z M 251 155 L 253 155 L 254 154 L 287 154 L 289 155 L 293 159 L 293 161 L 294 162 L 293 164 L 293 190 L 294 191 L 294 194 L 293 195 L 293 198 L 290 202 L 286 204 L 254 204 L 250 202 L 248 200 L 247 198 L 247 160 Z M 174 148 L 169 153 L 167 157 L 167 159 L 166 160 L 166 212 L 167 213 L 175 213 L 175 183 L 177 181 L 211 181 L 212 182 L 215 182 L 220 187 L 220 190 L 221 191 L 221 196 L 220 197 L 220 204 L 221 205 L 221 209 L 222 211 L 224 213 L 234 213 L 234 212 L 230 207 L 230 188 L 229 187 L 228 183 L 224 178 L 224 177 L 229 171 L 229 168 L 230 167 L 230 145 L 181 145 L 180 146 L 178 146 Z M 175 171 L 175 162 L 176 161 L 176 159 L 180 155 L 182 154 L 220 154 L 221 155 L 221 166 L 220 168 L 216 172 L 214 172 L 213 173 L 177 173 Z M 92 145 L 92 153 L 93 154 L 120 154 L 121 155 L 121 211 L 123 213 L 130 213 L 130 155 L 131 154 L 159 154 L 159 145 Z M 29 147 L 24 152 L 22 157 L 22 170 L 24 174 L 29 179 L 33 181 L 51 181 L 52 182 L 66 182 L 69 181 L 72 182 L 77 188 L 77 197 L 76 200 L 70 204 L 22 204 L 22 212 L 23 213 L 72 213 L 80 209 L 84 204 L 86 198 L 86 187 L 83 180 L 79 176 L 73 173 L 37 173 L 31 168 L 31 158 L 36 154 L 85 154 L 85 145 L 34 145 Z M 266 105 L 244 105 L 244 106 L 242 108 L 203 108 L 203 109 L 207 111 L 212 112 L 213 113 L 221 114 L 222 115 L 243 115 L 244 114 L 248 114 L 249 113 L 257 111 L 265 107 Z M 285 87 L 281 85 L 257 85 L 256 86 L 243 86 L 242 87 L 228 87 L 227 88 L 215 88 L 214 89 L 206 89 L 205 90 L 194 90 L 194 91 L 195 92 L 216 92 L 217 93 L 242 93 L 243 94 L 248 94 L 249 95 L 256 95 L 257 96 L 268 96 L 269 95 L 280 95 L 285 89 Z M 295 68 L 290 64 L 257 64 L 256 65 L 234 65 L 233 66 L 219 66 L 218 67 L 209 67 L 208 68 L 201 68 L 200 69 L 193 69 L 192 70 L 181 70 L 180 71 L 166 71 L 166 72 L 176 72 L 178 75 L 226 74 L 227 75 L 247 75 L 248 76 L 261 76 L 262 77 L 269 77 L 270 78 L 292 78 L 294 74 L 294 72 L 295 71 Z M 299 48 L 298 47 L 298 45 L 294 44 L 293 43 L 273 43 L 272 44 L 248 44 L 247 45 L 229 45 L 228 46 L 213 46 L 212 47 L 208 47 L 207 48 L 200 48 L 199 49 L 194 49 L 193 50 L 181 50 L 180 51 L 176 51 L 176 52 L 177 53 L 182 53 L 183 52 L 227 52 L 228 53 L 245 53 L 246 54 L 254 54 L 255 55 L 265 55 L 266 56 L 274 56 L 275 57 L 280 57 L 281 58 L 288 58 L 289 59 L 292 59 L 293 58 L 298 58 Z M 297 31 L 296 30 L 296 27 L 294 24 L 292 24 L 291 23 L 287 23 L 286 22 L 280 22 L 279 23 L 239 23 L 238 24 L 223 24 L 222 25 L 209 25 L 208 26 L 202 26 L 201 27 L 188 27 L 182 30 L 169 30 L 168 31 L 166 31 L 166 33 L 190 33 L 191 32 L 239 32 L 240 33 L 253 33 L 254 34 L 264 34 L 265 35 L 274 35 L 275 36 L 282 36 L 283 37 L 291 37 L 292 36 L 296 35 L 297 34 Z"/>
  </g>
</svg>
